<?xml version="1.0" encoding="utf-8"?>
<svg xmlns="http://www.w3.org/2000/svg" xmlns:xlink="http://www.w3.org/1999/xlink" xml:space="preserve" width="300" height="300" viewBox="0 0 588 588"><g fill="#8c8c8e">
<g transform="translate(120,24) scale(2.06)"><path d="M6,6H3C1.3,6,0,4.7,0,3v0c0-1.7,1.3-3,3-3h3C6,0,6,6,6,6z"/></g>
<g transform="translate(132,24) scale(2.06)"><rect width="6" height="6"/></g>
<g transform="translate(144,24) scale(2.06)"><rect width="6" height="6"/></g>
<g transform="translate(156,24) scale(2.06)"><rect width="6" height="6"/></g>
<g transform="translate(168,24) scale(2.06)"><path d="M3,6H0V0l3,0c1.7,0,3,1.3,3,3v0C6,4.7,4.7,6,3,6z"/></g>
<g transform="translate(192,24) scale(2.06)"><path d="M6,6H3C1.3,6,0,4.7,0,3v0c0-1.7,1.3-3,3-3h3C6,0,6,6,6,6z"/></g>
<g transform="translate(204,24) scale(2.06)"><rect width="6" height="6"/></g>
<g transform="translate(216,24) scale(2.06)"><path d="M3,6H0V0l3,0c1.7,0,3,1.3,3,3v0C6,4.7,4.7,6,3,6z"/></g>
<g transform="translate(252,24) scale(2.06)"><path d="M6,6H0V3c0-1.7,1.3-3,3-3l3,0V6z"/></g>
<g transform="translate(264,24) scale(2.06)"><rect width="6" height="6"/></g>
<g transform="translate(276,24) scale(2.06)"><path d="M6,6H0V0l3,0c1.7,0,3,1.3,3,3V6z"/></g>
<g transform="translate(312,24) scale(2.06)"><path d="M6,6H0V3c0-1.7,1.3-3,3-3l3,0V6z"/></g>
<g transform="translate(324,24) scale(2.06)"><path d="M6,6H0V0l3,0c1.7,0,3,1.3,3,3V6z"/></g>
<g transform="translate(360,24) scale(2.06)"><path d="M6,6H3C1.3,6,0,4.7,0,3v0c0-1.7,1.3-3,3-3h3C6,0,6,6,6,6z"/></g>
<g transform="translate(372,24) scale(2.06)"><rect width="6" height="6"/></g>
<g transform="translate(384,24) scale(2.06)"><rect width="6" height="6"/></g>
<g transform="translate(396,24) scale(2.06)"><rect width="6" height="6"/></g>
<g transform="translate(408,24) scale(2.06)"><path d="M3,6H0V0l3,0c1.7,0,3,1.3,3,3v0C6,4.7,4.7,6,3,6z"/></g>
<g transform="translate(456,24) scale(2.06)"><circle cx="3" cy="3" r="3"/></g>
<g transform="translate(144,36) scale(2.06)"><path d="M3,6L3,6C1.3,6,0,4.7,0,3V0h6v3C6,4.7,4.7,6,3,6z"/></g>
<g transform="translate(240,36) scale(2.06)"><path d="M6,6H0V3c0-1.7,1.3-3,3-3l3,0V6z"/></g>
<g transform="translate(252,36) scale(2.06)"><rect width="6" height="6"/></g>
<g transform="translate(276,36) scale(2.06)"><rect width="6" height="6"/></g>
<g transform="translate(288,36) scale(2.06)"><path d="M6,6H0V0l3,0c1.7,0,3,1.3,3,3V6z"/></g>
<g transform="translate(312,36) scale(2.06)"><rect width="6" height="6"/></g>
<g transform="translate(324,36) scale(2.06)"><rect width="6" height="6"/></g>
<g transform="translate(336,36) scale(2.06)"><rect width="6" height="6"/></g>
<g transform="translate(348,36) scale(2.06)"><path d="M6,6H0V0l3,0c1.7,0,3,1.3,3,3V6z"/></g>
<g transform="translate(396,36) scale(2.06)"><path d="M3,6L3,6C1.3,6,0,4.7,0,3V0h6v3C6,4.7,4.7,6,3,6z"/></g>
<g transform="translate(444,36) scale(2.06)"><path d="M6,6H0V3c0-1.7,1.3-3,3-3h0c1.7,0,3,1.3,3,3V6z"/></g>
<g transform="translate(168,48) scale(2.06)"><circle cx="3" cy="3" r="3"/></g>
<g transform="translate(204,48) scale(2.06)"><path d="M6,6H3C1.3,6,0,4.7,0,3v0c0-1.7,1.3-3,3-3h3C6,0,6,6,6,6z"/></g>
<g transform="translate(216,48) scale(2.06)"><rect width="6" height="6"/></g>
<g transform="translate(228,48) scale(2.06)"><rect width="6" height="6"/></g>
<g transform="translate(240,48) scale(2.06)"><rect width="6" height="6"/></g>
<g transform="translate(252,48) scale(2.06)"><rect width="6" height="6"/></g>
<g transform="translate(264,48) scale(2.06)"><rect width="6" height="6"/></g>
<g transform="translate(276,48) scale(2.06)"><rect width="6" height="6"/></g>
<g transform="translate(288,48) scale(2.06)"><path d="M3,6H0V0l6,0v3C6,4.7,4.7,6,3,6z"/></g>
<g transform="translate(312,48) scale(2.06)"><rect width="6" height="6"/></g>
<g transform="translate(324,48) scale(2.06)"><rect width="6" height="6"/></g>
<g transform="translate(336,48) scale(2.06)"><rect width="6" height="6"/></g>
<g transform="translate(348,48) scale(2.06)"><rect width="6" height="6"/></g>
<g transform="translate(360,48) scale(2.06)"><rect width="6" height="6"/></g>
<g transform="translate(372,48) scale(2.06)"><rect width="6" height="6"/></g>
<g transform="translate(384,48) scale(2.06)"><path d="M6,6H0V0l3,0c1.7,0,3,1.3,3,3V6z"/></g>
<g transform="translate(420,48) scale(2.06)"><circle cx="3" cy="3" r="3"/></g>
<g transform="translate(444,48) scale(2.06)"><rect width="6" height="6"/></g>
<g transform="translate(144,60) scale(2.06)"><path d="M6,6H0V3c0-1.7,1.3-3,3-3h0c1.7,0,3,1.3,3,3V6z"/></g>
<g transform="translate(216,60) scale(2.06)"><path d="M3,6L3,6C1.3,6,0,4.7,0,3V0h6v3C6,4.7,4.7,6,3,6z"/></g>
<g transform="translate(252,60) scale(2.06)"><path d="M6,6H3C1.3,6,0,4.7,0,3V0l6,0V6z"/></g>
<g transform="translate(264,60) scale(2.06)"><rect width="6" height="6"/></g>
<g transform="translate(276,60) scale(2.06)"><rect width="6" height="6"/></g>
<g transform="translate(312,60) scale(2.06)"><rect width="6" height="6"/></g>
<g transform="translate(336,60) scale(2.06)"><rect width="6" height="6"/></g>
<g transform="translate(384,60) scale(2.06)"><rect width="6" height="6"/></g>
<g transform="translate(396,60) scale(2.06)"><rect width="6" height="6"/></g>
<g transform="translate(408,60) scale(2.06)"><path d="M6,6H0V0l3,0c1.7,0,3,1.3,3,3V6z"/></g>
<g transform="translate(444,60) scale(2.06)"><rect width="6" height="6"/></g>
<g transform="translate(456,60) scale(2.06)"><path d="M6,6H0V0l3,0c1.7,0,3,1.3,3,3V6z"/></g>
<g transform="translate(120,72) scale(2.06)"><path d="M6,6H0V3c0-1.7,1.3-3,3-3l3,0V6z"/></g>
<g transform="translate(132,72) scale(2.06)"><rect width="6" height="6"/></g>
<g transform="translate(144,72) scale(2.06)"><rect width="6" height="6"/></g>
<g transform="translate(156,72) scale(2.06)"><rect width="6" height="6"/></g>
<g transform="translate(168,72) scale(2.06)"><rect width="6" height="6"/></g>
<g transform="translate(180,72) scale(2.06)"><path d="M6,6H0V0l3,0c1.7,0,3,1.3,3,3V6z"/></g>
<g transform="translate(264,72) scale(2.06)"><rect width="6" height="6"/></g>
<g transform="translate(276,72) scale(2.06)"><rect width="6" height="6"/></g>
<g transform="translate(288,72) scale(2.06)"><rect width="6" height="6"/></g>
<g transform="translate(300,72) scale(2.06)"><rect width="6" height="6"/></g>
<g transform="translate(312,72) scale(2.06)"><rect width="6" height="6"/></g>
<g transform="translate(324,72) scale(2.06)"><rect width="6" height="6"/></g>
<g transform="translate(336,72) scale(2.06)"><path d="M3,6H0V0l6,0v3C6,4.7,4.7,6,3,6z"/></g>
<g transform="translate(360,72) scale(2.06)"><path d="M6,6H0V3c0-1.7,1.3-3,3-3l3,0V6z"/></g>
<g transform="translate(372,72) scale(2.06)"><rect width="6" height="6"/></g>
<g transform="translate(384,72) scale(2.06)"><path d="M3,6H0V0l6,0v3C6,4.7,4.7,6,3,6z"/></g>
<g transform="translate(408,72) scale(2.06)"><rect width="6" height="6"/></g>
<g transform="translate(432,72) scale(2.06)"><path d="M6,6H3C1.3,6,0,4.7,0,3v0c0-1.7,1.3-3,3-3h3C6,0,6,6,6,6z"/></g>
<g transform="translate(444,72) scale(2.06)"><rect width="6" height="6"/></g>
<g transform="translate(456,72) scale(2.06)"><path d="M3,6H0V0l6,0v3C6,4.7,4.7,6,3,6z"/></g>
<g transform="translate(120,84) scale(2.06)"><rect width="6" height="6"/></g>
<g transform="translate(132,84) scale(2.06)"><rect width="6" height="6"/></g>
<g transform="translate(144,84) scale(2.06)"><rect width="6" height="6"/></g>
<g transform="translate(168,84) scale(2.06)"><rect width="6" height="6"/></g>
<g transform="translate(180,84) scale(2.06)"><path d="M3,6H0V0l6,0v3C6,4.7,4.7,6,3,6z"/></g>
<g transform="translate(228,84) scale(2.06)"><path d="M6,6H3C1.3,6,0,4.7,0,3v0c0-1.7,1.3-3,3-3h3C6,0,6,6,6,6z"/></g>
<g transform="translate(240,84) scale(2.06)"><rect width="6" height="6"/></g>
<g transform="translate(252,84) scale(2.06)"><rect width="6" height="6"/></g>
<g transform="translate(264,84) scale(2.06)"><rect width="6" height="6"/></g>
<g transform="translate(312,84) scale(2.06)"><rect width="6" height="6"/></g>
<g transform="translate(360,84) scale(2.06)"><rect width="6" height="6"/></g>
<g transform="translate(372,84) scale(2.06)"><path d="M3,6H0V0l6,0v3C6,4.7,4.7,6,3,6z"/></g>
<g transform="translate(396,84) scale(2.06)"><path d="M6,6H3C1.3,6,0,4.7,0,3v0c0-1.7,1.3-3,3-3h3C6,0,6,6,6,6z"/></g>
<g transform="translate(408,84) scale(2.06)"><rect width="6" height="6"/></g>
<g transform="translate(420,84) scale(2.06)"><path d="M3,6H0V0l3,0c1.7,0,3,1.3,3,3v0C6,4.7,4.7,6,3,6z"/></g>
<g transform="translate(120,96) scale(2.06)"><path d="M3,6L3,6C1.3,6,0,4.7,0,3V0h6v3C6,4.7,4.7,6,3,6z"/></g>
<g transform="translate(144,96) scale(2.06)"><rect width="6" height="6"/></g>
<g transform="translate(168,96) scale(2.06)"><path d="M3,6L3,6C1.3,6,0,4.7,0,3V0h6v3C6,4.7,4.7,6,3,6z"/></g>
<g transform="translate(192,96) scale(2.06)"><path d="M6,6H0V3c0-1.7,1.3-3,3-3h0c1.7,0,3,1.3,3,3V6z"/></g>
<g transform="translate(216,96) scale(2.06)"><circle cx="3" cy="3" r="3"/></g>
<g transform="translate(240,96) scale(2.06)"><path d="M3,6L3,6C1.3,6,0,4.7,0,3V0h6v3C6,4.7,4.7,6,3,6z"/></g>
<g transform="translate(264,96) scale(2.06)"><rect width="6" height="6"/></g>
<g transform="translate(288,96) scale(2.06)"><circle cx="3" cy="3" r="3"/></g>
<g transform="translate(312,96) scale(2.06)"><rect width="6" height="6"/></g>
<g transform="translate(336,96) scale(2.06)"><path d="M6,6H0V3c0-1.7,1.3-3,3-3h0c1.7,0,3,1.3,3,3V6z"/></g>
<g transform="translate(360,96) scale(2.06)"><rect width="6" height="6"/></g>
<g transform="translate(384,96) scale(2.06)"><path d="M6,6H0V3c0-1.7,1.3-3,3-3h0c1.7,0,3,1.3,3,3V6z"/></g>
<g transform="translate(408,96) scale(2.06)"><rect width="6" height="6"/></g>
<g transform="translate(432,96) scale(2.06)"><path d="M6,6H0V3c0-1.7,1.3-3,3-3h0c1.7,0,3,1.3,3,3V6z"/></g>
<g transform="translate(456,96) scale(2.06)"><circle cx="3" cy="3" r="3"/></g>
<g transform="translate(144,108) scale(2.06)"><rect width="6" height="6"/></g>
<g transform="translate(180,108) scale(2.06)"><path d="M6,6H3C1.3,6,0,4.7,0,3v0c0-1.7,1.3-3,3-3h3C6,0,6,6,6,6z"/></g>
<g transform="translate(192,108) scale(2.06)"><rect width="6" height="6"/></g>
<g transform="translate(264,108) scale(2.06)"><rect width="6" height="6"/></g>
<g transform="translate(312,108) scale(2.06)"><rect width="6" height="6"/></g>
<g transform="translate(336,108) scale(2.06)"><path d="M6,6H3C1.3,6,0,4.7,0,3V0l6,0V6z"/></g>
<g transform="translate(348,108) scale(2.06)"><rect width="6" height="6"/></g>
<g transform="translate(360,108) scale(2.06)"><path d="M3,6H0V0l6,0v3C6,4.7,4.7,6,3,6z"/></g>
<g transform="translate(384,108) scale(2.06)"><path d="M6,6H3C1.3,6,0,4.7,0,3V0l6,0V6z"/></g>
<g transform="translate(396,108) scale(2.06)"><rect width="6" height="6"/></g>
<g transform="translate(408,108) scale(2.06)"><path d="M3,6H0V0l6,0v3C6,4.7,4.7,6,3,6z"/></g>
<g transform="translate(432,108) scale(2.06)"><path d="M6,6H3C1.3,6,0,4.7,0,3V0l6,0V6z"/></g>
<g transform="translate(444,108) scale(2.06)"><path d="M6,6H0V0l3,0c1.7,0,3,1.3,3,3V6z"/></g>
<g transform="translate(36,120) scale(2.06)"><path d="M6,6H3C1.3,6,0,4.7,0,3v0c0-1.7,1.3-3,3-3h3C6,0,6,6,6,6z"/></g>
<g transform="translate(48,120) scale(2.06)"><rect width="6" height="6"/></g>
<g transform="translate(60,120) scale(2.06)"><rect width="6" height="6"/></g>
<g transform="translate(72,120) scale(2.06)"><rect width="6" height="6"/></g>
<g transform="translate(84,120) scale(2.06)"><rect width="6" height="6"/></g>
<g transform="translate(96,120) scale(2.06)"><rect width="6" height="6"/></g>
<g transform="translate(108,120) scale(2.06)"><path d="M3,6H0V0l3,0c1.7,0,3,1.3,3,3v0C6,4.7,4.7,6,3,6z"/></g>
<g transform="translate(144,120) scale(2.06)"><rect width="6" height="6"/></g>
<g transform="translate(156,120) scale(2.06)"><rect width="6" height="6"/></g>
<g transform="translate(168,120) scale(2.06)"><path d="M6,6H0V0l3,0c1.7,0,3,1.3,3,3V6z"/></g>
<g transform="translate(192,120) scale(2.06)"><rect width="6" height="6"/></g>
<g transform="translate(204,120) scale(2.06)"><rect width="6" height="6"/></g>
<g transform="translate(216,120) scale(2.06)"><path d="M3,6H0V0l3,0c1.7,0,3,1.3,3,3v0C6,4.7,4.7,6,3,6z"/></g>
<g transform="translate(240,120) scale(2.06)"><path d="M6,6H0V3c0-1.7,1.3-3,3-3h0c1.7,0,3,1.3,3,3V6z"/></g>
<g transform="translate(264,120) scale(2.06)"><rect width="6" height="6"/></g>
<g transform="translate(276,120) scale(2.06)"><rect width="6" height="6"/></g>
<g transform="translate(288,120) scale(2.06)"><rect width="6" height="6"/></g>
<g transform="translate(300,120) scale(2.06)"><rect width="6" height="6"/></g>
<g transform="translate(312,120) scale(2.06)"><rect width="6" height="6"/></g>
<g transform="translate(324,120) scale(2.06)"><path d="M6,6H0V0l3,0c1.7,0,3,1.3,3,3V6z"/></g>
<g transform="translate(372,120) scale(2.06)"><path d="M6,6H0V3c0-1.7,1.3-3,3-3h0c1.7,0,3,1.3,3,3V6z"/></g>
<g transform="translate(396,120) scale(2.06)"><path d="M3,6L3,6C1.3,6,0,4.7,0,3V0h6v3C6,4.7,4.7,6,3,6z"/></g>
<g transform="translate(420,120) scale(2.06)"><circle cx="3" cy="3" r="3"/></g>
<g transform="translate(444,120) scale(2.06)"><rect width="6" height="6"/></g>
<g transform="translate(456,120) scale(2.06)"><path d="M6,6H0V0l3,0c1.7,0,3,1.3,3,3V6z"/></g>
<g transform="translate(492,120) scale(2.06)"><path d="M6,6H0V3c0-1.7,1.3-3,3-3l3,0V6z"/></g>
<g transform="translate(504,120) scale(2.06)"><path d="M3,6H0V0l3,0c1.7,0,3,1.3,3,3v0C6,4.7,4.7,6,3,6z"/></g>
<g transform="translate(552,120) scale(2.06)"><path d="M6,6H0V3c0-1.7,1.3-3,3-3h0c1.7,0,3,1.3,3,3V6z"/></g>
<g transform="translate(84,132) scale(2.06)"><rect width="6" height="6"/></g>
<g transform="translate(144,132) scale(2.06)"><rect width="6" height="6"/></g>
<g transform="translate(156,132) scale(2.06)"><rect width="6" height="6"/></g>
<g transform="translate(168,132) scale(2.06)"><rect width="6" height="6"/></g>
<g transform="translate(192,132) scale(2.06)"><rect width="6" height="6"/></g>
<g transform="translate(228,132) scale(2.06)"><path d="M6,6H0V3c0-1.7,1.3-3,3-3l3,0V6z"/></g>
<g transform="translate(240,132) scale(2.06)"><rect width="6" height="6"/></g>
<g transform="translate(264,132) scale(2.06)"><path d="M6,6H3C1.3,6,0,4.7,0,3V0l6,0V6z"/></g>
<g transform="translate(276,132) scale(2.06)"><rect width="6" height="6"/></g>
<g transform="translate(300,132) scale(2.06)"><rect width="6" height="6"/></g>
<g transform="translate(324,132) scale(2.06)"><path d="M3,6L3,6C1.3,6,0,4.7,0,3V0h6v3C6,4.7,4.7,6,3,6z"/></g>
<g transform="translate(360,132) scale(2.06)"><path d="M6,6H3C1.3,6,0,4.7,0,3v0c0-1.7,1.3-3,3-3h3C6,0,6,6,6,6z"/></g>
<g transform="translate(372,132) scale(2.06)"><rect width="6" height="6"/></g>
<g transform="translate(384,132) scale(2.06)"><path d="M3,6H0V0l3,0c1.7,0,3,1.3,3,3v0C6,4.7,4.7,6,3,6z"/></g>
<g transform="translate(444,132) scale(2.06)"><rect width="6" height="6"/></g>
<g transform="translate(456,132) scale(2.06)"><rect width="6" height="6"/></g>
<g transform="translate(468,132) scale(2.06)"><path d="M6,6H0V0l3,0c1.7,0,3,1.3,3,3V6z"/></g>
<g transform="translate(492,132) scale(2.06)"><path d="M3,6L3,6C1.3,6,0,4.7,0,3V0h6v3C6,4.7,4.7,6,3,6z"/></g>
<g transform="translate(516,132) scale(2.06)"><path d="M6,6H0V3c0-1.7,1.3-3,3-3l3,0V6z"/></g>
<g transform="translate(528,132) scale(2.06)"><path d="M6,6H0V0l3,0c1.7,0,3,1.3,3,3V6z"/></g>
<g transform="translate(552,132) scale(2.06)"><path d="M3,6L3,6C1.3,6,0,4.7,0,3V0h6v3C6,4.7,4.7,6,3,6z"/></g>
<g transform="translate(36,144) scale(2.06)"><path d="M6,6H0V3c0-1.7,1.3-3,3-3h0c1.7,0,3,1.3,3,3V6z"/></g>
<g transform="translate(84,144) scale(2.06)"><path d="M6,6H3C1.3,6,0,4.7,0,3V0l6,0V6z"/></g>
<g transform="translate(96,144) scale(2.06)"><path d="M3,6H0V0l3,0c1.7,0,3,1.3,3,3v0C6,4.7,4.7,6,3,6z"/></g>
<g transform="translate(120,144) scale(2.06)"><path d="M6,6H3C1.3,6,0,4.7,0,3v0c0-1.7,1.3-3,3-3h3C6,0,6,6,6,6z"/></g>
<g transform="translate(132,144) scale(2.06)"><rect width="6" height="6"/></g>
<g transform="translate(144,144) scale(2.06)"><rect width="6" height="6"/></g>
<g transform="translate(156,144) scale(2.06)"><rect width="6" height="6"/></g>
<g transform="translate(168,144) scale(2.06)"><rect width="6" height="6"/></g>
<g transform="translate(180,144) scale(2.06)"><rect width="6" height="6"/></g>
<g transform="translate(192,144) scale(2.06)"><path d="M3,6H0V0l6,0v3C6,4.7,4.7,6,3,6z"/></g>
<g transform="translate(216,144) scale(2.06)"><path d="M6,6H3C1.3,6,0,4.7,0,3v0c0-1.7,1.3-3,3-3h3C6,0,6,6,6,6z"/></g>
<g transform="translate(228,144) scale(2.06)"><rect width="6" height="6"/></g>
<g transform="translate(240,144) scale(2.06)"><rect width="6" height="6"/></g>
<g transform="translate(252,144) scale(2.06)"><path d="M6,6H0V0l3,0c1.7,0,3,1.3,3,3V6z"/></g>
<g transform="translate(276,144) scale(2.06)"><rect width="6" height="6"/></g>
<g transform="translate(300,144) scale(2.06)"><path d="M3,6L3,6C1.3,6,0,4.7,0,3V0h6v3C6,4.7,4.7,6,3,6z"/></g>
<g transform="translate(336,144) scale(2.06)"><path d="M6,6H0V3c0-1.7,1.3-3,3-3l3,0V6z"/></g>
<g transform="translate(348,144) scale(2.06)"><path d="M3,6H0V0l3,0c1.7,0,3,1.3,3,3v0C6,4.7,4.7,6,3,6z"/></g>
<g transform="translate(408,144) scale(2.06)"><path d="M6,6H0V3c0-1.7,1.3-3,3-3l3,0V6z"/></g>
<g transform="translate(420,144) scale(2.06)"><rect width="6" height="6"/></g>
<g transform="translate(432,144) scale(2.06)"><rect width="6" height="6"/></g>
<g transform="translate(444,144) scale(2.06)"><rect width="6" height="6"/></g>
<g transform="translate(468,144) scale(2.06)"><rect width="6" height="6"/></g>
<g transform="translate(480,144) scale(2.06)"><path d="M6,6H0V0l3,0c1.7,0,3,1.3,3,3V6z"/></g>
<g transform="translate(516,144) scale(2.06)"><rect width="6" height="6"/></g>
<g transform="translate(528,144) scale(2.06)"><rect width="6" height="6"/></g>
<g transform="translate(540,144) scale(2.06)"><path d="M3,6H0V0l3,0c1.7,0,3,1.3,3,3v0C6,4.7,4.7,6,3,6z"/></g>
<g transform="translate(36,156) scale(2.06)"><path d="M6,6H3C1.3,6,0,4.7,0,3V0l6,0V6z"/></g>
<g transform="translate(48,156) scale(2.06)"><rect width="6" height="6"/></g>
<g transform="translate(60,156) scale(2.06)"><rect width="6" height="6"/></g>
<g transform="translate(72,156) scale(2.06)"><path d="M3,6H0V0l3,0c1.7,0,3,1.3,3,3v0C6,4.7,4.7,6,3,6z"/></g>
<g transform="translate(108,156) scale(2.06)"><path d="M6,6H0V3c0-1.7,1.3-3,3-3h0c1.7,0,3,1.3,3,3V6z"/></g>
<g transform="translate(144,156) scale(2.06)"><path d="M6,6H3C1.3,6,0,4.7,0,3V0l6,0V6z"/></g>
<g transform="translate(156,156) scale(2.06)"><rect width="6" height="6"/></g>
<g transform="translate(168,156) scale(2.06)"><rect width="6" height="6"/></g>
<g transform="translate(228,156) scale(2.06)"><rect width="6" height="6"/></g>
<g transform="translate(240,156) scale(2.06)"><rect width="6" height="6"/></g>
<g transform="translate(252,156) scale(2.06)"><rect width="6" height="6"/></g>
<g transform="translate(264,156) scale(2.06)"><rect width="6" height="6"/></g>
<g transform="translate(276,156) scale(2.06)"><rect width="6" height="6"/></g>
<g transform="translate(288,156) scale(2.06)"><path d="M3,6H0V0l3,0c1.7,0,3,1.3,3,3v0C6,4.7,4.7,6,3,6z"/></g>
<g transform="translate(312,156) scale(2.06)"><path d="M6,6H3C1.3,6,0,4.7,0,3v0c0-1.7,1.3-3,3-3h3C6,0,6,6,6,6z"/></g>
<g transform="translate(324,156) scale(2.06)"><rect width="6" height="6"/></g>
<g transform="translate(336,156) scale(2.06)"><path d="M3,6H0V0l6,0v3C6,4.7,4.7,6,3,6z"/></g>
<g transform="translate(372,156) scale(2.06)"><circle cx="3" cy="3" r="3"/></g>
<g transform="translate(408,156) scale(2.06)"><path d="M3,6L3,6C1.3,6,0,4.7,0,3V0h6v3C6,4.7,4.7,6,3,6z"/></g>
<g transform="translate(432,156) scale(2.06)"><rect width="6" height="6"/></g>
<g transform="translate(444,156) scale(2.06)"><path d="M3,6H0V0l6,0v3C6,4.7,4.7,6,3,6z"/></g>
<g transform="translate(468,156) scale(2.06)"><rect width="6" height="6"/></g>
<g transform="translate(480,156) scale(2.06)"><rect width="6" height="6"/></g>
<g transform="translate(492,156) scale(2.06)"><rect width="6" height="6"/></g>
<g transform="translate(504,156) scale(2.06)"><rect width="6" height="6"/></g>
<g transform="translate(516,156) scale(2.06)"><rect width="6" height="6"/></g>
<g transform="translate(528,156) scale(2.06)"><path d="M3,6H0V0l6,0v3C6,4.7,4.7,6,3,6z"/></g>
<g transform="translate(48,168) scale(2.06)"><path d="M3,6L3,6C1.3,6,0,4.7,0,3V0h6v3C6,4.7,4.7,6,3,6z"/></g>
<g transform="translate(84,168) scale(2.06)"><path d="M6,6H0V3c0-1.7,1.3-3,3-3l3,0V6z"/></g>
<g transform="translate(96,168) scale(2.06)"><rect width="6" height="6"/></g>
<g transform="translate(108,168) scale(2.06)"><path d="M3,6H0V0l6,0v3C6,4.7,4.7,6,3,6z"/></g>
<g transform="translate(156,168) scale(2.06)"><rect width="6" height="6"/></g>
<g transform="translate(168,168) scale(2.06)"><path d="M3,6H0V0l6,0v3C6,4.7,4.7,6,3,6z"/></g>
<g transform="translate(192,168) scale(2.06)"><path d="M6,6H3C1.3,6,0,4.7,0,3v0c0-1.7,1.3-3,3-3h3C6,0,6,6,6,6z"/></g>
<g transform="translate(204,168) scale(2.06)"><path d="M3,6H0V0l3,0c1.7,0,3,1.3,3,3v0C6,4.7,4.7,6,3,6z"/></g>
<g transform="translate(228,168) scale(2.06)"><path d="M6,6H3C1.3,6,0,4.7,0,3V0l6,0V6z"/></g>
<g transform="translate(240,168) scale(2.06)"><path d="M3,6H0V0l6,0v3C6,4.7,4.7,6,3,6z"/></g>
<g transform="translate(264,168) scale(2.06)"><path d="M3,6L3,6C1.3,6,0,4.7,0,3V0h6v3C6,4.7,4.7,6,3,6z"/></g>
<g transform="translate(324,168) scale(2.06)"><rect width="6" height="6"/></g>
<g transform="translate(384,168) scale(2.06)"><path d="M6,6H0V3c0-1.7,1.3-3,3-3l3,0V6z"/></g>
<g transform="translate(396,168) scale(2.06)"><path d="M3,6H0V0l3,0c1.7,0,3,1.3,3,3v0C6,4.7,4.7,6,3,6z"/></g>
<g transform="translate(420,168) scale(2.06)"><path d="M6,6H3C1.3,6,0,4.7,0,3v0c0-1.7,1.3-3,3-3h3C6,0,6,6,6,6z"/></g>
<g transform="translate(432,168) scale(2.06)"><path d="M3,6H0V0l6,0v3C6,4.7,4.7,6,3,6z"/></g>
<g transform="translate(456,168) scale(2.06)"><path d="M6,6H0V3c0-1.7,1.3-3,3-3l3,0V6z"/></g>
<g transform="translate(468,168) scale(2.06)"><rect width="6" height="6"/></g>
<g transform="translate(480,168) scale(2.06)"><path d="M3,6H0V0l6,0v3C6,4.7,4.7,6,3,6z"/></g>
<g transform="translate(540,168) scale(2.06)"><circle cx="3" cy="3" r="3"/></g>
<g transform="translate(24,180) scale(2.06)"><path d="M6,6H0V3c0-1.7,1.3-3,3-3h0c1.7,0,3,1.3,3,3V6z"/></g>
<g transform="translate(60,180) scale(2.06)"><path d="M6,6H0V3c0-1.7,1.3-3,3-3l3,0V6z"/></g>
<g transform="translate(72,180) scale(2.06)"><rect width="6" height="6"/></g>
<g transform="translate(84,180) scale(2.06)"><path d="M3,6H0V0l6,0v3C6,4.7,4.7,6,3,6z"/></g>
<g transform="translate(132,180) scale(2.06)"><path d="M6,6H0V3c0-1.7,1.3-3,3-3l3,0V6z"/></g>
<g transform="translate(144,180) scale(2.06)"><rect width="6" height="6"/></g>
<g transform="translate(156,180) scale(2.06)"><rect width="6" height="6"/></g>
<g transform="translate(252,180) scale(2.06)"><circle cx="3" cy="3" r="3"/></g>
<g transform="translate(312,180) scale(2.06)"><path d="M6,6H3C1.3,6,0,4.7,0,3v0c0-1.7,1.3-3,3-3h3C6,0,6,6,6,6z"/></g>
<g transform="translate(324,180) scale(2.06)"><path d="M3,6H0V0l6,0v3C6,4.7,4.7,6,3,6z"/></g>
<g transform="translate(348,180) scale(2.06)"><path d="M6,6H0V3c0-1.7,1.3-3,3-3l3,0V6z"/></g>
<g transform="translate(360,180) scale(2.06)"><rect width="6" height="6"/></g>
<g transform="translate(372,180) scale(2.06)"><rect width="6" height="6"/></g>
<g transform="translate(384,180) scale(2.06)"><path d="M3,6H0V0l6,0v3C6,4.7,4.7,6,3,6z"/></g>
<g transform="translate(408,180) scale(2.06)"><circle cx="3" cy="3" r="3"/></g>
<g transform="translate(444,180) scale(2.06)"><path d="M6,6H0V3c0-1.7,1.3-3,3-3l3,0V6z"/></g>
<g transform="translate(456,180) scale(2.06)"><rect width="6" height="6"/></g>
<g transform="translate(468,180) scale(2.06)"><path d="M3,6H0V0l6,0v3C6,4.7,4.7,6,3,6z"/></g>
<g transform="translate(528,180) scale(2.06)"><circle cx="3" cy="3" r="3"/></g>
<g transform="translate(552,180) scale(2.06)"><circle cx="3" cy="3" r="3"/></g>
<g transform="translate(24,192) scale(2.06)"><path d="M6,6H3C1.3,6,0,4.7,0,3V0l6,0V6z"/></g>
<g transform="translate(36,192) scale(2.06)"><path d="M3,6H0V0l3,0c1.7,0,3,1.3,3,3v0C6,4.7,4.7,6,3,6z"/></g>
<g transform="translate(60,192) scale(2.06)"><rect width="6" height="6"/></g>
<g transform="translate(96,192) scale(2.06)"><circle cx="3" cy="3" r="3"/></g>
<g transform="translate(132,192) scale(2.06)"><rect width="6" height="6"/></g>
<g transform="translate(144,192) scale(2.06)"><rect width="6" height="6"/></g>
<g transform="translate(156,192) scale(2.06)"><rect width="6" height="6"/></g>
<g transform="translate(192,192) scale(2.06)"><path d="M6,6H3C1.3,6,0,4.7,0,3v0c0-1.7,1.3-3,3-3h3C6,0,6,6,6,6z"/></g>
<g transform="translate(204,192) scale(2.06)"><path d="M3,6H0V0l3,0c1.7,0,3,1.3,3,3v0C6,4.7,4.7,6,3,6z"/></g>
<g transform="translate(228,192) scale(2.06)"><circle cx="3" cy="3" r="3"/></g>
<g transform="translate(336,192) scale(2.06)"><path d="M6,6H3C1.3,6,0,4.7,0,3v0c0-1.7,1.3-3,3-3h3C6,0,6,6,6,6z"/></g>
<g transform="translate(348,192) scale(2.06)"><path d="M3,6H0V0l6,0v3C6,4.7,4.7,6,3,6z"/></g>
<g transform="translate(420,192) scale(2.06)"><path d="M6,6H0V3c0-1.7,1.3-3,3-3l3,0V6z"/></g>
<g transform="translate(432,192) scale(2.06)"><rect width="6" height="6"/></g>
<g transform="translate(444,192) scale(2.06)"><rect width="6" height="6"/></g>
<g transform="translate(480,192) scale(2.06)"><path d="M6,6H3C1.3,6,0,4.7,0,3v0c0-1.7,1.3-3,3-3h3C6,0,6,6,6,6z"/></g>
<g transform="translate(492,192) scale(2.06)"><rect width="6" height="6"/></g>
<g transform="translate(504,192) scale(2.06)"><rect width="6" height="6"/></g>
<g transform="translate(516,192) scale(2.06)"><path d="M6,6H0V0l3,0c1.7,0,3,1.3,3,3V6z"/></g>
<g transform="translate(48,204) scale(2.06)"><path d="M6,6H0V3c0-1.7,1.3-3,3-3l3,0V6z"/></g>
<g transform="translate(60,204) scale(2.06)"><rect width="6" height="6"/></g>
<g transform="translate(84,204) scale(2.06)"><path d="M6,6H0V3c0-1.7,1.3-3,3-3h0c1.7,0,3,1.3,3,3V6z"/></g>
<g transform="translate(108,204) scale(2.06)"><circle cx="3" cy="3" r="3"/></g>
<g transform="translate(132,204) scale(2.06)"><rect width="6" height="6"/></g>
<g transform="translate(156,204) scale(2.06)"><path d="M3,6L3,6C1.3,6,0,4.7,0,3V0h6v3C6,4.7,4.7,6,3,6z"/></g>
<g transform="translate(240,204) scale(2.06)"><path d="M6,6H0V3c0-1.7,1.3-3,3-3l3,0V6z"/></g>
<g transform="translate(252,204) scale(2.06)"><path d="M6,6H0V0l3,0c1.7,0,3,1.3,3,3V6z"/></g>
<g transform="translate(288,204) scale(2.06)"><path d="M6,6H3C1.3,6,0,4.7,0,3v0c0-1.7,1.3-3,3-3h3C6,0,6,6,6,6z"/></g>
<g transform="translate(300,204) scale(2.06)"><path d="M6,6H0V0l3,0c1.7,0,3,1.3,3,3V6z"/></g>
<g transform="translate(360,204) scale(2.06)"><path d="M6,6H3C1.3,6,0,4.7,0,3v0c0-1.7,1.3-3,3-3h3C6,0,6,6,6,6z"/></g>
<g transform="translate(372,204) scale(2.06)"><rect width="6" height="6"/></g>
<g transform="translate(384,204) scale(2.06)"><rect width="6" height="6"/></g>
<g transform="translate(396,204) scale(2.06)"><rect width="6" height="6"/></g>
<g transform="translate(408,204) scale(2.06)"><rect width="6" height="6"/></g>
<g transform="translate(420,204) scale(2.06)"><rect width="6" height="6"/></g>
<g transform="translate(432,204) scale(2.06)"><rect width="6" height="6"/></g>
<g transform="translate(444,204) scale(2.06)"><rect width="6" height="6"/></g>
<g transform="translate(468,204) scale(2.06)"><path d="M6,6H0V3c0-1.7,1.3-3,3-3h0c1.7,0,3,1.3,3,3V6z"/></g>
<g transform="translate(504,204) scale(2.06)"><path d="M6,6H3C1.3,6,0,4.7,0,3V0l6,0V6z"/></g>
<g transform="translate(516,204) scale(2.06)"><rect width="6" height="6"/></g>
<g transform="translate(528,204) scale(2.06)"><path d="M3,6H0V0l3,0c1.7,0,3,1.3,3,3v0C6,4.7,4.7,6,3,6z"/></g>
<g transform="translate(552,204) scale(2.06)"><circle cx="3" cy="3" r="3"/></g>
<g transform="translate(36,216) scale(2.06)"><path d="M6,6H0V3c0-1.7,1.3-3,3-3l3,0V6z"/></g>
<g transform="translate(48,216) scale(2.06)"><rect width="6" height="6"/></g>
<g transform="translate(60,216) scale(2.06)"><path d="M3,6H0V0l6,0v3C6,4.7,4.7,6,3,6z"/></g>
<g transform="translate(84,216) scale(2.06)"><rect width="6" height="6"/></g>
<g transform="translate(96,216) scale(2.06)"><path d="M3,6H0V0l3,0c1.7,0,3,1.3,3,3v0C6,4.7,4.7,6,3,6z"/></g>
<g transform="translate(120,216) scale(2.06)"><path d="M6,6H0V3c0-1.7,1.3-3,3-3l3,0V6z"/></g>
<g transform="translate(132,216) scale(2.06)"><rect width="6" height="6"/></g>
<g transform="translate(168,216) scale(2.06)"><path d="M6,6H3C1.3,6,0,4.7,0,3v0c0-1.7,1.3-3,3-3h3C6,0,6,6,6,6z"/></g>
<g transform="translate(180,216) scale(2.06)"><path d="M3,6H0V0l3,0c1.7,0,3,1.3,3,3v0C6,4.7,4.7,6,3,6z"/></g>
<g transform="translate(216,216) scale(2.06)"><circle cx="3" cy="3" r="3"/></g>
<g transform="translate(240,216) scale(2.06)"><rect width="6" height="6"/></g>
<g transform="translate(252,216) scale(2.06)"><rect width="6" height="6"/></g>
<g transform="translate(264,216) scale(2.06)"><rect width="6" height="6"/></g>
<g transform="translate(276,216) scale(2.06)"><path d="M6,6H0V0l3,0c1.7,0,3,1.3,3,3V6z"/></g>
<g transform="translate(300,216) scale(2.06)"><rect width="6" height="6"/></g>
<g transform="translate(384,216) scale(2.06)"><rect width="6" height="6"/></g>
<g transform="translate(396,216) scale(2.06)"><rect width="6" height="6"/></g>
<g transform="translate(420,216) scale(2.06)"><rect width="6" height="6"/></g>
<g transform="translate(432,216) scale(2.06)"><rect width="6" height="6"/></g>
<g transform="translate(444,216) scale(2.06)"><path d="M3,6H0V0l6,0v3C6,4.7,4.7,6,3,6z"/></g>
<g transform="translate(468,216) scale(2.06)"><rect width="6" height="6"/></g>
<g transform="translate(480,216) scale(2.06)"><path d="M3,6H0V0l3,0c1.7,0,3,1.3,3,3v0C6,4.7,4.7,6,3,6z"/></g>
<g transform="translate(516,216) scale(2.06)"><path d="M3,6L3,6C1.3,6,0,4.7,0,3V0h6v3C6,4.7,4.7,6,3,6z"/></g>
<g transform="translate(24,228) scale(2.06)"><path d="M6,6H3C1.3,6,0,4.7,0,3v0c0-1.7,1.3-3,3-3h3C6,0,6,6,6,6z"/></g>
<g transform="translate(36,228) scale(2.06)"><rect width="6" height="6"/></g>
<g transform="translate(72,228) scale(2.06)"><path d="M6,6H0V3c0-1.7,1.3-3,3-3l3,0V6z"/></g>
<g transform="translate(84,228) scale(2.06)"><rect width="6" height="6"/></g>
<g transform="translate(120,228) scale(2.06)"><rect width="6" height="6"/></g>
<g transform="translate(132,228) scale(2.06)"><path d="M3,6H0V0l6,0v3C6,4.7,4.7,6,3,6z"/></g>
<g transform="translate(192,228) scale(2.06)"><path d="M6,6H0V3c0-1.7,1.3-3,3-3l3,0V6z"/></g>
<g transform="translate(204,228) scale(2.06)"><path d="M6,6H0V0l3,0c1.7,0,3,1.3,3,3V6z"/></g>
<g transform="translate(228,228) scale(2.06)"><path d="M6,6H3C1.3,6,0,4.7,0,3v0c0-1.7,1.3-3,3-3h3C6,0,6,6,6,6z"/></g>
<g transform="translate(240,228) scale(2.06)"><rect width="6" height="6"/></g>
<g transform="translate(276,228) scale(2.06)"><rect width="6" height="6"/></g>
<g transform="translate(288,228) scale(2.06)"><rect width="6" height="6"/></g>
<g transform="translate(300,228) scale(2.06)"><path d="M3,6H0V0l6,0v3C6,4.7,4.7,6,3,6z"/></g>
<g transform="translate(324,228) scale(2.06)"><circle cx="3" cy="3" r="3"/></g>
<g transform="translate(348,228) scale(2.06)"><path d="M6,6H0V3c0-1.7,1.3-3,3-3h0c1.7,0,3,1.3,3,3V6z"/></g>
<g transform="translate(372,228) scale(2.06)"><path d="M6,6H3C1.3,6,0,4.7,0,3v0c0-1.7,1.3-3,3-3h3C6,0,6,6,6,6z"/></g>
<g transform="translate(384,228) scale(2.06)"><rect width="6" height="6"/></g>
<g transform="translate(396,228) scale(2.06)"><path d="M3,6H0V0l6,0v3C6,4.7,4.7,6,3,6z"/></g>
<g transform="translate(420,228) scale(2.06)"><rect width="6" height="6"/></g>
<g transform="translate(456,228) scale(2.06)"><path d="M6,6H3C1.3,6,0,4.7,0,3v0c0-1.7,1.3-3,3-3h3C6,0,6,6,6,6z"/></g>
<g transform="translate(468,228) scale(2.06)"><path d="M3,6H0V0l6,0v3C6,4.7,4.7,6,3,6z"/></g>
<g transform="translate(528,228) scale(2.06)"><circle cx="3" cy="3" r="3"/></g>
<g transform="translate(552,228) scale(2.06)"><circle cx="3" cy="3" r="3"/></g>
<g transform="translate(36,240) scale(2.06)"><rect width="6" height="6"/></g>
<g transform="translate(72,240) scale(2.06)"><rect width="6" height="6"/></g>
<g transform="translate(84,240) scale(2.06)"><rect width="6" height="6"/></g>
<g transform="translate(96,240) scale(2.06)"><rect width="6" height="6"/></g>
<g transform="translate(108,240) scale(2.06)"><rect width="6" height="6"/></g>
<g transform="translate(120,240) scale(2.06)"><rect width="6" height="6"/></g>
<g transform="translate(156,240) scale(2.06)"><circle cx="3" cy="3" r="3"/></g>
<g transform="translate(192,240) scale(2.06)"><rect width="6" height="6"/></g>
<g transform="translate(204,240) scale(2.06)"><rect width="6" height="6"/></g>
<g transform="translate(240,240) scale(2.06)"><rect width="6" height="6"/></g>
<g transform="translate(252,240) scale(2.06)"><path d="M3,6H0V0l3,0c1.7,0,3,1.3,3,3v0C6,4.7,4.7,6,3,6z"/></g>
<g transform="translate(276,240) scale(2.06)"><rect width="6" height="6"/></g>
<g transform="translate(336,240) scale(2.06)"><path d="M6,6H3C1.3,6,0,4.7,0,3v0c0-1.7,1.3-3,3-3h3C6,0,6,6,6,6z"/></g>
<g transform="translate(348,240) scale(2.06)"><rect width="6" height="6"/></g>
<g transform="translate(360,240) scale(2.06)"><path d="M3,6H0V0l3,0c1.7,0,3,1.3,3,3v0C6,4.7,4.7,6,3,6z"/></g>
<g transform="translate(384,240) scale(2.06)"><rect width="6" height="6"/></g>
<g transform="translate(408,240) scale(2.06)"><path d="M6,6H0V3c0-1.7,1.3-3,3-3l3,0V6z"/></g>
<g transform="translate(420,240) scale(2.06)"><rect width="6" height="6"/></g>
<g transform="translate(432,240) scale(2.06)"><rect width="6" height="6"/></g>
<g transform="translate(444,240) scale(2.06)"><path d="M3,6H0V0l3,0c1.7,0,3,1.3,3,3v0C6,4.7,4.7,6,3,6z"/></g>
<g transform="translate(480,240) scale(2.06)"><circle cx="3" cy="3" r="3"/></g>
<g transform="translate(540,240) scale(2.06)"><circle cx="3" cy="3" r="3"/></g>
<g transform="translate(24,252) scale(2.06)"><path d="M6,6H3C1.3,6,0,4.7,0,3v0c0-1.7,1.3-3,3-3h3C6,0,6,6,6,6z"/></g>
<g transform="translate(36,252) scale(2.06)"><rect width="6" height="6"/></g>
<g transform="translate(48,252) scale(2.06)"><path d="M3,6H0V0l3,0c1.7,0,3,1.3,3,3v0C6,4.7,4.7,6,3,6z"/></g>
<g transform="translate(72,252) scale(2.06)"><rect width="6" height="6"/></g>
<g transform="translate(108,252) scale(2.06)"><rect width="6" height="6"/></g>
<g transform="translate(120,252) scale(2.06)"><rect width="6" height="6"/></g>
<g transform="translate(144,252) scale(2.06)"><path d="M6,6H0V3c0-1.7,1.3-3,3-3h0c1.7,0,3,1.3,3,3V6z"/></g>
<g transform="translate(168,252) scale(2.06)"><path d="M6,6H3C1.3,6,0,4.7,0,3v0c0-1.7,1.3-3,3-3h3C6,0,6,6,6,6z"/></g>
<g transform="translate(180,252) scale(2.06)"><rect width="6" height="6"/></g>
<g transform="translate(192,252) scale(2.06)"><rect width="6" height="6"/></g>
<g transform="translate(204,252) scale(2.06)"><path d="M3,6H0V0l6,0v3C6,4.7,4.7,6,3,6z"/></g>
<g transform="translate(240,252) scale(2.06)"><path d="M3,6L3,6C1.3,6,0,4.7,0,3V0h6v3C6,4.7,4.7,6,3,6z"/></g>
<g transform="translate(264,252) scale(2.06)"><path d="M6,6H0V3c0-1.7,1.3-3,3-3l3,0V6z"/></g>
<g transform="translate(276,252) scale(2.06)"><rect width="6" height="6"/></g>
<g transform="translate(300,252) scale(2.06)"><path d="M6,6H0V3c0-1.7,1.3-3,3-3l3,0V6z"/></g>
<g transform="translate(312,252) scale(2.06)"><path d="M6,6H0V0l3,0c1.7,0,3,1.3,3,3V6z"/></g>
<g transform="translate(384,252) scale(2.06)"><rect width="6" height="6"/></g>
<g transform="translate(396,252) scale(2.06)"><rect width="6" height="6"/></g>
<g transform="translate(408,252) scale(2.06)"><path d="M3,6H0V0l6,0v3C6,4.7,4.7,6,3,6z"/></g>
<g transform="translate(432,252) scale(2.06)"><path d="M3,6L3,6C1.3,6,0,4.7,0,3V0h6v3C6,4.7,4.7,6,3,6z"/></g>
<g transform="translate(456,252) scale(2.06)"><path d="M6,6H0V3c0-1.7,1.3-3,3-3l3,0V6z"/></g>
<g transform="translate(468,252) scale(2.06)"><path d="M6,6H0V0l3,0c1.7,0,3,1.3,3,3V6z"/></g>
<g transform="translate(504,252) scale(2.06)"><path d="M6,6H0V3c0-1.7,1.3-3,3-3l3,0V6z"/></g>
<g transform="translate(516,252) scale(2.06)"><rect width="6" height="6"/></g>
<g transform="translate(528,252) scale(2.06)"><path d="M3,6H0V0l3,0c1.7,0,3,1.3,3,3v0C6,4.7,4.7,6,3,6z"/></g>
<g transform="translate(36,264) scale(2.06)"><path d="M3,6L3,6C1.3,6,0,4.7,0,3V0h6v3C6,4.7,4.7,6,3,6z"/></g>
<g transform="translate(60,264) scale(2.06)"><path d="M6,6H3C1.3,6,0,4.7,0,3v0c0-1.7,1.3-3,3-3h3C6,0,6,6,6,6z"/></g>
<g transform="translate(72,264) scale(2.06)"><rect width="6" height="6"/></g>
<g transform="translate(84,264) scale(2.06)"><rect width="6" height="6"/></g>
<g transform="translate(96,264) scale(2.06)"><rect width="6" height="6"/></g>
<g transform="translate(108,264) scale(2.06)"><rect width="6" height="6"/></g>
<g transform="translate(120,264) scale(2.06)"><rect width="6" height="6"/></g>
<g transform="translate(132,264) scale(2.06)"><rect width="6" height="6"/></g>
<g transform="translate(144,264) scale(2.06)"><rect width="6" height="6"/></g>
<g transform="translate(156,264) scale(2.06)"><path d="M3,6H0V0l3,0c1.7,0,3,1.3,3,3v0C6,4.7,4.7,6,3,6z"/></g>
<g transform="translate(216,264) scale(2.06)"><path d="M6,6H0V3c0-1.7,1.3-3,3-3l3,0V6z"/></g>
<g transform="translate(228,264) scale(2.06)"><path d="M3,6H0V0l3,0c1.7,0,3,1.3,3,3v0C6,4.7,4.7,6,3,6z"/></g>
<g transform="translate(252,264) scale(2.06)"><path d="M6,6H0V3c0-1.7,1.3-3,3-3l3,0V6z"/></g>
<g transform="translate(264,264) scale(2.06)"><rect width="6" height="6"/></g>
<g transform="translate(276,264) scale(2.06)"><rect width="6" height="6"/></g>
<g transform="translate(288,264) scale(2.06)"><rect width="6" height="6"/></g>
<g transform="translate(300,264) scale(2.06)"><rect width="6" height="6"/></g>
<g transform="translate(312,264) scale(2.06)"><rect width="6" height="6"/></g>
<g transform="translate(324,264) scale(2.06)"><path d="M3,6H0V0l3,0c1.7,0,3,1.3,3,3v0C6,4.7,4.7,6,3,6z"/></g>
<g transform="translate(348,264) scale(2.06)"><circle cx="3" cy="3" r="3"/></g>
<g transform="translate(372,264) scale(2.06)"><path d="M6,6H3C1.3,6,0,4.7,0,3v0c0-1.7,1.3-3,3-3h3C6,0,6,6,6,6z"/></g>
<g transform="translate(384,264) scale(2.06)"><rect width="6" height="6"/></g>
<g transform="translate(396,264) scale(2.06)"><path d="M3,6H0V0l6,0v3C6,4.7,4.7,6,3,6z"/></g>
<g transform="translate(456,264) scale(2.06)"><rect width="6" height="6"/></g>
<g transform="translate(468,264) scale(2.06)"><rect width="6" height="6"/></g>
<g transform="translate(480,264) scale(2.06)"><rect width="6" height="6"/></g>
<g transform="translate(492,264) scale(2.06)"><rect width="6" height="6"/></g>
<g transform="translate(504,264) scale(2.06)"><rect width="6" height="6"/></g>
<g transform="translate(516,264) scale(2.06)"><path d="M3,6H0V0l6,0v3C6,4.7,4.7,6,3,6z"/></g>
<g transform="translate(72,276) scale(2.06)"><rect width="6" height="6"/></g>
<g transform="translate(120,276) scale(2.06)"><rect width="6" height="6"/></g>
<g transform="translate(168,276) scale(2.06)"><path d="M6,6H0V3c0-1.7,1.3-3,3-3l3,0V6z"/></g>
<g transform="translate(180,276) scale(2.06)"><path d="M3,6H0V0l3,0c1.7,0,3,1.3,3,3v0C6,4.7,4.7,6,3,6z"/></g>
<g transform="translate(216,276) scale(2.06)"><rect width="6" height="6"/></g>
<g transform="translate(240,276) scale(2.06)"><path d="M6,6H3C1.3,6,0,4.7,0,3v0c0-1.7,1.3-3,3-3h3C6,0,6,6,6,6z"/></g>
<g transform="translate(252,276) scale(2.06)"><rect width="6" height="6"/></g>
<g transform="translate(264,276) scale(2.06)"><rect width="6" height="6"/></g>
<g transform="translate(312,276) scale(2.06)"><rect width="6" height="6"/></g>
<g transform="translate(384,276) scale(2.06)"><rect width="6" height="6"/></g>
<g transform="translate(444,276) scale(2.06)"><path d="M6,6H3C1.3,6,0,4.7,0,3v0c0-1.7,1.3-3,3-3h3C6,0,6,6,6,6z"/></g>
<g transform="translate(456,276) scale(2.06)"><rect width="6" height="6"/></g>
<g transform="translate(504,276) scale(2.06)"><rect width="6" height="6"/></g>
<g transform="translate(540,276) scale(2.06)"><path d="M6,6H0V3c0-1.7,1.3-3,3-3l3,0V6z"/></g>
<g transform="translate(552,276) scale(2.06)"><path d="M3,6H0V0l3,0c1.7,0,3,1.3,3,3v0C6,4.7,4.7,6,3,6z"/></g>
<g transform="translate(24,288) scale(2.06)"><path d="M6,6H0V3c0-1.7,1.3-3,3-3h0c1.7,0,3,1.3,3,3V6z"/></g>
<g transform="translate(60,288) scale(2.06)"><path d="M6,6H3C1.3,6,0,4.7,0,3v0c0-1.7,1.3-3,3-3h3C6,0,6,6,6,6z"/></g>
<g transform="translate(72,288) scale(2.06)"><rect width="6" height="6"/></g>
<g transform="translate(96,288) scale(2.06)"><circle cx="3" cy="3" r="3"/></g>
<g transform="translate(120,288) scale(2.06)"><rect width="6" height="6"/></g>
<g transform="translate(132,288) scale(2.06)"><rect width="6" height="6"/></g>
<g transform="translate(144,288) scale(2.06)"><rect width="6" height="6"/></g>
<g transform="translate(156,288) scale(2.06)"><rect width="6" height="6"/></g>
<g transform="translate(168,288) scale(2.06)"><path d="M3,6H0V0l6,0v3C6,4.7,4.7,6,3,6z"/></g>
<g transform="translate(204,288) scale(2.06)"><path d="M6,6H0V3c0-1.7,1.3-3,3-3l3,0V6z"/></g>
<g transform="translate(216,288) scale(2.06)"><path d="M3,6H0V0l6,0v3C6,4.7,4.7,6,3,6z"/></g>
<g transform="translate(252,288) scale(2.06)"><path d="M6,6H3C1.3,6,0,4.7,0,3V0l6,0V6z"/></g>
<g transform="translate(264,288) scale(2.06)"><rect width="6" height="6"/></g>
<g transform="translate(288,288) scale(2.06)"><circle cx="3" cy="3" r="3"/></g>
<g transform="translate(312,288) scale(2.06)"><rect width="6" height="6"/></g>
<g transform="translate(324,288) scale(2.06)"><path d="M3,6H0V0l3,0c1.7,0,3,1.3,3,3v0C6,4.7,4.7,6,3,6z"/></g>
<g transform="translate(348,288) scale(2.06)"><circle cx="3" cy="3" r="3"/></g>
<g transform="translate(372,288) scale(2.06)"><path d="M6,6H3C1.3,6,0,4.7,0,3v0c0-1.7,1.3-3,3-3h3C6,0,6,6,6,6z"/></g>
<g transform="translate(384,288) scale(2.06)"><rect width="6" height="6"/></g>
<g transform="translate(396,288) scale(2.06)"><path d="M3,6H0V0l3,0c1.7,0,3,1.3,3,3v0C6,4.7,4.7,6,3,6z"/></g>
<g transform="translate(420,288) scale(2.06)"><path d="M6,6H0V3c0-1.7,1.3-3,3-3l3,0V6z"/></g>
<g transform="translate(432,288) scale(2.06)"><path d="M3,6H0V0l3,0c1.7,0,3,1.3,3,3v0C6,4.7,4.7,6,3,6z"/></g>
<g transform="translate(456,288) scale(2.06)"><rect width="6" height="6"/></g>
<g transform="translate(480,288) scale(2.06)"><circle cx="3" cy="3" r="3"/></g>
<g transform="translate(504,288) scale(2.06)"><rect width="6" height="6"/></g>
<g transform="translate(528,288) scale(2.06)"><path d="M6,6H0V3c0-1.7,1.3-3,3-3l3,0V6z"/></g>
<g transform="translate(540,288) scale(2.06)"><rect width="6" height="6"/></g>
<g transform="translate(24,300) scale(2.06)"><path d="M3,6L3,6C1.3,6,0,4.7,0,3V0h6v3C6,4.7,4.7,6,3,6z"/></g>
<g transform="translate(72,300) scale(2.06)"><rect width="6" height="6"/></g>
<g transform="translate(120,300) scale(2.06)"><rect width="6" height="6"/></g>
<g transform="translate(192,300) scale(2.06)"><path d="M6,6H3C1.3,6,0,4.7,0,3v0c0-1.7,1.3-3,3-3h3C6,0,6,6,6,6z"/></g>
<g transform="translate(204,300) scale(2.06)"><path d="M3,6H0V0l6,0v3C6,4.7,4.7,6,3,6z"/></g>
<g transform="translate(228,300) scale(2.06)"><path d="M6,6H3C1.3,6,0,4.7,0,3v0c0-1.7,1.3-3,3-3h3C6,0,6,6,6,6z"/></g>
<g transform="translate(240,300) scale(2.06)"><path d="M3,6H0V0l3,0c1.7,0,3,1.3,3,3v0C6,4.7,4.7,6,3,6z"/></g>
<g transform="translate(264,300) scale(2.06)"><rect width="6" height="6"/></g>
<g transform="translate(312,300) scale(2.06)"><rect width="6" height="6"/></g>
<g transform="translate(336,300) scale(2.06)"><path d="M6,6H0V3c0-1.7,1.3-3,3-3h0c1.7,0,3,1.3,3,3V6z"/></g>
<g transform="translate(360,300) scale(2.06)"><circle cx="3" cy="3" r="3"/></g>
<g transform="translate(408,300) scale(2.06)"><path d="M6,6H3C1.3,6,0,4.7,0,3v0c0-1.7,1.3-3,3-3h3C6,0,6,6,6,6z"/></g>
<g transform="translate(420,300) scale(2.06)"><rect width="6" height="6"/></g>
<g transform="translate(456,300) scale(2.06)"><rect width="6" height="6"/></g>
<g transform="translate(504,300) scale(2.06)"><rect width="6" height="6"/></g>
<g transform="translate(516,300) scale(2.06)"><rect width="6" height="6"/></g>
<g transform="translate(528,300) scale(2.06)"><rect width="6" height="6"/></g>
<g transform="translate(540,300) scale(2.06)"><rect width="6" height="6"/></g>
<g transform="translate(36,312) scale(2.06)"><path d="M6,6H3C1.3,6,0,4.7,0,3v0c0-1.7,1.3-3,3-3h3C6,0,6,6,6,6z"/></g>
<g transform="translate(48,312) scale(2.06)"><rect width="6" height="6"/></g>
<g transform="translate(60,312) scale(2.06)"><rect width="6" height="6"/></g>
<g transform="translate(72,312) scale(2.06)"><rect width="6" height="6"/></g>
<g transform="translate(84,312) scale(2.06)"><rect width="6" height="6"/></g>
<g transform="translate(96,312) scale(2.06)"><rect width="6" height="6"/></g>
<g transform="translate(108,312) scale(2.06)"><rect width="6" height="6"/></g>
<g transform="translate(120,312) scale(2.06)"><path d="M3,6H0V0l6,0v3C6,4.7,4.7,6,3,6z"/></g>
<g transform="translate(168,312) scale(2.06)"><path d="M6,6H0V3c0-1.7,1.3-3,3-3l3,0V6z"/></g>
<g transform="translate(180,312) scale(2.06)"><path d="M6,6H0V0l3,0c1.7,0,3,1.3,3,3V6z"/></g>
<g transform="translate(252,312) scale(2.06)"><path d="M6,6H0V3c0-1.7,1.3-3,3-3l3,0V6z"/></g>
<g transform="translate(264,312) scale(2.06)"><rect width="6" height="6"/></g>
<g transform="translate(276,312) scale(2.06)"><rect width="6" height="6"/></g>
<g transform="translate(288,312) scale(2.06)"><rect width="6" height="6"/></g>
<g transform="translate(300,312) scale(2.06)"><rect width="6" height="6"/></g>
<g transform="translate(312,312) scale(2.06)"><path d="M3,6H0V0l6,0v3C6,4.7,4.7,6,3,6z"/></g>
<g transform="translate(336,312) scale(2.06)"><path d="M3,6L3,6C1.3,6,0,4.7,0,3V0h6v3C6,4.7,4.7,6,3,6z"/></g>
<g transform="translate(372,312) scale(2.06)"><path d="M6,6H0V3c0-1.7,1.3-3,3-3l3,0V6z"/></g>
<g transform="translate(384,312) scale(2.06)"><rect width="6" height="6"/></g>
<g transform="translate(396,312) scale(2.06)"><path d="M6,6H0V0l3,0c1.7,0,3,1.3,3,3V6z"/></g>
<g transform="translate(420,312) scale(2.06)"><path d="M3,6L3,6C1.3,6,0,4.7,0,3V0h6v3C6,4.7,4.7,6,3,6z"/></g>
<g transform="translate(456,312) scale(2.06)"><path d="M6,6H3C1.3,6,0,4.7,0,3V0l6,0V6z"/></g>
<g transform="translate(468,312) scale(2.06)"><rect width="6" height="6"/></g>
<g transform="translate(480,312) scale(2.06)"><rect width="6" height="6"/></g>
<g transform="translate(492,312) scale(2.06)"><rect width="6" height="6"/></g>
<g transform="translate(504,312) scale(2.06)"><rect width="6" height="6"/></g>
<g transform="translate(516,312) scale(2.06)"><rect width="6" height="6"/></g>
<g transform="translate(540,312) scale(2.06)"><rect width="6" height="6"/></g>
<g transform="translate(48,324) scale(2.06)"><rect width="6" height="6"/></g>
<g transform="translate(84,324) scale(2.06)"><path d="M3,6L3,6C1.3,6,0,4.7,0,3V0h6v3C6,4.7,4.7,6,3,6z"/></g>
<g transform="translate(108,324) scale(2.06)"><path d="M3,6L3,6C1.3,6,0,4.7,0,3V0h6v3C6,4.7,4.7,6,3,6z"/></g>
<g transform="translate(132,324) scale(2.06)"><path d="M6,6H0V3c0-1.7,1.3-3,3-3l3,0V6z"/></g>
<g transform="translate(144,324) scale(2.06)"><path d="M3,6H0V0l3,0c1.7,0,3,1.3,3,3v0C6,4.7,4.7,6,3,6z"/></g>
<g transform="translate(168,324) scale(2.06)"><rect width="6" height="6"/></g>
<g transform="translate(180,324) scale(2.06)"><path d="M3,6H0V0l6,0v3C6,4.7,4.7,6,3,6z"/></g>
<g transform="translate(204,324) scale(2.06)"><path d="M6,6H3C1.3,6,0,4.7,0,3v0c0-1.7,1.3-3,3-3h3C6,0,6,6,6,6z"/></g>
<g transform="translate(216,324) scale(2.06)"><path d="M6,6H0V0l3,0c1.7,0,3,1.3,3,3V6z"/></g>
<g transform="translate(252,324) scale(2.06)"><rect width="6" height="6"/></g>
<g transform="translate(264,324) scale(2.06)"><rect width="6" height="6"/></g>
<g transform="translate(276,324) scale(2.06)"><path d="M3,6H0V0l6,0v3C6,4.7,4.7,6,3,6z"/></g>
<g transform="translate(300,324) scale(2.06)"><path d="M3,6L3,6C1.3,6,0,4.7,0,3V0h6v3C6,4.7,4.7,6,3,6z"/></g>
<g transform="translate(372,324) scale(2.06)"><rect width="6" height="6"/></g>
<g transform="translate(384,324) scale(2.06)"><rect width="6" height="6"/></g>
<g transform="translate(396,324) scale(2.06)"><rect width="6" height="6"/></g>
<g transform="translate(408,324) scale(2.06)"><path d="M6,6H0V0l3,0c1.7,0,3,1.3,3,3V6z"/></g>
<g transform="translate(444,324) scale(2.06)"><path d="M6,6H0V3c0-1.7,1.3-3,3-3h0c1.7,0,3,1.3,3,3V6z"/></g>
<g transform="translate(516,324) scale(2.06)"><path d="M3,6L3,6C1.3,6,0,4.7,0,3V0h6v3C6,4.7,4.7,6,3,6z"/></g>
<g transform="translate(540,324) scale(2.06)"><rect width="6" height="6"/></g>
<g transform="translate(552,324) scale(2.06)"><path d="M3,6H0V0l3,0c1.7,0,3,1.3,3,3v0C6,4.7,4.7,6,3,6z"/></g>
<g transform="translate(36,336) scale(2.06)"><path d="M6,6H3C1.3,6,0,4.7,0,3v0c0-1.7,1.3-3,3-3h3C6,0,6,6,6,6z"/></g>
<g transform="translate(48,336) scale(2.06)"><rect width="6" height="6"/></g>
<g transform="translate(60,336) scale(2.06)"><rect width="6" height="6"/></g>
<g transform="translate(72,336) scale(2.06)"><path d="M3,6H0V0l3,0c1.7,0,3,1.3,3,3v0C6,4.7,4.7,6,3,6z"/></g>
<g transform="translate(96,336) scale(2.06)"><circle cx="3" cy="3" r="3"/></g>
<g transform="translate(120,336) scale(2.06)"><path d="M6,6H0V3c0-1.7,1.3-3,3-3l3,0V6z"/></g>
<g transform="translate(132,336) scale(2.06)"><rect width="6" height="6"/></g>
<g transform="translate(168,336) scale(2.06)"><rect width="6" height="6"/></g>
<g transform="translate(216,336) scale(2.06)"><rect width="6" height="6"/></g>
<g transform="translate(252,336) scale(2.06)"><rect width="6" height="6"/></g>
<g transform="translate(264,336) scale(2.06)"><rect width="6" height="6"/></g>
<g transform="translate(288,336) scale(2.06)"><path d="M6,6H0V3c0-1.7,1.3-3,3-3h0c1.7,0,3,1.3,3,3V6z"/></g>
<g transform="translate(312,336) scale(2.06)"><path d="M6,6H3C1.3,6,0,4.7,0,3v0c0-1.7,1.3-3,3-3h3C6,0,6,6,6,6z"/></g>
<g transform="translate(324,336) scale(2.06)"><path d="M6,6H0V0l3,0c1.7,0,3,1.3,3,3V6z"/></g>
<g transform="translate(348,336) scale(2.06)"><path d="M6,6H0V3c0-1.7,1.3-3,3-3l3,0V6z"/></g>
<g transform="translate(360,336) scale(2.06)"><rect width="6" height="6"/></g>
<g transform="translate(372,336) scale(2.06)"><rect width="6" height="6"/></g>
<g transform="translate(396,336) scale(2.06)"><path d="M6,6H3C1.3,6,0,4.7,0,3V0l6,0V6z"/></g>
<g transform="translate(408,336) scale(2.06)"><path d="M3,6H0V0l6,0v3C6,4.7,4.7,6,3,6z"/></g>
<g transform="translate(432,336) scale(2.06)"><path d="M6,6H0V3c0-1.7,1.3-3,3-3l3,0V6z"/></g>
<g transform="translate(444,336) scale(2.06)"><rect width="6" height="6"/></g>
<g transform="translate(456,336) scale(2.06)"><rect width="6" height="6"/></g>
<g transform="translate(468,336) scale(2.06)"><path d="M3,6H0V0l3,0c1.7,0,3,1.3,3,3v0C6,4.7,4.7,6,3,6z"/></g>
<g transform="translate(540,336) scale(2.06)"><rect width="6" height="6"/></g>
<g transform="translate(84,348) scale(2.06)"><path d="M6,6H0V3c0-1.7,1.3-3,3-3h0c1.7,0,3,1.3,3,3V6z"/></g>
<g transform="translate(120,348) scale(2.06)"><path d="M6,6H3C1.3,6,0,4.7,0,3V0l6,0V6z"/></g>
<g transform="translate(132,348) scale(2.06)"><rect width="6" height="6"/></g>
<g transform="translate(168,348) scale(2.06)"><rect width="6" height="6"/></g>
<g transform="translate(192,348) scale(2.06)"><path d="M6,6H3C1.3,6,0,4.7,0,3v0c0-1.7,1.3-3,3-3h3C6,0,6,6,6,6z"/></g>
<g transform="translate(204,348) scale(2.06)"><rect width="6" height="6"/></g>
<g transform="translate(216,348) scale(2.06)"><rect width="6" height="6"/></g>
<g transform="translate(240,348) scale(2.06)"><path d="M6,6H3C1.3,6,0,4.7,0,3v0c0-1.7,1.3-3,3-3h3C6,0,6,6,6,6z"/></g>
<g transform="translate(252,348) scale(2.06)"><rect width="6" height="6"/></g>
<g transform="translate(264,348) scale(2.06)"><path d="M3,6H0V0l6,0v3C6,4.7,4.7,6,3,6z"/></g>
<g transform="translate(288,348) scale(2.06)"><path d="M6,6H3C1.3,6,0,4.7,0,3V0l6,0V6z"/></g>
<g transform="translate(300,348) scale(2.06)"><path d="M3,6H0V0l3,0c1.7,0,3,1.3,3,3v0C6,4.7,4.7,6,3,6z"/></g>
<g transform="translate(324,348) scale(2.06)"><path d="M6,6H3C1.3,6,0,4.7,0,3V0l6,0V6z"/></g>
<g transform="translate(336,348) scale(2.06)"><rect width="6" height="6"/></g>
<g transform="translate(348,348) scale(2.06)"><rect width="6" height="6"/></g>
<g transform="translate(360,348) scale(2.06)"><rect width="6" height="6"/></g>
<g transform="translate(372,348) scale(2.06)"><rect width="6" height="6"/></g>
<g transform="translate(384,348) scale(2.06)"><path d="M6,6H0V0l3,0c1.7,0,3,1.3,3,3V6z"/></g>
<g transform="translate(432,348) scale(2.06)"><rect width="6" height="6"/></g>
<g transform="translate(480,348) scale(2.06)"><path d="M6,6H3C1.3,6,0,4.7,0,3v0c0-1.7,1.3-3,3-3h3C6,0,6,6,6,6z"/></g>
<g transform="translate(492,348) scale(2.06)"><path d="M6,6H0V0l3,0c1.7,0,3,1.3,3,3V6z"/></g>
<g transform="translate(516,348) scale(2.06)"><path d="M6,6H3C1.3,6,0,4.7,0,3v0c0-1.7,1.3-3,3-3h3C6,0,6,6,6,6z"/></g>
<g transform="translate(528,348) scale(2.06)"><rect width="6" height="6"/></g>
<g transform="translate(540,348) scale(2.06)"><path d="M3,6H0V0l6,0v3C6,4.7,4.7,6,3,6z"/></g>
<g transform="translate(36,360) scale(2.06)"><path d="M6,6H0V3c0-1.7,1.3-3,3-3h0c1.7,0,3,1.3,3,3V6z"/></g>
<g transform="translate(72,360) scale(2.06)"><path d="M6,6H0V3c0-1.7,1.3-3,3-3l3,0V6z"/></g>
<g transform="translate(84,360) scale(2.06)"><rect width="6" height="6"/></g>
<g transform="translate(96,360) scale(2.06)"><path d="M3,6H0V0l3,0c1.7,0,3,1.3,3,3v0C6,4.7,4.7,6,3,6z"/></g>
<g transform="translate(132,360) scale(2.06)"><path d="M6,6H3C1.3,6,0,4.7,0,3V0l6,0V6z"/></g>
<g transform="translate(144,360) scale(2.06)"><path d="M3,6H0V0l3,0c1.7,0,3,1.3,3,3v0C6,4.7,4.7,6,3,6z"/></g>
<g transform="translate(168,360) scale(2.06)"><rect width="6" height="6"/></g>
<g transform="translate(180,360) scale(2.06)"><path d="M6,6H0V0l3,0c1.7,0,3,1.3,3,3V6z"/></g>
<g transform="translate(204,360) scale(2.06)"><path d="M6,6H3C1.3,6,0,4.7,0,3V0l6,0V6z"/></g>
<g transform="translate(216,360) scale(2.06)"><rect width="6" height="6"/></g>
<g transform="translate(228,360) scale(2.06)"><path d="M6,6H0V0l3,0c1.7,0,3,1.3,3,3V6z"/></g>
<g transform="translate(252,360) scale(2.06)"><path d="M3,6L3,6C1.3,6,0,4.7,0,3V0h6v3C6,4.7,4.7,6,3,6z"/></g>
<g transform="translate(336,360) scale(2.06)"><path d="M6,6H3C1.3,6,0,4.7,0,3V0l6,0V6z"/></g>
<g transform="translate(348,360) scale(2.06)"><rect width="6" height="6"/></g>
<g transform="translate(384,360) scale(2.06)"><rect width="6" height="6"/></g>
<g transform="translate(420,360) scale(2.06)"><path d="M6,6H0V3c0-1.7,1.3-3,3-3l3,0V6z"/></g>
<g transform="translate(432,360) scale(2.06)"><path d="M3,6H0V0l6,0v3C6,4.7,4.7,6,3,6z"/></g>
<g transform="translate(492,360) scale(2.06)"><path d="M6,6H3C1.3,6,0,4.7,0,3V0l6,0V6z"/></g>
<g transform="translate(504,360) scale(2.06)"><path d="M3,6H0V0l3,0c1.7,0,3,1.3,3,3v0C6,4.7,4.7,6,3,6z"/></g>
<g transform="translate(36,372) scale(2.06)"><rect width="6" height="6"/></g>
<g transform="translate(48,372) scale(2.06)"><rect width="6" height="6"/></g>
<g transform="translate(60,372) scale(2.06)"><rect width="6" height="6"/></g>
<g transform="translate(72,372) scale(2.06)"><path d="M3,6H0V0l6,0v3C6,4.7,4.7,6,3,6z"/></g>
<g transform="translate(108,372) scale(2.06)"><path d="M6,6H3C1.3,6,0,4.7,0,3v0c0-1.7,1.3-3,3-3h3C6,0,6,6,6,6z"/></g>
<g transform="translate(120,372) scale(2.06)"><path d="M6,6H0V0l3,0c1.7,0,3,1.3,3,3V6z"/></g>
<g transform="translate(156,372) scale(2.06)"><path d="M6,6H0V3c0-1.7,1.3-3,3-3l3,0V6z"/></g>
<g transform="translate(168,372) scale(2.06)"><rect width="6" height="6"/></g>
<g transform="translate(180,372) scale(2.06)"><path d="M3,6H0V0l6,0v3C6,4.7,4.7,6,3,6z"/></g>
<g transform="translate(228,372) scale(2.06)"><rect width="6" height="6"/></g>
<g transform="translate(288,372) scale(2.06)"><circle cx="3" cy="3" r="3"/></g>
<g transform="translate(348,372) scale(2.06)"><rect width="6" height="6"/></g>
<g transform="translate(360,372) scale(2.06)"><rect width="6" height="6"/></g>
<g transform="translate(372,372) scale(2.06)"><rect width="6" height="6"/></g>
<g transform="translate(384,372) scale(2.06)"><rect width="6" height="6"/></g>
<g transform="translate(396,372) scale(2.06)"><rect width="6" height="6"/></g>
<g transform="translate(408,372) scale(2.06)"><rect width="6" height="6"/></g>
<g transform="translate(420,372) scale(2.06)"><rect width="6" height="6"/></g>
<g transform="translate(444,372) scale(2.06)"><path d="M6,6H0V3c0-1.7,1.3-3,3-3h0c1.7,0,3,1.3,3,3V6z"/></g>
<g transform="translate(480,372) scale(2.06)"><circle cx="3" cy="3" r="3"/></g>
<g transform="translate(516,372) scale(2.06)"><path d="M6,6H0V3c0-1.7,1.3-3,3-3l3,0V6z"/></g>
<g transform="translate(528,372) scale(2.06)"><rect width="6" height="6"/></g>
<g transform="translate(540,372) scale(2.06)"><rect width="6" height="6"/></g>
<g transform="translate(552,372) scale(2.06)"><path d="M3,6H0V0l3,0c1.7,0,3,1.3,3,3v0C6,4.7,4.7,6,3,6z"/></g>
<g transform="translate(36,384) scale(2.06)"><rect width="6" height="6"/></g>
<g transform="translate(48,384) scale(2.06)"><rect width="6" height="6"/></g>
<g transform="translate(60,384) scale(2.06)"><path d="M3,6H0V0l6,0v3C6,4.7,4.7,6,3,6z"/></g>
<g transform="translate(84,384) scale(2.06)"><path d="M6,6H0V3c0-1.7,1.3-3,3-3l3,0V6z"/></g>
<g transform="translate(96,384) scale(2.06)"><path d="M3,6H0V0l3,0c1.7,0,3,1.3,3,3v0C6,4.7,4.7,6,3,6z"/></g>
<g transform="translate(120,384) scale(2.06)"><rect width="6" height="6"/></g>
<g transform="translate(132,384) scale(2.06)"><rect width="6" height="6"/></g>
<g transform="translate(144,384) scale(2.06)"><rect width="6" height="6"/></g>
<g transform="translate(156,384) scale(2.06)"><rect width="6" height="6"/></g>
<g transform="translate(228,384) scale(2.06)"><path d="M3,6L3,6C1.3,6,0,4.7,0,3V0h6v3C6,4.7,4.7,6,3,6z"/></g>
<g transform="translate(264,384) scale(2.06)"><path d="M6,6H0V3c0-1.7,1.3-3,3-3h0c1.7,0,3,1.3,3,3V6z"/></g>
<g transform="translate(312,384) scale(2.06)"><circle cx="3" cy="3" r="3"/></g>
<g transform="translate(336,384) scale(2.06)"><path d="M6,6H0V3c0-1.7,1.3-3,3-3l3,0V6z"/></g>
<g transform="translate(348,384) scale(2.06)"><path d="M3,6H0V0l6,0v3C6,4.7,4.7,6,3,6z"/></g>
<g transform="translate(420,384) scale(2.06)"><rect width="6" height="6"/></g>
<g transform="translate(432,384) scale(2.06)"><rect width="6" height="6"/></g>
<g transform="translate(444,384) scale(2.06)"><rect width="6" height="6"/></g>
<g transform="translate(456,384) scale(2.06)"><path d="M3,6H0V0l3,0c1.7,0,3,1.3,3,3v0C6,4.7,4.7,6,3,6z"/></g>
<g transform="translate(516,384) scale(2.06)"><rect width="6" height="6"/></g>
<g transform="translate(528,384) scale(2.06)"><rect width="6" height="6"/></g>
<g transform="translate(540,384) scale(2.06)"><rect width="6" height="6"/></g>
<g transform="translate(24,396) scale(2.06)"><path d="M6,6H0V3c0-1.7,1.3-3,3-3l3,0V6z"/></g>
<g transform="translate(36,396) scale(2.06)"><path d="M3,6H0V0l6,0v3C6,4.7,4.7,6,3,6z"/></g>
<g transform="translate(72,396) scale(2.06)"><path d="M6,6H3C1.3,6,0,4.7,0,3v0c0-1.7,1.3-3,3-3h3C6,0,6,6,6,6z"/></g>
<g transform="translate(84,396) scale(2.06)"><rect width="6" height="6"/></g>
<g transform="translate(108,396) scale(2.06)"><path d="M6,6H0V3c0-1.7,1.3-3,3-3l3,0V6z"/></g>
<g transform="translate(120,396) scale(2.06)"><rect width="6" height="6"/></g>
<g transform="translate(132,396) scale(2.06)"><rect width="6" height="6"/></g>
<g transform="translate(144,396) scale(2.06)"><rect width="6" height="6"/></g>
<g transform="translate(156,396) scale(2.06)"><rect width="6" height="6"/></g>
<g transform="translate(180,396) scale(2.06)"><path d="M6,6H3C1.3,6,0,4.7,0,3v0c0-1.7,1.3-3,3-3h3C6,0,6,6,6,6z"/></g>
<g transform="translate(192,396) scale(2.06)"><rect width="6" height="6"/></g>
<g transform="translate(204,396) scale(2.06)"><path d="M3,6H0V0l3,0c1.7,0,3,1.3,3,3v0C6,4.7,4.7,6,3,6z"/></g>
<g transform="translate(240,396) scale(2.06)"><path d="M6,6H0V3c0-1.7,1.3-3,3-3h0c1.7,0,3,1.3,3,3V6z"/></g>
<g transform="translate(264,396) scale(2.06)"><path d="M6,6H3C1.3,6,0,4.7,0,3V0l6,0V6z"/></g>
<g transform="translate(276,396) scale(2.06)"><rect width="6" height="6"/></g>
<g transform="translate(288,396) scale(2.06)"><path d="M6,6H0V0l3,0c1.7,0,3,1.3,3,3V6z"/></g>
<g transform="translate(324,396) scale(2.06)"><path d="M6,6H0V3c0-1.7,1.3-3,3-3l3,0V6z"/></g>
<g transform="translate(336,396) scale(2.06)"><rect width="6" height="6"/></g>
<g transform="translate(372,396) scale(2.06)"><path d="M6,6H0V3c0-1.7,1.3-3,3-3h0c1.7,0,3,1.3,3,3V6z"/></g>
<g transform="translate(408,396) scale(2.06)"><path d="M6,6H3C1.3,6,0,4.7,0,3v0c0-1.7,1.3-3,3-3h3C6,0,6,6,6,6z"/></g>
<g transform="translate(420,396) scale(2.06)"><rect width="6" height="6"/></g>
<g transform="translate(432,396) scale(2.06)"><rect width="6" height="6"/></g>
<g transform="translate(444,396) scale(2.06)"><path d="M3,6H0V0l6,0v3C6,4.7,4.7,6,3,6z"/></g>
<g transform="translate(480,396) scale(2.06)"><path d="M6,6H0V3c0-1.7,1.3-3,3-3h0c1.7,0,3,1.3,3,3V6z"/></g>
<g transform="translate(516,396) scale(2.06)"><path d="M6,6H3C1.3,6,0,4.7,0,3V0l6,0V6z"/></g>
<g transform="translate(528,396) scale(2.06)"><rect width="6" height="6"/></g>
<g transform="translate(540,396) scale(2.06)"><rect width="6" height="6"/></g>
<g transform="translate(24,408) scale(2.06)"><rect width="6" height="6"/></g>
<g transform="translate(48,408) scale(2.06)"><path d="M6,6H0V3c0-1.7,1.3-3,3-3h0c1.7,0,3,1.3,3,3V6z"/></g>
<g transform="translate(84,408) scale(2.06)"><path d="M6,6H3C1.3,6,0,4.7,0,3V0l6,0V6z"/></g>
<g transform="translate(96,408) scale(2.06)"><rect width="6" height="6"/></g>
<g transform="translate(108,408) scale(2.06)"><rect width="6" height="6"/></g>
<g transform="translate(120,408) scale(2.06)"><rect width="6" height="6"/></g>
<g transform="translate(144,408) scale(2.06)"><rect width="6" height="6"/></g>
<g transform="translate(156,408) scale(2.06)"><rect width="6" height="6"/></g>
<g transform="translate(216,408) scale(2.06)"><circle cx="3" cy="3" r="3"/></g>
<g transform="translate(240,408) scale(2.06)"><rect width="6" height="6"/></g>
<g transform="translate(252,408) scale(2.06)"><path d="M3,6H0V0l3,0c1.7,0,3,1.3,3,3v0C6,4.7,4.7,6,3,6z"/></g>
<g transform="translate(276,408) scale(2.06)"><path d="M6,6H3C1.3,6,0,4.7,0,3V0l6,0V6z"/></g>
<g transform="translate(288,408) scale(2.06)"><path d="M3,6H0V0l6,0v3C6,4.7,4.7,6,3,6z"/></g>
<g transform="translate(324,408) scale(2.06)"><path d="M6,6H3C1.3,6,0,4.7,0,3V0l6,0V6z"/></g>
<g transform="translate(336,408) scale(2.06)"><rect width="6" height="6"/></g>
<g transform="translate(372,408) scale(2.06)"><path d="M6,6H3C1.3,6,0,4.7,0,3V0l6,0V6z"/></g>
<g transform="translate(384,408) scale(2.06)"><rect width="6" height="6"/></g>
<g transform="translate(396,408) scale(2.06)"><path d="M6,6H0V0l3,0c1.7,0,3,1.3,3,3V6z"/></g>
<g transform="translate(468,408) scale(2.06)"><path d="M6,6H0V3c0-1.7,1.3-3,3-3l3,0V6z"/></g>
<g transform="translate(480,408) scale(2.06)"><rect width="6" height="6"/></g>
<g transform="translate(492,408) scale(2.06)"><rect width="6" height="6"/></g>
<g transform="translate(504,408) scale(2.06)"><path d="M3,6H0V0l3,0c1.7,0,3,1.3,3,3v0C6,4.7,4.7,6,3,6z"/></g>
<g transform="translate(540,408) scale(2.06)"><rect width="6" height="6"/></g>
<g transform="translate(552,408) scale(2.06)"><path d="M6,6H0V0l3,0c1.7,0,3,1.3,3,3V6z"/></g>
<g transform="translate(24,420) scale(2.06)"><path d="M6,6H3C1.3,6,0,4.7,0,3V0l6,0V6z"/></g>
<g transform="translate(36,420) scale(2.06)"><rect width="6" height="6"/></g>
<g transform="translate(48,420) scale(2.06)"><path d="M3,6H0V0l6,0v3C6,4.7,4.7,6,3,6z"/></g>
<g transform="translate(72,420) scale(2.06)"><path d="M6,6H0V3c0-1.7,1.3-3,3-3h0c1.7,0,3,1.3,3,3V6z"/></g>
<g transform="translate(120,420) scale(2.06)"><path d="M6,6H3C1.3,6,0,4.7,0,3V0l6,0V6z"/></g>
<g transform="translate(132,420) scale(2.06)"><rect width="6" height="6"/></g>
<g transform="translate(144,420) scale(2.06)"><rect width="6" height="6"/></g>
<g transform="translate(156,420) scale(2.06)"><path d="M3,6H0V0l6,0v3C6,4.7,4.7,6,3,6z"/></g>
<g transform="translate(204,420) scale(2.06)"><circle cx="3" cy="3" r="3"/></g>
<g transform="translate(240,420) scale(2.06)"><rect width="6" height="6"/></g>
<g transform="translate(264,420) scale(2.06)"><path d="M6,6H0V3c0-1.7,1.3-3,3-3h0c1.7,0,3,1.3,3,3V6z"/></g>
<g transform="translate(300,420) scale(2.06)"><path d="M6,6H0V3c0-1.7,1.3-3,3-3h0c1.7,0,3,1.3,3,3V6z"/></g>
<g transform="translate(336,420) scale(2.06)"><path d="M3,6L3,6C1.3,6,0,4.7,0,3V0h6v3C6,4.7,4.7,6,3,6z"/></g>
<g transform="translate(384,420) scale(2.06)"><path d="M6,6H3C1.3,6,0,4.7,0,3V0l6,0V6z"/></g>
<g transform="translate(396,420) scale(2.06)"><rect width="6" height="6"/></g>
<g transform="translate(408,420) scale(2.06)"><path d="M3,6H0V0l3,0c1.7,0,3,1.3,3,3v0C6,4.7,4.7,6,3,6z"/></g>
<g transform="translate(456,420) scale(2.06)"><path d="M6,6H0V3c0-1.7,1.3-3,3-3l3,0V6z"/></g>
<g transform="translate(468,420) scale(2.06)"><rect width="6" height="6"/></g>
<g transform="translate(480,420) scale(2.06)"><path d="M3,6H0V0l6,0v3C6,4.7,4.7,6,3,6z"/></g>
<g transform="translate(516,420) scale(2.06)"><circle cx="3" cy="3" r="3"/></g>
<g transform="translate(540,420) scale(2.06)"><rect width="6" height="6"/></g>
<g transform="translate(552,420) scale(2.06)"><path d="M3,6H0V0l6,0v3C6,4.7,4.7,6,3,6z"/></g>
<g transform="translate(72,432) scale(2.06)"><rect width="6" height="6"/></g>
<g transform="translate(96,432) scale(2.06)"><circle cx="3" cy="3" r="3"/></g>
<g transform="translate(180,432) scale(2.06)"><path d="M6,6H0V3c0-1.7,1.3-3,3-3h0c1.7,0,3,1.3,3,3V6z"/></g>
<g transform="translate(216,432) scale(2.06)"><path d="M6,6H3C1.3,6,0,4.7,0,3v0c0-1.7,1.3-3,3-3h3C6,0,6,6,6,6z"/></g>
<g transform="translate(228,432) scale(2.06)"><rect width="6" height="6"/></g>
<g transform="translate(240,432) scale(2.06)"><rect width="6" height="6"/></g>
<g transform="translate(252,432) scale(2.06)"><rect width="6" height="6"/></g>
<g transform="translate(264,432) scale(2.06)"><rect width="6" height="6"/></g>
<g transform="translate(276,432) scale(2.06)"><rect width="6" height="6"/></g>
<g transform="translate(288,432) scale(2.06)"><rect width="6" height="6"/></g>
<g transform="translate(300,432) scale(2.06)"><rect width="6" height="6"/></g>
<g transform="translate(312,432) scale(2.06)"><rect width="6" height="6"/></g>
<g transform="translate(324,432) scale(2.06)"><path d="M3,6H0V0l3,0c1.7,0,3,1.3,3,3v0C6,4.7,4.7,6,3,6z"/></g>
<g transform="translate(360,432) scale(2.06)"><path d="M6,6H0V3c0-1.7,1.3-3,3-3h0c1.7,0,3,1.3,3,3V6z"/></g>
<g transform="translate(396,432) scale(2.06)"><path d="M3,6L3,6C1.3,6,0,4.7,0,3V0h6v3C6,4.7,4.7,6,3,6z"/></g>
<g transform="translate(420,432) scale(2.06)"><path d="M6,6H0V3c0-1.7,1.3-3,3-3l3,0V6z"/></g>
<g transform="translate(432,432) scale(2.06)"><rect width="6" height="6"/></g>
<g transform="translate(444,432) scale(2.06)"><rect width="6" height="6"/></g>
<g transform="translate(456,432) scale(2.06)"><rect width="6" height="6"/></g>
<g transform="translate(468,432) scale(2.06)"><path d="M3,6H0V0l6,0v3C6,4.7,4.7,6,3,6z"/></g>
<g transform="translate(504,432) scale(2.06)"><circle cx="3" cy="3" r="3"/></g>
<g transform="translate(528,432) scale(2.06)"><path d="M6,6H0V3c0-1.7,1.3-3,3-3l3,0V6z"/></g>
<g transform="translate(540,432) scale(2.06)"><rect width="6" height="6"/></g>
<g transform="translate(36,444) scale(2.06)"><path d="M6,6H3C1.3,6,0,4.7,0,3v0c0-1.7,1.3-3,3-3h3C6,0,6,6,6,6z"/></g>
<g transform="translate(48,444) scale(2.06)"><rect width="6" height="6"/></g>
<g transform="translate(60,444) scale(2.06)"><rect width="6" height="6"/></g>
<g transform="translate(72,444) scale(2.06)"><rect width="6" height="6"/></g>
<g transform="translate(120,444) scale(2.06)"><path d="M6,6H3C1.3,6,0,4.7,0,3v0c0-1.7,1.3-3,3-3h3C6,0,6,6,6,6z"/></g>
<g transform="translate(132,444) scale(2.06)"><rect width="6" height="6"/></g>
<g transform="translate(144,444) scale(2.06)"><path d="M6,6H0V0l3,0c1.7,0,3,1.3,3,3V6z"/></g>
<g transform="translate(168,444) scale(2.06)"><path d="M6,6H0V3c0-1.7,1.3-3,3-3l3,0V6z"/></g>
<g transform="translate(180,444) scale(2.06)"><rect width="6" height="6"/></g>
<g transform="translate(204,444) scale(2.06)"><circle cx="3" cy="3" r="3"/></g>
<g transform="translate(228,444) scale(2.06)"><rect width="6" height="6"/></g>
<g transform="translate(240,444) scale(2.06)"><rect width="6" height="6"/></g>
<g transform="translate(252,444) scale(2.06)"><rect width="6" height="6"/></g>
<g transform="translate(264,444) scale(2.06)"><rect width="6" height="6"/></g>
<g transform="translate(288,444) scale(2.06)"><rect width="6" height="6"/></g>
<g transform="translate(312,444) scale(2.06)"><rect width="6" height="6"/></g>
<g transform="translate(360,444) scale(2.06)"><path d="M6,6H3C1.3,6,0,4.7,0,3V0l6,0V6z"/></g>
<g transform="translate(372,444) scale(2.06)"><path d="M6,6H0V0l3,0c1.7,0,3,1.3,3,3V6z"/></g>
<g transform="translate(408,444) scale(2.06)"><path d="M6,6H3C1.3,6,0,4.7,0,3v0c0-1.7,1.3-3,3-3h3C6,0,6,6,6,6z"/></g>
<g transform="translate(420,444) scale(2.06)"><rect width="6" height="6"/></g>
<g transform="translate(432,444) scale(2.06)"><rect width="6" height="6"/></g>
<g transform="translate(444,444) scale(2.06)"><rect width="6" height="6"/></g>
<g transform="translate(456,444) scale(2.06)"><rect width="6" height="6"/></g>
<g transform="translate(480,444) scale(2.06)"><path d="M6,6H0V3c0-1.7,1.3-3,3-3l3,0V6z"/></g>
<g transform="translate(492,444) scale(2.06)"><path d="M6,6H0V0l3,0c1.7,0,3,1.3,3,3V6z"/></g>
<g transform="translate(516,444) scale(2.06)"><path d="M6,6H3C1.3,6,0,4.7,0,3v0c0-1.7,1.3-3,3-3h3C6,0,6,6,6,6z"/></g>
<g transform="translate(528,444) scale(2.06)"><rect width="6" height="6"/></g>
<g transform="translate(540,444) scale(2.06)"><rect width="6" height="6"/></g>
<g transform="translate(552,444) scale(2.06)"><path d="M3,6H0V0l3,0c1.7,0,3,1.3,3,3v0C6,4.7,4.7,6,3,6z"/></g>
<g transform="translate(24,456) scale(2.06)"><circle cx="3" cy="3" r="3"/></g>
<g transform="translate(60,456) scale(2.06)"><path d="M6,6H3C1.3,6,0,4.7,0,3V0l6,0V6z"/></g>
<g transform="translate(72,456) scale(2.06)"><path d="M3,6H0V0l6,0v3C6,4.7,4.7,6,3,6z"/></g>
<g transform="translate(96,456) scale(2.06)"><path d="M6,6H3C1.3,6,0,4.7,0,3v0c0-1.7,1.3-3,3-3h3C6,0,6,6,6,6z"/></g>
<g transform="translate(108,456) scale(2.06)"><path d="M3,6H0V0l3,0c1.7,0,3,1.3,3,3v0C6,4.7,4.7,6,3,6z"/></g>
<g transform="translate(144,456) scale(2.06)"><path d="M3,6L3,6C1.3,6,0,4.7,0,3V0h6v3C6,4.7,4.7,6,3,6z"/></g>
<g transform="translate(168,456) scale(2.06)"><rect width="6" height="6"/></g>
<g transform="translate(180,456) scale(2.06)"><path d="M3,6H0V0l6,0v3C6,4.7,4.7,6,3,6z"/></g>
<g transform="translate(228,456) scale(2.06)"><path d="M6,6H3C1.3,6,0,4.7,0,3V0l6,0V6z"/></g>
<g transform="translate(240,456) scale(2.06)"><path d="M3,6H0V0l6,0v3C6,4.7,4.7,6,3,6z"/></g>
<g transform="translate(264,456) scale(2.06)"><rect width="6" height="6"/></g>
<g transform="translate(276,456) scale(2.06)"><rect width="6" height="6"/></g>
<g transform="translate(288,456) scale(2.06)"><rect width="6" height="6"/></g>
<g transform="translate(300,456) scale(2.06)"><rect width="6" height="6"/></g>
<g transform="translate(312,456) scale(2.06)"><rect width="6" height="6"/></g>
<g transform="translate(336,456) scale(2.06)"><path d="M6,6H0V3c0-1.7,1.3-3,3-3h0c1.7,0,3,1.3,3,3V6z"/></g>
<g transform="translate(372,456) scale(2.06)"><rect width="6" height="6"/></g>
<g transform="translate(396,456) scale(2.06)"><path d="M6,6H0V3c0-1.7,1.3-3,3-3h0c1.7,0,3,1.3,3,3V6z"/></g>
<g transform="translate(420,456) scale(2.06)"><path d="M6,6H3C1.3,6,0,4.7,0,3V0l6,0V6z"/></g>
<g transform="translate(432,456) scale(2.06)"><path d="M3,6H0V0l6,0v3C6,4.7,4.7,6,3,6z"/></g>
<g transform="translate(456,456) scale(2.06)"><rect width="6" height="6"/></g>
<g transform="translate(468,456) scale(2.06)"><rect width="6" height="6"/></g>
<g transform="translate(480,456) scale(2.06)"><rect width="6" height="6"/></g>
<g transform="translate(492,456) scale(2.06)"><rect width="6" height="6"/></g>
<g transform="translate(504,456) scale(2.06)"><path d="M6,6H0V0l3,0c1.7,0,3,1.3,3,3V6z"/></g>
<g transform="translate(120,468) scale(2.06)"><path d="M6,6H0V3c0-1.7,1.3-3,3-3h0c1.7,0,3,1.3,3,3V6z"/></g>
<g transform="translate(168,468) scale(2.06)"><path d="M3,6L3,6C1.3,6,0,4.7,0,3V0h6v3C6,4.7,4.7,6,3,6z"/></g>
<g transform="translate(192,468) scale(2.06)"><path d="M6,6H3C1.3,6,0,4.7,0,3v0c0-1.7,1.3-3,3-3h3C6,0,6,6,6,6z"/></g>
<g transform="translate(204,468) scale(2.06)"><rect width="6" height="6"/></g>
<g transform="translate(216,468) scale(2.06)"><path d="M6,6H0V0l3,0c1.7,0,3,1.3,3,3V6z"/></g>
<g transform="translate(264,468) scale(2.06)"><rect width="6" height="6"/></g>
<g transform="translate(312,468) scale(2.06)"><rect width="6" height="6"/></g>
<g transform="translate(336,468) scale(2.06)"><rect width="6" height="6"/></g>
<g transform="translate(372,468) scale(2.06)"><path d="M6,6H3C1.3,6,0,4.7,0,3V0l6,0V6z"/></g>
<g transform="translate(384,468) scale(2.06)"><rect width="6" height="6"/></g>
<g transform="translate(396,468) scale(2.06)"><rect width="6" height="6"/></g>
<g transform="translate(408,468) scale(2.06)"><path d="M6,6H0V0l3,0c1.7,0,3,1.3,3,3V6z"/></g>
<g transform="translate(444,468) scale(2.06)"><path d="M6,6H3C1.3,6,0,4.7,0,3v0c0-1.7,1.3-3,3-3h3C6,0,6,6,6,6z"/></g>
<g transform="translate(456,468) scale(2.06)"><rect width="6" height="6"/></g>
<g transform="translate(504,468) scale(2.06)"><rect width="6" height="6"/></g>
<g transform="translate(516,468) scale(2.06)"><rect width="6" height="6"/></g>
<g transform="translate(528,468) scale(2.06)"><path d="M6,6H0V0l3,0c1.7,0,3,1.3,3,3V6z"/></g>
<g transform="translate(552,468) scale(2.06)"><circle cx="3" cy="3" r="3"/></g>
<g transform="translate(120,480) scale(2.06)"><rect width="6" height="6"/></g>
<g transform="translate(132,480) scale(2.06)"><rect width="6" height="6"/></g>
<g transform="translate(144,480) scale(2.06)"><path d="M6,6H0V0l3,0c1.7,0,3,1.3,3,3V6z"/></g>
<g transform="translate(180,480) scale(2.06)"><path d="M6,6H0V3c0-1.7,1.3-3,3-3h0c1.7,0,3,1.3,3,3V6z"/></g>
<g transform="translate(204,480) scale(2.06)"><rect width="6" height="6"/></g>
<g transform="translate(216,480) scale(2.06)"><path d="M3,6H0V0l6,0v3C6,4.7,4.7,6,3,6z"/></g>
<g transform="translate(264,480) scale(2.06)"><rect width="6" height="6"/></g>
<g transform="translate(288,480) scale(2.06)"><circle cx="3" cy="3" r="3"/></g>
<g transform="translate(312,480) scale(2.06)"><rect width="6" height="6"/></g>
<g transform="translate(324,480) scale(2.06)"><rect width="6" height="6"/></g>
<g transform="translate(336,480) scale(2.06)"><rect width="6" height="6"/></g>
<g transform="translate(396,480) scale(2.06)"><path d="M6,6H3C1.3,6,0,4.7,0,3V0l6,0V6z"/></g>
<g transform="translate(408,480) scale(2.06)"><rect width="6" height="6"/></g>
<g transform="translate(432,480) scale(2.06)"><path d="M6,6H0V3c0-1.7,1.3-3,3-3h0c1.7,0,3,1.3,3,3V6z"/></g>
<g transform="translate(456,480) scale(2.06)"><rect width="6" height="6"/></g>
<g transform="translate(480,480) scale(2.06)"><circle cx="3" cy="3" r="3"/></g>
<g transform="translate(504,480) scale(2.06)"><rect width="6" height="6"/></g>
<g transform="translate(528,480) scale(2.06)"><rect width="6" height="6"/></g>
<g transform="translate(540,480) scale(2.06)"><path d="M6,6H0V0l3,0c1.7,0,3,1.3,3,3V6z"/></g>
<g transform="translate(120,492) scale(2.06)"><rect width="6" height="6"/></g>
<g transform="translate(132,492) scale(2.06)"><rect width="6" height="6"/></g>
<g transform="translate(144,492) scale(2.06)"><path d="M3,6H0V0l6,0v3C6,4.7,4.7,6,3,6z"/></g>
<g transform="translate(168,492) scale(2.06)"><path d="M6,6H3C1.3,6,0,4.7,0,3v0c0-1.7,1.3-3,3-3h3C6,0,6,6,6,6z"/></g>
<g transform="translate(180,492) scale(2.06)"><rect width="6" height="6"/></g>
<g transform="translate(204,492) scale(2.06)"><rect width="6" height="6"/></g>
<g transform="translate(252,492) scale(2.06)"><path d="M6,6H0V3c0-1.7,1.3-3,3-3l3,0V6z"/></g>
<g transform="translate(264,492) scale(2.06)"><rect width="6" height="6"/></g>
<g transform="translate(312,492) scale(2.06)"><rect width="6" height="6"/></g>
<g transform="translate(324,492) scale(2.06)"><rect width="6" height="6"/></g>
<g transform="translate(336,492) scale(2.06)"><rect width="6" height="6"/></g>
<g transform="translate(348,492) scale(2.06)"><rect width="6" height="6"/></g>
<g transform="translate(360,492) scale(2.06)"><rect width="6" height="6"/></g>
<g transform="translate(372,492) scale(2.06)"><rect width="6" height="6"/></g>
<g transform="translate(384,492) scale(2.06)"><path d="M6,6H0V0l3,0c1.7,0,3,1.3,3,3V6z"/></g>
<g transform="translate(408,492) scale(2.06)"><path d="M3,6L3,6C1.3,6,0,4.7,0,3V0h6v3C6,4.7,4.7,6,3,6z"/></g>
<g transform="translate(432,492) scale(2.06)"><rect width="6" height="6"/></g>
<g transform="translate(444,492) scale(2.06)"><rect width="6" height="6"/></g>
<g transform="translate(456,492) scale(2.06)"><rect width="6" height="6"/></g>
<g transform="translate(504,492) scale(2.06)"><rect width="6" height="6"/></g>
<g transform="translate(516,492) scale(2.06)"><rect width="6" height="6"/></g>
<g transform="translate(528,492) scale(2.06)"><rect width="6" height="6"/></g>
<g transform="translate(540,492) scale(2.06)"><rect width="6" height="6"/></g>
<g transform="translate(120,504) scale(2.06)"><rect width="6" height="6"/></g>
<g transform="translate(132,504) scale(2.06)"><path d="M3,6H0V0l6,0v3C6,4.7,4.7,6,3,6z"/></g>
<g transform="translate(156,504) scale(2.06)"><path d="M6,6H0V3c0-1.7,1.3-3,3-3h0c1.7,0,3,1.3,3,3V6z"/></g>
<g transform="translate(180,504) scale(2.06)"><path d="M3,6L3,6C1.3,6,0,4.7,0,3V0h6v3C6,4.7,4.7,6,3,6z"/></g>
<g transform="translate(204,504) scale(2.06)"><rect width="6" height="6"/></g>
<g transform="translate(228,504) scale(2.06)"><path d="M6,6H0V3c0-1.7,1.3-3,3-3l3,0V6z"/></g>
<g transform="translate(240,504) scale(2.06)"><rect width="6" height="6"/></g>
<g transform="translate(252,504) scale(2.06)"><rect width="6" height="6"/></g>
<g transform="translate(264,504) scale(2.06)"><rect width="6" height="6"/></g>
<g transform="translate(276,504) scale(2.06)"><rect width="6" height="6"/></g>
<g transform="translate(288,504) scale(2.06)"><rect width="6" height="6"/></g>
<g transform="translate(300,504) scale(2.06)"><rect width="6" height="6"/></g>
<g transform="translate(312,504) scale(2.06)"><path d="M3,6H0V0l6,0v3C6,4.7,4.7,6,3,6z"/></g>
<g transform="translate(336,504) scale(2.06)"><path d="M3,6L3,6C1.3,6,0,4.7,0,3V0h6v3C6,4.7,4.7,6,3,6z"/></g>
<g transform="translate(384,504) scale(2.06)"><rect width="6" height="6"/></g>
<g transform="translate(396,504) scale(2.06)"><path d="M3,6H0V0l3,0c1.7,0,3,1.3,3,3v0C6,4.7,4.7,6,3,6z"/></g>
<g transform="translate(432,504) scale(2.06)"><path d="M3,6L3,6C1.3,6,0,4.7,0,3V0h6v3C6,4.7,4.7,6,3,6z"/></g>
<g transform="translate(456,504) scale(2.06)"><path d="M6,6H3C1.3,6,0,4.7,0,3V0l6,0V6z"/></g>
<g transform="translate(468,504) scale(2.06)"><rect width="6" height="6"/></g>
<g transform="translate(480,504) scale(2.06)"><rect width="6" height="6"/></g>
<g transform="translate(492,504) scale(2.06)"><rect width="6" height="6"/></g>
<g transform="translate(504,504) scale(2.06)"><rect width="6" height="6"/></g>
<g transform="translate(540,504) scale(2.06)"><rect width="6" height="6"/></g>
<g transform="translate(120,516) scale(2.06)"><rect width="6" height="6"/></g>
<g transform="translate(144,516) scale(2.06)"><path d="M6,6H3C1.3,6,0,4.7,0,3v0c0-1.7,1.3-3,3-3h3C6,0,6,6,6,6z"/></g>
<g transform="translate(156,516) scale(2.06)"><rect width="6" height="6"/></g>
<g transform="translate(168,516) scale(2.06)"><path d="M3,6H0V0l3,0c1.7,0,3,1.3,3,3v0C6,4.7,4.7,6,3,6z"/></g>
<g transform="translate(204,516) scale(2.06)"><rect width="6" height="6"/></g>
<g transform="translate(216,516) scale(2.06)"><rect width="6" height="6"/></g>
<g transform="translate(228,516) scale(2.06)"><path d="M3,6H0V0l6,0v3C6,4.7,4.7,6,3,6z"/></g>
<g transform="translate(264,516) scale(2.06)"><path d="M6,6H3C1.3,6,0,4.7,0,3V0l6,0V6z"/></g>
<g transform="translate(276,516) scale(2.06)"><rect width="6" height="6"/></g>
<g transform="translate(288,516) scale(2.06)"><rect width="6" height="6"/></g>
<g transform="translate(300,516) scale(2.06)"><path d="M3,6H0V0l6,0v3C6,4.7,4.7,6,3,6z"/></g>
<g transform="translate(324,516) scale(2.06)"><path d="M6,6H0V3c0-1.7,1.3-3,3-3h0c1.7,0,3,1.3,3,3V6z"/></g>
<g transform="translate(348,516) scale(2.06)"><circle cx="3" cy="3" r="3"/></g>
<g transform="translate(372,516) scale(2.06)"><path d="M6,6H3C1.3,6,0,4.7,0,3v0c0-1.7,1.3-3,3-3h3C6,0,6,6,6,6z"/></g>
<g transform="translate(384,516) scale(2.06)"><path d="M3,6H0V0l6,0v3C6,4.7,4.7,6,3,6z"/></g>
<g transform="translate(408,516) scale(2.06)"><path d="M6,6H3C1.3,6,0,4.7,0,3v0c0-1.7,1.3-3,3-3h3C6,0,6,6,6,6z"/></g>
<g transform="translate(420,516) scale(2.06)"><path d="M6,6H0V0l3,0c1.7,0,3,1.3,3,3V6z"/></g>
<g transform="translate(504,516) scale(2.06)"><path d="M3,6L3,6C1.3,6,0,4.7,0,3V0h6v3C6,4.7,4.7,6,3,6z"/></g>
<g transform="translate(528,516) scale(2.06)"><path d="M6,6H3C1.3,6,0,4.7,0,3v0c0-1.7,1.3-3,3-3h3C6,0,6,6,6,6z"/></g>
<g transform="translate(540,516) scale(2.06)"><rect width="6" height="6"/></g>
<g transform="translate(120,528) scale(2.06)"><rect width="6" height="6"/></g>
<g transform="translate(156,528) scale(2.06)"><rect width="6" height="6"/></g>
<g transform="translate(180,528) scale(2.06)"><path d="M6,6H0V3c0-1.7,1.3-3,3-3l3,0V6z"/></g>
<g transform="translate(192,528) scale(2.06)"><rect width="6" height="6"/></g>
<g transform="translate(204,528) scale(2.06)"><rect width="6" height="6"/></g>
<g transform="translate(216,528) scale(2.06)"><path d="M3,6H0V0l6,0v3C6,4.7,4.7,6,3,6z"/></g>
<g transform="translate(240,528) scale(2.06)"><circle cx="3" cy="3" r="3"/></g>
<g transform="translate(276,528) scale(2.06)"><rect width="6" height="6"/></g>
<g transform="translate(324,528) scale(2.06)"><path d="M3,6L3,6C1.3,6,0,4.7,0,3V0h6v3C6,4.7,4.7,6,3,6z"/></g>
<g transform="translate(420,528) scale(2.06)"><rect width="6" height="6"/></g>
<g transform="translate(432,528) scale(2.06)"><path d="M3,6H0V0l3,0c1.7,0,3,1.3,3,3v0C6,4.7,4.7,6,3,6z"/></g>
<g transform="translate(456,528) scale(2.06)"><path d="M6,6H0V3c0-1.7,1.3-3,3-3h0c1.7,0,3,1.3,3,3V6z"/></g>
<g transform="translate(516,528) scale(2.06)"><path d="M6,6H0V3c0-1.7,1.3-3,3-3h0c1.7,0,3,1.3,3,3V6z"/></g>
<g transform="translate(540,528) scale(2.06)"><path d="M3,6L3,6C1.3,6,0,4.7,0,3V0h6v3C6,4.7,4.7,6,3,6z"/></g>
<g transform="translate(120,540) scale(2.06)"><path d="M3,6L3,6C1.3,6,0,4.7,0,3V0h6v3C6,4.7,4.7,6,3,6z"/></g>
<g transform="translate(144,540) scale(2.06)"><path d="M6,6H3C1.3,6,0,4.7,0,3v0c0-1.7,1.3-3,3-3h3C6,0,6,6,6,6z"/></g>
<g transform="translate(156,540) scale(2.06)"><path d="M3,6H0V0l6,0v3C6,4.7,4.7,6,3,6z"/></g>
<g transform="translate(180,540) scale(2.06)"><rect width="6" height="6"/></g>
<g transform="translate(204,540) scale(2.06)"><path d="M3,6L3,6C1.3,6,0,4.7,0,3V0h6v3C6,4.7,4.7,6,3,6z"/></g>
<g transform="translate(252,540) scale(2.06)"><path d="M6,6H3C1.3,6,0,4.7,0,3v0c0-1.7,1.3-3,3-3h3C6,0,6,6,6,6z"/></g>
<g transform="translate(264,540) scale(2.06)"><rect width="6" height="6"/></g>
<g transform="translate(276,540) scale(2.06)"><rect width="6" height="6"/></g>
<g transform="translate(288,540) scale(2.06)"><rect width="6" height="6"/></g>
<g transform="translate(300,540) scale(2.06)"><rect width="6" height="6"/></g>
<g transform="translate(312,540) scale(2.06)"><path d="M3,6H0V0l3,0c1.7,0,3,1.3,3,3v0C6,4.7,4.7,6,3,6z"/></g>
<g transform="translate(336,540) scale(2.06)"><path d="M6,6H3C1.3,6,0,4.7,0,3v0c0-1.7,1.3-3,3-3h3C6,0,6,6,6,6z"/></g>
<g transform="translate(348,540) scale(2.06)"><path d="M3,6H0V0l3,0c1.7,0,3,1.3,3,3v0C6,4.7,4.7,6,3,6z"/></g>
<g transform="translate(372,540) scale(2.06)"><circle cx="3" cy="3" r="3"/></g>
<g transform="translate(396,540) scale(2.06)"><path d="M6,6H0V3c0-1.7,1.3-3,3-3l3,0V6z"/></g>
<g transform="translate(408,540) scale(2.06)"><rect width="6" height="6"/></g>
<g transform="translate(420,540) scale(2.06)"><path d="M3,6H0V0l6,0v3C6,4.7,4.7,6,3,6z"/></g>
<g transform="translate(444,540) scale(2.06)"><path d="M6,6H0V3c0-1.7,1.3-3,3-3l3,0V6z"/></g>
<g transform="translate(456,540) scale(2.06)"><rect width="6" height="6"/></g>
<g transform="translate(468,540) scale(2.06)"><path d="M6,6H0V0l3,0c1.7,0,3,1.3,3,3V6z"/></g>
<g transform="translate(492,540) scale(2.06)"><circle cx="3" cy="3" r="3"/></g>
<g transform="translate(516,540) scale(2.06)"><path d="M6,6H3C1.3,6,0,4.7,0,3V0l6,0V6z"/></g>
<g transform="translate(528,540) scale(2.06)"><path d="M3,6H0V0l3,0c1.7,0,3,1.3,3,3v0C6,4.7,4.7,6,3,6z"/></g>
<g transform="translate(180,552) scale(2.06)"><path d="M6,6H3C1.3,6,0,4.7,0,3V0l6,0V6z"/></g>
<g transform="translate(192,552) scale(2.06)"><path d="M3,6H0V0l3,0c1.7,0,3,1.3,3,3v0C6,4.7,4.7,6,3,6z"/></g>
<g transform="translate(216,552) scale(2.06)"><path d="M6,6H3C1.3,6,0,4.7,0,3v0c0-1.7,1.3-3,3-3h3C6,0,6,6,6,6z"/></g>
<g transform="translate(228,552) scale(2.06)"><rect width="6" height="6"/></g>
<g transform="translate(240,552) scale(2.06)"><path d="M3,6H0V0l3,0c1.7,0,3,1.3,3,3v0C6,4.7,4.7,6,3,6z"/></g>
<g transform="translate(276,552) scale(2.06)"><path d="M6,6H3C1.3,6,0,4.7,0,3V0l6,0V6z"/></g>
<g transform="translate(288,552) scale(2.06)"><rect width="6" height="6"/></g>
<g transform="translate(300,552) scale(2.06)"><path d="M3,6H0V0l6,0v3C6,4.7,4.7,6,3,6z"/></g>
<g transform="translate(360,552) scale(2.06)"><circle cx="3" cy="3" r="3"/></g>
<g transform="translate(396,552) scale(2.06)"><path d="M3,6L3,6C1.3,6,0,4.7,0,3V0h6v3C6,4.7,4.7,6,3,6z"/></g>
<g transform="translate(444,552) scale(2.06)"><path d="M3,6L3,6C1.3,6,0,4.7,0,3V0h6v3C6,4.7,4.7,6,3,6z"/></g>
<g transform="translate(468,552) scale(2.06)"><path d="M6,6H3C1.3,6,0,4.7,0,3V0l6,0V6z"/></g>
<g transform="translate(480,552) scale(2.06)"><path d="M3,6H0V0l3,0c1.7,0,3,1.3,3,3v0C6,4.7,4.7,6,3,6z"/></g>
<g transform="translate(540,552) scale(2.06)"><circle cx="3" cy="3" r="3"/></g>
<g transform="translate(24,24)"><g transform="scale(6)"><path d="M0,0v14h14V0H0z M12,12H2V2h10V12z"/></g></g>
<g transform="translate(480,24)"><g transform="scale(6)"><path d="M0,0v14h14V0H0z M12,12H2V2h10V12z"/></g></g>
<g transform="translate(24,480)"><g transform="scale(6)"><path d="M0,0v14h14V0H0z M12,12H2V2h10V12z"/></g></g>
<g transform="translate(48,48)"><g transform="scale(6)"><rect width="6" height="6"/></g></g>
<g transform="translate(504,48)"><g transform="scale(6)"><rect width="6" height="6"/></g></g>
<g transform="translate(48,504)"><g transform="scale(6)"><rect width="6" height="6"/></g></g>
</g></svg>
