<?xml version="1.0" encoding="utf-8"?>
<svg xmlns="http://www.w3.org/2000/svg" xmlns:xlink="http://www.w3.org/1999/xlink" xml:space="preserve" width="300" height="300" viewBox="0 0 540 540"><g fill="#8C8C8E">
<g transform="translate(120,24) scale(2.06)"><circle cx="3" cy="3" r="3"/></g>
<g transform="translate(168,24) scale(2.06)"><path d="M6,6H3C1.3,6,0,4.7,0,3v0c0-1.7,1.3-3,3-3h3C6,0,6,6,6,6z"/></g>
<g transform="translate(180,24) scale(2.06)"><rect width="6" height="6"/></g>
<g transform="translate(192,24) scale(2.06)"><rect width="6" height="6"/></g>
<g transform="translate(204,24) scale(2.06)"><path d="M3,6H0V0l3,0c1.7,0,3,1.3,3,3v0C6,4.7,4.7,6,3,6z"/></g>
<g transform="translate(252,24) scale(2.06)"><circle cx="3" cy="3" r="3"/></g>
<g transform="translate(300,24) scale(2.06)"><path d="M6,6H0V3c0-1.7,1.3-3,3-3h0c1.7,0,3,1.3,3,3V6z"/></g>
<g transform="translate(360,24) scale(2.06)"><path d="M6,6H3C1.3,6,0,4.7,0,3v0c0-1.7,1.3-3,3-3h3C6,0,6,6,6,6z"/></g>
<g transform="translate(372,24) scale(2.06)"><rect width="6" height="6"/></g>
<g transform="translate(384,24) scale(2.06)"><rect width="6" height="6"/></g>
<g transform="translate(396,24) scale(2.06)"><rect width="6" height="6"/></g>
<g transform="translate(408,24) scale(2.06)"><path d="M3,6H0V0l3,0c1.7,0,3,1.3,3,3v0C6,4.7,4.7,6,3,6z"/></g>
<g transform="translate(144,36) scale(2.06)"><path d="M6,6H0V3c0-1.7,1.3-3,3-3l3,0V6z"/></g>
<g transform="translate(156,36) scale(2.06)"><path d="M3,6H0V0l3,0c1.7,0,3,1.3,3,3v0C6,4.7,4.7,6,3,6z"/></g>
<g transform="translate(192,36) scale(2.06)"><path d="M3,6L3,6C1.3,6,0,4.7,0,3V0h6v3C6,4.7,4.7,6,3,6z"/></g>
<g transform="translate(216,36) scale(2.06)"><path d="M6,6H0V3c0-1.7,1.3-3,3-3h0c1.7,0,3,1.3,3,3V6z"/></g>
<g transform="translate(240,36) scale(2.06)"><path d="M6,6H0V3c0-1.7,1.3-3,3-3h0c1.7,0,3,1.3,3,3V6z"/></g>
<g transform="translate(300,36) scale(2.06)"><rect width="6" height="6"/></g>
<g transform="translate(348,36) scale(2.06)"><circle cx="3" cy="3" r="3"/></g>
<g transform="translate(384,36) scale(2.06)"><path d="M3,6L3,6C1.3,6,0,4.7,0,3V0h6v3C6,4.7,4.7,6,3,6z"/></g>
<g transform="translate(144,48) scale(2.06)"><rect width="6" height="6"/></g>
<g transform="translate(216,48) scale(2.06)"><rect width="6" height="6"/></g>
<g transform="translate(240,48) scale(2.06)"><path d="M3,6L3,6C1.3,6,0,4.7,0,3V0h6v3C6,4.7,4.7,6,3,6z"/></g>
<g transform="translate(264,48) scale(2.06)"><path d="M6,6H0V3c0-1.7,1.3-3,3-3l3,0V6z"/></g>
<g transform="translate(276,48) scale(2.06)"><rect width="6" height="6"/></g>
<g transform="translate(288,48) scale(2.06)"><rect width="6" height="6"/></g>
<g transform="translate(300,48) scale(2.06)"><path d="M3,6H0V0l6,0v3C6,4.7,4.7,6,3,6z"/></g>
<g transform="translate(336,48) scale(2.06)"><circle cx="3" cy="3" r="3"/></g>
<g transform="translate(408,48) scale(2.06)"><path d="M6,6H0V3c0-1.7,1.3-3,3-3h0c1.7,0,3,1.3,3,3V6z"/></g>
<g transform="translate(132,60) scale(2.06)"><path d="M6,6H0V3c0-1.7,1.3-3,3-3l3,0V6z"/></g>
<g transform="translate(144,60) scale(2.06)"><rect width="6" height="6"/></g>
<g transform="translate(156,60) scale(2.06)"><rect width="6" height="6"/></g>
<g transform="translate(168,60) scale(2.06)"><rect width="6" height="6"/></g>
<g transform="translate(180,60) scale(2.06)"><rect width="6" height="6"/></g>
<g transform="translate(192,60) scale(2.06)"><path d="M6,6H0V0l3,0c1.7,0,3,1.3,3,3V6z"/></g>
<g transform="translate(216,60) scale(2.06)"><path d="M6,6H3C1.3,6,0,4.7,0,3V0l6,0V6z"/></g>
<g transform="translate(228,60) scale(2.06)"><path d="M3,6H0V0l3,0c1.7,0,3,1.3,3,3v0C6,4.7,4.7,6,3,6z"/></g>
<g transform="translate(252,60) scale(2.06)"><path d="M6,6H3C1.3,6,0,4.7,0,3v0c0-1.7,1.3-3,3-3h3C6,0,6,6,6,6z"/></g>
<g transform="translate(264,60) scale(2.06)"><rect width="6" height="6"/></g>
<g transform="translate(276,60) scale(2.06)"><rect width="6" height="6"/></g>
<g transform="translate(288,60) scale(2.06)"><rect width="6" height="6"/></g>
<g transform="translate(312,60) scale(2.06)"><path d="M6,6H0V3c0-1.7,1.3-3,3-3h0c1.7,0,3,1.3,3,3V6z"/></g>
<g transform="translate(348,60) scale(2.06)"><circle cx="3" cy="3" r="3"/></g>
<g transform="translate(372,60) scale(2.06)"><path d="M6,6H3C1.3,6,0,4.7,0,3v0c0-1.7,1.3-3,3-3h3C6,0,6,6,6,6z"/></g>
<g transform="translate(384,60) scale(2.06)"><path d="M6,6H0V0l3,0c1.7,0,3,1.3,3,3V6z"/></g>
<g transform="translate(408,60) scale(2.06)"><rect width="6" height="6"/></g>
<g transform="translate(120,72) scale(2.06)"><path d="M6,6H0V3c0-1.7,1.3-3,3-3l3,0V6z"/></g>
<g transform="translate(132,72) scale(2.06)"><path d="M3,6H0V0l6,0v3C6,4.7,4.7,6,3,6z"/></g>
<g transform="translate(156,72) scale(2.06)"><rect width="6" height="6"/></g>
<g transform="translate(168,72) scale(2.06)"><path d="M3,6H0V0l6,0v3C6,4.7,4.7,6,3,6z"/></g>
<g transform="translate(192,72) scale(2.06)"><rect width="6" height="6"/></g>
<g transform="translate(204,72) scale(2.06)"><path d="M3,6H0V0l3,0c1.7,0,3,1.3,3,3v0C6,4.7,4.7,6,3,6z"/></g>
<g transform="translate(288,72) scale(2.06)"><rect width="6" height="6"/></g>
<g transform="translate(312,72) scale(2.06)"><path d="M3,6L3,6C1.3,6,0,4.7,0,3V0h6v3C6,4.7,4.7,6,3,6z"/></g>
<g transform="translate(336,72) scale(2.06)"><circle cx="3" cy="3" r="3"/></g>
<g transform="translate(384,72) scale(2.06)"><path d="M6,6H3C1.3,6,0,4.7,0,3V0l6,0V6z"/></g>
<g transform="translate(396,72) scale(2.06)"><rect width="6" height="6"/></g>
<g transform="translate(408,72) scale(2.06)"><rect width="6" height="6"/></g>
<g transform="translate(120,84) scale(2.06)"><rect width="6" height="6"/></g>
<g transform="translate(156,84) scale(2.06)"><path d="M3,6L3,6C1.3,6,0,4.7,0,3V0h6v3C6,4.7,4.7,6,3,6z"/></g>
<g transform="translate(192,84) scale(2.06)"><rect width="6" height="6"/></g>
<g transform="translate(216,84) scale(2.06)"><path d="M6,6H0V3c0-1.7,1.3-3,3-3h0c1.7,0,3,1.3,3,3V6z"/></g>
<g transform="translate(240,84) scale(2.06)"><path d="M6,6H0V3c0-1.7,1.3-3,3-3h0c1.7,0,3,1.3,3,3V6z"/></g>
<g transform="translate(264,84) scale(2.06)"><path d="M6,6H0V3c0-1.7,1.3-3,3-3h0c1.7,0,3,1.3,3,3V6z"/></g>
<g transform="translate(288,84) scale(2.06)"><rect width="6" height="6"/></g>
<g transform="translate(300,84) scale(2.06)"><path d="M3,6H0V0l3,0c1.7,0,3,1.3,3,3v0C6,4.7,4.7,6,3,6z"/></g>
<g transform="translate(324,84) scale(2.06)"><circle cx="3" cy="3" r="3"/></g>
<g transform="translate(348,84) scale(2.06)"><path d="M6,6H3C1.3,6,0,4.7,0,3v0c0-1.7,1.3-3,3-3h3C6,0,6,6,6,6z"/></g>
<g transform="translate(360,84) scale(2.06)"><rect width="6" height="6"/></g>
<g transform="translate(372,84) scale(2.06)"><path d="M3,6H0V0l3,0c1.7,0,3,1.3,3,3v0C6,4.7,4.7,6,3,6z"/></g>
<g transform="translate(408,84) scale(2.06)"><rect width="6" height="6"/></g>
<g transform="translate(120,96) scale(2.06)"><path d="M3,6L3,6C1.3,6,0,4.7,0,3V0h6v3C6,4.7,4.7,6,3,6z"/></g>
<g transform="translate(144,96) scale(2.06)"><circle cx="3" cy="3" r="3"/></g>
<g transform="translate(168,96) scale(2.06)"><circle cx="3" cy="3" r="3"/></g>
<g transform="translate(192,96) scale(2.06)"><rect width="6" height="6"/></g>
<g transform="translate(216,96) scale(2.06)"><rect width="6" height="6"/></g>
<g transform="translate(240,96) scale(2.06)"><path d="M3,6L3,6C1.3,6,0,4.7,0,3V0h6v3C6,4.7,4.7,6,3,6z"/></g>
<g transform="translate(264,96) scale(2.06)"><rect width="6" height="6"/></g>
<g transform="translate(288,96) scale(2.06)"><rect width="6" height="6"/></g>
<g transform="translate(312,96) scale(2.06)"><circle cx="3" cy="3" r="3"/></g>
<g transform="translate(336,96) scale(2.06)"><circle cx="3" cy="3" r="3"/></g>
<g transform="translate(360,96) scale(2.06)"><rect width="6" height="6"/></g>
<g transform="translate(384,96) scale(2.06)"><circle cx="3" cy="3" r="3"/></g>
<g transform="translate(408,96) scale(2.06)"><path d="M3,6L3,6C1.3,6,0,4.7,0,3V0h6v3C6,4.7,4.7,6,3,6z"/></g>
<g transform="translate(132,108) scale(2.06)"><path d="M6,6H0V3c0-1.7,1.3-3,3-3h0c1.7,0,3,1.3,3,3V6z"/></g>
<g transform="translate(156,108) scale(2.06)"><circle cx="3" cy="3" r="3"/></g>
<g transform="translate(180,108) scale(2.06)"><path d="M6,6H0V3c0-1.7,1.3-3,3-3l3,0V6z"/></g>
<g transform="translate(192,108) scale(2.06)"><path d="M3,6H0V0l6,0v3C6,4.7,4.7,6,3,6z"/></g>
<g transform="translate(216,108) scale(2.06)"><path d="M3,6L3,6C1.3,6,0,4.7,0,3V0h6v3C6,4.7,4.7,6,3,6z"/></g>
<g transform="translate(264,108) scale(2.06)"><rect width="6" height="6"/></g>
<g transform="translate(288,108) scale(2.06)"><rect width="6" height="6"/></g>
<g transform="translate(348,108) scale(2.06)"><path d="M6,6H0V3c0-1.7,1.3-3,3-3l3,0V6z"/></g>
<g transform="translate(360,108) scale(2.06)"><path d="M3,6H0V0l6,0v3C6,4.7,4.7,6,3,6z"/></g>
<g transform="translate(396,108) scale(2.06)"><circle cx="3" cy="3" r="3"/></g>
<g transform="translate(36,120) scale(2.06)"><path d="M6,6H0V3c0-1.7,1.3-3,3-3l3,0V6z"/></g>
<g transform="translate(48,120) scale(2.06)"><rect width="6" height="6"/></g>
<g transform="translate(60,120) scale(2.06)"><rect width="6" height="6"/></g>
<g transform="translate(72,120) scale(2.06)"><rect width="6" height="6"/></g>
<g transform="translate(84,120) scale(2.06)"><rect width="6" height="6"/></g>
<g transform="translate(96,120) scale(2.06)"><rect width="6" height="6"/></g>
<g transform="translate(108,120) scale(2.06)"><path d="M3,6H0V0l3,0c1.7,0,3,1.3,3,3v0C6,4.7,4.7,6,3,6z"/></g>
<g transform="translate(132,120) scale(2.06)"><rect width="6" height="6"/></g>
<g transform="translate(180,120) scale(2.06)"><rect width="6" height="6"/></g>
<g transform="translate(204,120) scale(2.06)"><path d="M6,6H0V3c0-1.7,1.3-3,3-3h0c1.7,0,3,1.3,3,3V6z"/></g>
<g transform="translate(228,120) scale(2.06)"><path d="M6,6H0V3c0-1.7,1.3-3,3-3h0c1.7,0,3,1.3,3,3V6z"/></g>
<g transform="translate(252,120) scale(2.06)"><path d="M6,6H0V3c0-1.7,1.3-3,3-3l3,0V6z"/></g>
<g transform="translate(264,120) scale(2.06)"><rect width="6" height="6"/></g>
<g transform="translate(276,120) scale(2.06)"><rect width="6" height="6"/></g>
<g transform="translate(288,120) scale(2.06)"><rect width="6" height="6"/></g>
<g transform="translate(324,120) scale(2.06)"><path d="M6,6H0V3c0-1.7,1.3-3,3-3h0c1.7,0,3,1.3,3,3V6z"/></g>
<g transform="translate(348,120) scale(2.06)"><path d="M3,6L3,6C1.3,6,0,4.7,0,3V0h6v3C6,4.7,4.7,6,3,6z"/></g>
<g transform="translate(372,120) scale(2.06)"><circle cx="3" cy="3" r="3"/></g>
<g transform="translate(444,120) scale(2.06)"><path d="M6,6H0V3c0-1.7,1.3-3,3-3l3,0V6z"/></g>
<g transform="translate(456,120) scale(2.06)"><path d="M6,6H0V0l3,0c1.7,0,3,1.3,3,3V6z"/></g>
<g transform="translate(504,120) scale(2.06)"><path d="M6,6H0V3c0-1.7,1.3-3,3-3h0c1.7,0,3,1.3,3,3V6z"/></g>
<g transform="translate(36,132) scale(2.06)"><rect width="6" height="6"/></g>
<g transform="translate(48,132) scale(2.06)"><rect width="6" height="6"/></g>
<g transform="translate(60,132) scale(2.06)"><rect width="6" height="6"/></g>
<g transform="translate(72,132) scale(2.06)"><rect width="6" height="6"/></g>
<g transform="translate(120,132) scale(2.06)"><path d="M6,6H3C1.3,6,0,4.7,0,3v0c0-1.7,1.3-3,3-3h3C6,0,6,6,6,6z"/></g>
<g transform="translate(132,132) scale(2.06)"><rect width="6" height="6"/></g>
<g transform="translate(144,132) scale(2.06)"><path d="M3,6H0V0l3,0c1.7,0,3,1.3,3,3v0C6,4.7,4.7,6,3,6z"/></g>
<g transform="translate(180,132) scale(2.06)"><path d="M6,6H3C1.3,6,0,4.7,0,3V0l6,0V6z"/></g>
<g transform="translate(192,132) scale(2.06)"><rect width="6" height="6"/></g>
<g transform="translate(204,132) scale(2.06)"><rect width="6" height="6"/></g>
<g transform="translate(216,132) scale(2.06)"><rect width="6" height="6"/></g>
<g transform="translate(228,132) scale(2.06)"><rect width="6" height="6"/></g>
<g transform="translate(240,132) scale(2.06)"><rect width="6" height="6"/></g>
<g transform="translate(252,132) scale(2.06)"><rect width="6" height="6"/></g>
<g transform="translate(264,132) scale(2.06)"><rect width="6" height="6"/></g>
<g transform="translate(276,132) scale(2.06)"><rect width="6" height="6"/></g>
<g transform="translate(288,132) scale(2.06)"><rect width="6" height="6"/></g>
<g transform="translate(312,132) scale(2.06)"><path d="M6,6H0V3c0-1.7,1.3-3,3-3l3,0V6z"/></g>
<g transform="translate(324,132) scale(2.06)"><rect width="6" height="6"/></g>
<g transform="translate(360,132) scale(2.06)"><path d="M6,6H0V3c0-1.7,1.3-3,3-3h0c1.7,0,3,1.3,3,3V6z"/></g>
<g transform="translate(384,132) scale(2.06)"><path d="M6,6H3C1.3,6,0,4.7,0,3v0c0-1.7,1.3-3,3-3h3C6,0,6,6,6,6z"/></g>
<g transform="translate(396,132) scale(2.06)"><rect width="6" height="6"/></g>
<g transform="translate(408,132) scale(2.06)"><path d="M6,6H0V0l3,0c1.7,0,3,1.3,3,3V6z"/></g>
<g transform="translate(432,132) scale(2.06)"><path d="M6,6H3C1.3,6,0,4.7,0,3v0c0-1.7,1.3-3,3-3h3C6,0,6,6,6,6z"/></g>
<g transform="translate(444,132) scale(2.06)"><rect width="6" height="6"/></g>
<g transform="translate(456,132) scale(2.06)"><rect width="6" height="6"/></g>
<g transform="translate(480,132) scale(2.06)"><circle cx="3" cy="3" r="3"/></g>
<g transform="translate(504,132) scale(2.06)"><path d="M3,6L3,6C1.3,6,0,4.7,0,3V0h6v3C6,4.7,4.7,6,3,6z"/></g>
<g transform="translate(24,144) scale(2.06)"><path d="M6,6H0V3c0-1.7,1.3-3,3-3l3,0V6z"/></g>
<g transform="translate(36,144) scale(2.06)"><path d="M3,6H0V0l6,0v3C6,4.7,4.7,6,3,6z"/></g>
<g transform="translate(60,144) scale(2.06)"><rect width="6" height="6"/></g>
<g transform="translate(72,144) scale(2.06)"><rect width="6" height="6"/></g>
<g transform="translate(84,144) scale(2.06)"><rect width="6" height="6"/></g>
<g transform="translate(96,144) scale(2.06)"><rect width="6" height="6"/></g>
<g transform="translate(108,144) scale(2.06)"><path d="M3,6H0V0l3,0c1.7,0,3,1.3,3,3v0C6,4.7,4.7,6,3,6z"/></g>
<g transform="translate(132,144) scale(2.06)"><rect width="6" height="6"/></g>
<g transform="translate(156,144) scale(2.06)"><path d="M6,6H3C1.3,6,0,4.7,0,3v0c0-1.7,1.3-3,3-3h3C6,0,6,6,6,6z"/></g>
<g transform="translate(168,144) scale(2.06)"><path d="M3,6H0V0l3,0c1.7,0,3,1.3,3,3v0C6,4.7,4.7,6,3,6z"/></g>
<g transform="translate(192,144) scale(2.06)"><path d="M6,6H3C1.3,6,0,4.7,0,3V0l6,0V6z"/></g>
<g transform="translate(204,144) scale(2.06)"><path d="M3,6H0V0l6,0v3C6,4.7,4.7,6,3,6z"/></g>
<g transform="translate(228,144) scale(2.06)"><rect width="6" height="6"/></g>
<g transform="translate(252,144) scale(2.06)"><rect width="6" height="6"/></g>
<g transform="translate(276,144) scale(2.06)"><path d="M6,6H3C1.3,6,0,4.7,0,3V0l6,0V6z"/></g>
<g transform="translate(288,144) scale(2.06)"><rect width="6" height="6"/></g>
<g transform="translate(300,144) scale(2.06)"><rect width="6" height="6"/></g>
<g transform="translate(312,144) scale(2.06)"><rect width="6" height="6"/></g>
<g transform="translate(324,144) scale(2.06)"><rect width="6" height="6"/></g>
<g transform="translate(336,144) scale(2.06)"><rect width="6" height="6"/></g>
<g transform="translate(348,144) scale(2.06)"><rect width="6" height="6"/></g>
<g transform="translate(360,144) scale(2.06)"><rect width="6" height="6"/></g>
<g transform="translate(408,144) scale(2.06)"><rect width="6" height="6"/></g>
<g transform="translate(420,144) scale(2.06)"><path d="M6,6H0V0l3,0c1.7,0,3,1.3,3,3V6z"/></g>
<g transform="translate(444,144) scale(2.06)"><rect width="6" height="6"/></g>
<g transform="translate(456,144) scale(2.06)"><path d="M3,6H0V0l6,0v3C6,4.7,4.7,6,3,6z"/></g>
<g transform="translate(24,156) scale(2.06)"><rect width="6" height="6"/></g>
<g transform="translate(60,156) scale(2.06)"><path d="M3,6L3,6C1.3,6,0,4.7,0,3V0h6v3C6,4.7,4.7,6,3,6z"/></g>
<g transform="translate(84,156) scale(2.06)"><rect width="6" height="6"/></g>
<g transform="translate(132,156) scale(2.06)"><rect width="6" height="6"/></g>
<g transform="translate(180,156) scale(2.06)"><path d="M6,6H0V3c0-1.7,1.3-3,3-3h0c1.7,0,3,1.3,3,3V6z"/></g>
<g transform="translate(216,156) scale(2.06)"><path d="M6,6H0V3c0-1.7,1.3-3,3-3l3,0V6z"/></g>
<g transform="translate(228,156) scale(2.06)"><path d="M3,6H0V0l6,0v3C6,4.7,4.7,6,3,6z"/></g>
<g transform="translate(252,156) scale(2.06)"><path d="M3,6L3,6C1.3,6,0,4.7,0,3V0h6v3C6,4.7,4.7,6,3,6z"/></g>
<g transform="translate(288,156) scale(2.06)"><path d="M6,6H3C1.3,6,0,4.7,0,3V0l6,0V6z"/></g>
<g transform="translate(300,156) scale(2.06)"><path d="M3,6H0V0l6,0v3C6,4.7,4.7,6,3,6z"/></g>
<g transform="translate(336,156) scale(2.06)"><rect width="6" height="6"/></g>
<g transform="translate(348,156) scale(2.06)"><rect width="6" height="6"/></g>
<g transform="translate(360,156) scale(2.06)"><path d="M3,6H0V0l6,0v3C6,4.7,4.7,6,3,6z"/></g>
<g transform="translate(384,156) scale(2.06)"><path d="M6,6H3C1.3,6,0,4.7,0,3v0c0-1.7,1.3-3,3-3h3C6,0,6,6,6,6z"/></g>
<g transform="translate(396,156) scale(2.06)"><rect width="6" height="6"/></g>
<g transform="translate(408,156) scale(2.06)"><rect width="6" height="6"/></g>
<g transform="translate(420,156) scale(2.06)"><rect width="6" height="6"/></g>
<g transform="translate(432,156) scale(2.06)"><rect width="6" height="6"/></g>
<g transform="translate(444,156) scale(2.06)"><rect width="6" height="6"/></g>
<g transform="translate(468,156) scale(2.06)"><path d="M6,6H0V3c0-1.7,1.3-3,3-3h0c1.7,0,3,1.3,3,3V6z"/></g>
<g transform="translate(24,168) scale(2.06)"><path d="M6,6H3C1.3,6,0,4.7,0,3V0l6,0V6z"/></g>
<g transform="translate(36,168) scale(2.06)"><path d="M6,6H0V0l3,0c1.7,0,3,1.3,3,3V6z"/></g>
<g transform="translate(72,168) scale(2.06)"><path d="M6,6H0V3c0-1.7,1.3-3,3-3l3,0V6z"/></g>
<g transform="translate(84,168) scale(2.06)"><rect width="6" height="6"/></g>
<g transform="translate(96,168) scale(2.06)"><path d="M3,6H0V0l3,0c1.7,0,3,1.3,3,3v0C6,4.7,4.7,6,3,6z"/></g>
<g transform="translate(132,168) scale(2.06)"><rect width="6" height="6"/></g>
<g transform="translate(156,168) scale(2.06)"><circle cx="3" cy="3" r="3"/></g>
<g transform="translate(180,168) scale(2.06)"><path d="M3,6L3,6C1.3,6,0,4.7,0,3V0h6v3C6,4.7,4.7,6,3,6z"/></g>
<g transform="translate(216,168) scale(2.06)"><path d="M3,6L3,6C1.3,6,0,4.7,0,3V0h6v3C6,4.7,4.7,6,3,6z"/></g>
<g transform="translate(240,168) scale(2.06)"><path d="M6,6H0V3c0-1.7,1.3-3,3-3h0c1.7,0,3,1.3,3,3V6z"/></g>
<g transform="translate(264,168) scale(2.06)"><path d="M6,6H0V3c0-1.7,1.3-3,3-3h0c1.7,0,3,1.3,3,3V6z"/></g>
<g transform="translate(336,168) scale(2.06)"><rect width="6" height="6"/></g>
<g transform="translate(348,168) scale(2.06)"><rect width="6" height="6"/></g>
<g transform="translate(372,168) scale(2.06)"><path d="M6,6H0V3c0-1.7,1.3-3,3-3h0c1.7,0,3,1.3,3,3V6z"/></g>
<g transform="translate(396,168) scale(2.06)"><rect width="6" height="6"/></g>
<g transform="translate(408,168) scale(2.06)"><rect width="6" height="6"/></g>
<g transform="translate(420,168) scale(2.06)"><rect width="6" height="6"/></g>
<g transform="translate(444,168) scale(2.06)"><rect width="6" height="6"/></g>
<g transform="translate(468,168) scale(2.06)"><rect width="6" height="6"/></g>
<g transform="translate(480,168) scale(2.06)"><rect width="6" height="6"/></g>
<g transform="translate(492,168) scale(2.06)"><path d="M6,6H0V0l3,0c1.7,0,3,1.3,3,3V6z"/></g>
<g transform="translate(36,180) scale(2.06)"><rect width="6" height="6"/></g>
<g transform="translate(48,180) scale(2.06)"><path d="M6,6H0V0l3,0c1.7,0,3,1.3,3,3V6z"/></g>
<g transform="translate(72,180) scale(2.06)"><path d="M6,6H3C1.3,6,0,4.7,0,3V0l6,0V6z"/></g>
<g transform="translate(84,180) scale(2.06)"><path d="M3,6H0V0l6,0v3C6,4.7,4.7,6,3,6z"/></g>
<g transform="translate(120,180) scale(2.06)"><path d="M6,6H0V3c0-1.7,1.3-3,3-3l3,0V6z"/></g>
<g transform="translate(132,180) scale(2.06)"><rect width="6" height="6"/></g>
<g transform="translate(144,180) scale(2.06)"><path d="M3,6H0V0l3,0c1.7,0,3,1.3,3,3v0C6,4.7,4.7,6,3,6z"/></g>
<g transform="translate(168,180) scale(2.06)"><path d="M6,6H0V3c0-1.7,1.3-3,3-3h0c1.7,0,3,1.3,3,3V6z"/></g>
<g transform="translate(204,180) scale(2.06)"><path d="M6,6H0V3c0-1.7,1.3-3,3-3h0c1.7,0,3,1.3,3,3V6z"/></g>
<g transform="translate(240,180) scale(2.06)"><rect width="6" height="6"/></g>
<g transform="translate(252,180) scale(2.06)"><rect width="6" height="6"/></g>
<g transform="translate(264,180) scale(2.06)"><rect width="6" height="6"/></g>
<g transform="translate(288,180) scale(2.06)"><path d="M6,6H0V3c0-1.7,1.3-3,3-3h0c1.7,0,3,1.3,3,3V6z"/></g>
<g transform="translate(312,180) scale(2.06)"><path d="M6,6H3C1.3,6,0,4.7,0,3v0c0-1.7,1.3-3,3-3h3C6,0,6,6,6,6z"/></g>
<g transform="translate(324,180) scale(2.06)"><rect width="6" height="6"/></g>
<g transform="translate(336,180) scale(2.06)"><rect width="6" height="6"/></g>
<g transform="translate(348,180) scale(2.06)"><rect width="6" height="6"/></g>
<g transform="translate(360,180) scale(2.06)"><rect width="6" height="6"/></g>
<g transform="translate(372,180) scale(2.06)"><rect width="6" height="6"/></g>
<g transform="translate(384,180) scale(2.06)"><rect width="6" height="6"/></g>
<g transform="translate(396,180) scale(2.06)"><rect width="6" height="6"/></g>
<g transform="translate(408,180) scale(2.06)"><rect width="6" height="6"/></g>
<g transform="translate(420,180) scale(2.06)"><rect width="6" height="6"/></g>
<g transform="translate(432,180) scale(2.06)"><rect width="6" height="6"/></g>
<g transform="translate(444,180) scale(2.06)"><rect width="6" height="6"/></g>
<g transform="translate(456,180) scale(2.06)"><rect width="6" height="6"/></g>
<g transform="translate(468,180) scale(2.06)"><rect width="6" height="6"/></g>
<g transform="translate(480,180) scale(2.06)"><rect width="6" height="6"/></g>
<g transform="translate(492,180) scale(2.06)"><rect width="6" height="6"/></g>
<g transform="translate(504,180) scale(2.06)"><path d="M3,6H0V0l3,0c1.7,0,3,1.3,3,3v0C6,4.7,4.7,6,3,6z"/></g>
<g transform="translate(36,192) scale(2.06)"><rect width="6" height="6"/></g>
<g transform="translate(48,192) scale(2.06)"><rect width="6" height="6"/></g>
<g transform="translate(60,192) scale(2.06)"><path d="M3,6H0V0l3,0c1.7,0,3,1.3,3,3v0C6,4.7,4.7,6,3,6z"/></g>
<g transform="translate(96,192) scale(2.06)"><path d="M6,6H3C1.3,6,0,4.7,0,3v0c0-1.7,1.3-3,3-3h3C6,0,6,6,6,6z"/></g>
<g transform="translate(108,192) scale(2.06)"><rect width="6" height="6"/></g>
<g transform="translate(120,192) scale(2.06)"><path d="M3,6H0V0l6,0v3C6,4.7,4.7,6,3,6z"/></g>
<g transform="translate(156,192) scale(2.06)"><path d="M6,6H0V3c0-1.7,1.3-3,3-3l3,0V6z"/></g>
<g transform="translate(168,192) scale(2.06)"><rect width="6" height="6"/></g>
<g transform="translate(204,192) scale(2.06)"><rect width="6" height="6"/></g>
<g transform="translate(216,192) scale(2.06)"><rect width="6" height="6"/></g>
<g transform="translate(228,192) scale(2.06)"><rect width="6" height="6"/></g>
<g transform="translate(240,192) scale(2.06)"><rect width="6" height="6"/></g>
<g transform="translate(264,192) scale(2.06)"><path d="M6,6H3C1.3,6,0,4.7,0,3V0l6,0V6z"/></g>
<g transform="translate(276,192) scale(2.06)"><rect width="6" height="6"/></g>
<g transform="translate(288,192) scale(2.06)"><rect width="6" height="6"/></g>
<g transform="translate(336,192) scale(2.06)"><path d="M3,6L3,6C1.3,6,0,4.7,0,3V0h6v3C6,4.7,4.7,6,3,6z"/></g>
<g transform="translate(384,192) scale(2.06)"><path d="M3,6L3,6C1.3,6,0,4.7,0,3V0h6v3C6,4.7,4.7,6,3,6z"/></g>
<g transform="translate(408,192) scale(2.06)"><path d="M6,6H3C1.3,6,0,4.7,0,3V0l6,0V6z"/></g>
<g transform="translate(420,192) scale(2.06)"><path d="M3,6H0V0l6,0v3C6,4.7,4.7,6,3,6z"/></g>
<g transform="translate(456,192) scale(2.06)"><rect width="6" height="6"/></g>
<g transform="translate(468,192) scale(2.06)"><rect width="6" height="6"/></g>
<g transform="translate(492,192) scale(2.06)"><path d="M3,6L3,6C1.3,6,0,4.7,0,3V0h6v3C6,4.7,4.7,6,3,6z"/></g>
<g transform="translate(36,204) scale(2.06)"><rect width="6" height="6"/></g>
<g transform="translate(72,204) scale(2.06)"><path d="M6,6H0V3c0-1.7,1.3-3,3-3h0c1.7,0,3,1.3,3,3V6z"/></g>
<g transform="translate(108,204) scale(2.06)"><path d="M3,6L3,6C1.3,6,0,4.7,0,3V0h6v3C6,4.7,4.7,6,3,6z"/></g>
<g transform="translate(132,204) scale(2.06)"><path d="M6,6H0V3c0-1.7,1.3-3,3-3l3,0V6z"/></g>
<g transform="translate(144,204) scale(2.06)"><rect width="6" height="6"/></g>
<g transform="translate(156,204) scale(2.06)"><rect width="6" height="6"/></g>
<g transform="translate(168,204) scale(2.06)"><rect width="6" height="6"/></g>
<g transform="translate(192,204) scale(2.06)"><path d="M6,6H0V3c0-1.7,1.3-3,3-3l3,0V6z"/></g>
<g transform="translate(204,204) scale(2.06)"><rect width="6" height="6"/></g>
<g transform="translate(216,204) scale(2.06)"><rect width="6" height="6"/></g>
<g transform="translate(240,204) scale(2.06)"><path d="M6,6H3C1.3,6,0,4.7,0,3V0l6,0V6z"/></g>
<g transform="translate(252,204) scale(2.06)"><path d="M3,6H0V0l3,0c1.7,0,3,1.3,3,3v0C6,4.7,4.7,6,3,6z"/></g>
<g transform="translate(288,204) scale(2.06)"><path d="M3,6L3,6C1.3,6,0,4.7,0,3V0h6v3C6,4.7,4.7,6,3,6z"/></g>
<g transform="translate(312,204) scale(2.06)"><path d="M6,6H0V3c0-1.7,1.3-3,3-3h0c1.7,0,3,1.3,3,3V6z"/></g>
<g transform="translate(360,204) scale(2.06)"><circle cx="3" cy="3" r="3"/></g>
<g transform="translate(432,204) scale(2.06)"><path d="M6,6H3C1.3,6,0,4.7,0,3v0c0-1.7,1.3-3,3-3h3C6,0,6,6,6,6z"/></g>
<g transform="translate(444,204) scale(2.06)"><rect width="6" height="6"/></g>
<g transform="translate(456,204) scale(2.06)"><rect width="6" height="6"/></g>
<g transform="translate(468,204) scale(2.06)"><path d="M3,6H0V0l6,0v3C6,4.7,4.7,6,3,6z"/></g>
<g transform="translate(24,216) scale(2.06)"><path d="M6,6H3C1.3,6,0,4.7,0,3v0c0-1.7,1.3-3,3-3h3C6,0,6,6,6,6z"/></g>
<g transform="translate(36,216) scale(2.06)"><rect width="6" height="6"/></g>
<g transform="translate(48,216) scale(2.06)"><rect width="6" height="6"/></g>
<g transform="translate(60,216) scale(2.06)"><rect width="6" height="6"/></g>
<g transform="translate(72,216) scale(2.06)"><rect width="6" height="6"/></g>
<g transform="translate(84,216) scale(2.06)"><rect width="6" height="6"/></g>
<g transform="translate(96,216) scale(2.06)"><path d="M3,6H0V0l3,0c1.7,0,3,1.3,3,3v0C6,4.7,4.7,6,3,6z"/></g>
<g transform="translate(132,216) scale(2.06)"><path d="M3,6L3,6C1.3,6,0,4.7,0,3V0h6v3C6,4.7,4.7,6,3,6z"/></g>
<g transform="translate(168,216) scale(2.06)"><path d="M3,6L3,6C1.3,6,0,4.7,0,3V0h6v3C6,4.7,4.7,6,3,6z"/></g>
<g transform="translate(192,216) scale(2.06)"><path d="M6,6H3C1.3,6,0,4.7,0,3V0l6,0V6z"/></g>
<g transform="translate(204,216) scale(2.06)"><rect width="6" height="6"/></g>
<g transform="translate(216,216) scale(2.06)"><rect width="6" height="6"/></g>
<g transform="translate(228,216) scale(2.06)"><path d="M6,6H0V0l3,0c1.7,0,3,1.3,3,3V6z"/></g>
<g transform="translate(264,216) scale(2.06)"><circle cx="3" cy="3" r="3"/></g>
<g transform="translate(312,216) scale(2.06)"><path d="M6,6H3C1.3,6,0,4.7,0,3V0l6,0V6z"/></g>
<g transform="translate(324,216) scale(2.06)"><rect width="6" height="6"/></g>
<g transform="translate(336,216) scale(2.06)"><path d="M3,6H0V0l3,0c1.7,0,3,1.3,3,3v0C6,4.7,4.7,6,3,6z"/></g>
<g transform="translate(372,216) scale(2.06)"><path d="M6,6H0V3c0-1.7,1.3-3,3-3h0c1.7,0,3,1.3,3,3V6z"/></g>
<g transform="translate(408,216) scale(2.06)"><path d="M6,6H0V3c0-1.7,1.3-3,3-3l3,0V6z"/></g>
<g transform="translate(420,216) scale(2.06)"><path d="M3,6H0V0l3,0c1.7,0,3,1.3,3,3v0C6,4.7,4.7,6,3,6z"/></g>
<g transform="translate(444,216) scale(2.06)"><rect width="6" height="6"/></g>
<g transform="translate(480,216) scale(2.06)"><path d="M6,6H0V3c0-1.7,1.3-3,3-3h0c1.7,0,3,1.3,3,3V6z"/></g>
<g transform="translate(504,216) scale(2.06)"><circle cx="3" cy="3" r="3"/></g>
<g transform="translate(36,228) scale(2.06)"><rect width="6" height="6"/></g>
<g transform="translate(48,228) scale(2.06)"><path d="M3,6H0V0l6,0v3C6,4.7,4.7,6,3,6z"/></g>
<g transform="translate(72,228) scale(2.06)"><path d="M3,6L3,6C1.3,6,0,4.7,0,3V0h6v3C6,4.7,4.7,6,3,6z"/></g>
<g transform="translate(108,228) scale(2.06)"><circle cx="3" cy="3" r="3"/></g>
<g transform="translate(144,228) scale(2.06)"><path d="M6,6H0V3c0-1.7,1.3-3,3-3l3,0V6z"/></g>
<g transform="translate(156,228) scale(2.06)"><path d="M6,6H0V0l3,0c1.7,0,3,1.3,3,3V6z"/></g>
<g transform="translate(180,228) scale(2.06)"><path d="M6,6H0V3c0-1.7,1.3-3,3-3h0c1.7,0,3,1.3,3,3V6z"/></g>
<g transform="translate(216,228) scale(2.06)"><rect width="6" height="6"/></g>
<g transform="translate(228,228) scale(2.06)"><rect width="6" height="6"/></g>
<g transform="translate(240,228) scale(2.06)"><rect width="6" height="6"/></g>
<g transform="translate(252,228) scale(2.06)"><path d="M3,6H0V0l3,0c1.7,0,3,1.3,3,3v0C6,4.7,4.7,6,3,6z"/></g>
<g transform="translate(300,228) scale(2.06)"><circle cx="3" cy="3" r="3"/></g>
<g transform="translate(324,228) scale(2.06)"><rect width="6" height="6"/></g>
<g transform="translate(360,228) scale(2.06)"><path d="M6,6H0V3c0-1.7,1.3-3,3-3l3,0V6z"/></g>
<g transform="translate(372,228) scale(2.06)"><rect width="6" height="6"/></g>
<g transform="translate(384,228) scale(2.06)"><rect width="6" height="6"/></g>
<g transform="translate(396,228) scale(2.06)"><rect width="6" height="6"/></g>
<g transform="translate(408,228) scale(2.06)"><rect width="6" height="6"/></g>
<g transform="translate(432,228) scale(2.06)"><path d="M6,6H3C1.3,6,0,4.7,0,3v0c0-1.7,1.3-3,3-3h3C6,0,6,6,6,6z"/></g>
<g transform="translate(444,228) scale(2.06)"><rect width="6" height="6"/></g>
<g transform="translate(456,228) scale(2.06)"><rect width="6" height="6"/></g>
<g transform="translate(468,228) scale(2.06)"><rect width="6" height="6"/></g>
<g transform="translate(480,228) scale(2.06)"><rect width="6" height="6"/></g>
<g transform="translate(492,228) scale(2.06)"><path d="M3,6H0V0l3,0c1.7,0,3,1.3,3,3v0C6,4.7,4.7,6,3,6z"/></g>
<g transform="translate(36,240) scale(2.06)"><rect width="6" height="6"/></g>
<g transform="translate(96,240) scale(2.06)"><circle cx="3" cy="3" r="3"/></g>
<g transform="translate(132,240) scale(2.06)"><path d="M6,6H0V3c0-1.7,1.3-3,3-3l3,0V6z"/></g>
<g transform="translate(144,240) scale(2.06)"><rect width="6" height="6"/></g>
<g transform="translate(156,240) scale(2.06)"><path d="M3,6H0V0l6,0v3C6,4.7,4.7,6,3,6z"/></g>
<g transform="translate(180,240) scale(2.06)"><path d="M3,6L3,6C1.3,6,0,4.7,0,3V0h6v3C6,4.7,4.7,6,3,6z"/></g>
<g transform="translate(204,240) scale(2.06)"><path d="M6,6H0V3c0-1.7,1.3-3,3-3l3,0V6z"/></g>
<g transform="translate(216,240) scale(2.06)"><rect width="6" height="6"/></g>
<g transform="translate(228,240) scale(2.06)"><rect width="6" height="6"/></g>
<g transform="translate(288,240) scale(2.06)"><circle cx="3" cy="3" r="3"/></g>
<g transform="translate(324,240) scale(2.06)"><rect width="6" height="6"/></g>
<g transform="translate(336,240) scale(2.06)"><rect width="6" height="6"/></g>
<g transform="translate(348,240) scale(2.06)"><rect width="6" height="6"/></g>
<g transform="translate(360,240) scale(2.06)"><rect width="6" height="6"/></g>
<g transform="translate(372,240) scale(2.06)"><path d="M3,6H0V0l6,0v3C6,4.7,4.7,6,3,6z"/></g>
<g transform="translate(408,240) scale(2.06)"><path d="M3,6L3,6C1.3,6,0,4.7,0,3V0h6v3C6,4.7,4.7,6,3,6z"/></g>
<g transform="translate(456,240) scale(2.06)"><rect width="6" height="6"/></g>
<g transform="translate(468,240) scale(2.06)"><rect width="6" height="6"/></g>
<g transform="translate(36,252) scale(2.06)"><rect width="6" height="6"/></g>
<g transform="translate(60,252) scale(2.06)"><path d="M6,6H3C1.3,6,0,4.7,0,3v0c0-1.7,1.3-3,3-3h3C6,0,6,6,6,6z"/></g>
<g transform="translate(72,252) scale(2.06)"><path d="M3,6H0V0l3,0c1.7,0,3,1.3,3,3v0C6,4.7,4.7,6,3,6z"/></g>
<g transform="translate(132,252) scale(2.06)"><rect width="6" height="6"/></g>
<g transform="translate(192,252) scale(2.06)"><path d="M6,6H0V3c0-1.7,1.3-3,3-3l3,0V6z"/></g>
<g transform="translate(204,252) scale(2.06)"><rect width="6" height="6"/></g>
<g transform="translate(228,252) scale(2.06)"><rect width="6" height="6"/></g>
<g transform="translate(264,252) scale(2.06)"><path d="M6,6H0V3c0-1.7,1.3-3,3-3l3,0V6z"/></g>
<g transform="translate(276,252) scale(2.06)"><path d="M3,6H0V0l3,0c1.7,0,3,1.3,3,3v0C6,4.7,4.7,6,3,6z"/></g>
<g transform="translate(300,252) scale(2.06)"><path d="M6,6H0V3c0-1.7,1.3-3,3-3h0c1.7,0,3,1.3,3,3V6z"/></g>
<g transform="translate(324,252) scale(2.06)"><path d="M3,6L3,6C1.3,6,0,4.7,0,3V0h6v3C6,4.7,4.7,6,3,6z"/></g>
<g transform="translate(360,252) scale(2.06)"><path d="M3,6L3,6C1.3,6,0,4.7,0,3V0h6v3C6,4.7,4.7,6,3,6z"/></g>
<g transform="translate(384,252) scale(2.06)"><circle cx="3" cy="3" r="3"/></g>
<g transform="translate(420,252) scale(2.06)"><circle cx="3" cy="3" r="3"/></g>
<g transform="translate(456,252) scale(2.06)"><path d="M6,6H3C1.3,6,0,4.7,0,3V0l6,0V6z"/></g>
<g transform="translate(468,252) scale(2.06)"><rect width="6" height="6"/></g>
<g transform="translate(504,252) scale(2.06)"><path d="M6,6H0V3c0-1.7,1.3-3,3-3h0c1.7,0,3,1.3,3,3V6z"/></g>
<g transform="translate(36,264) scale(2.06)"><path d="M6,6H3C1.3,6,0,4.7,0,3V0l6,0V6z"/></g>
<g transform="translate(48,264) scale(2.06)"><path d="M3,6H0V0l3,0c1.7,0,3,1.3,3,3v0C6,4.7,4.7,6,3,6z"/></g>
<g transform="translate(96,264) scale(2.06)"><circle cx="3" cy="3" r="3"/></g>
<g transform="translate(120,264) scale(2.06)"><path d="M6,6H0V3c0-1.7,1.3-3,3-3l3,0V6z"/></g>
<g transform="translate(132,264) scale(2.06)"><rect width="6" height="6"/></g>
<g transform="translate(144,264) scale(2.06)"><path d="M6,6H0V0l3,0c1.7,0,3,1.3,3,3V6z"/></g>
<g transform="translate(192,264) scale(2.06)"><path d="M6,6H3C1.3,6,0,4.7,0,3V0l6,0V6z"/></g>
<g transform="translate(204,264) scale(2.06)"><rect width="6" height="6"/></g>
<g transform="translate(228,264) scale(2.06)"><rect width="6" height="6"/></g>
<g transform="translate(264,264) scale(2.06)"><path d="M3,6L3,6C1.3,6,0,4.7,0,3V0h6v3C6,4.7,4.7,6,3,6z"/></g>
<g transform="translate(288,264) scale(2.06)"><path d="M6,6H3C1.3,6,0,4.7,0,3v0c0-1.7,1.3-3,3-3h3C6,0,6,6,6,6z"/></g>
<g transform="translate(300,264) scale(2.06)"><rect width="6" height="6"/></g>
<g transform="translate(336,264) scale(2.06)"><circle cx="3" cy="3" r="3"/></g>
<g transform="translate(372,264) scale(2.06)"><path d="M6,6H0V3c0-1.7,1.3-3,3-3h0c1.7,0,3,1.3,3,3V6z"/></g>
<g transform="translate(408,264) scale(2.06)"><path d="M6,6H0V3c0-1.7,1.3-3,3-3h0c1.7,0,3,1.3,3,3V6z"/></g>
<g transform="translate(444,264) scale(2.06)"><path d="M6,6H0V3c0-1.7,1.3-3,3-3h0c1.7,0,3,1.3,3,3V6z"/></g>
<g transform="translate(468,264) scale(2.06)"><path d="M3,6L3,6C1.3,6,0,4.7,0,3V0h6v3C6,4.7,4.7,6,3,6z"/></g>
<g transform="translate(504,264) scale(2.06)"><rect width="6" height="6"/></g>
<g transform="translate(60,276) scale(2.06)"><circle cx="3" cy="3" r="3"/></g>
<g transform="translate(108,276) scale(2.06)"><path d="M6,6H3C1.3,6,0,4.7,0,3v0c0-1.7,1.3-3,3-3h3C6,0,6,6,6,6z"/></g>
<g transform="translate(120,276) scale(2.06)"><rect width="6" height="6"/></g>
<g transform="translate(132,276) scale(2.06)"><rect width="6" height="6"/></g>
<g transform="translate(144,276) scale(2.06)"><path d="M3,6H0V0l6,0v3C6,4.7,4.7,6,3,6z"/></g>
<g transform="translate(168,276) scale(2.06)"><circle cx="3" cy="3" r="3"/></g>
<g transform="translate(204,276) scale(2.06)"><path d="M3,6L3,6C1.3,6,0,4.7,0,3V0h6v3C6,4.7,4.7,6,3,6z"/></g>
<g transform="translate(228,276) scale(2.06)"><rect width="6" height="6"/></g>
<g transform="translate(240,276) scale(2.06)"><rect width="6" height="6"/></g>
<g transform="translate(252,276) scale(2.06)"><path d="M6,6H0V0l3,0c1.7,0,3,1.3,3,3V6z"/></g>
<g transform="translate(276,276) scale(2.06)"><circle cx="3" cy="3" r="3"/></g>
<g transform="translate(300,276) scale(2.06)"><path d="M3,6L3,6C1.3,6,0,4.7,0,3V0h6v3C6,4.7,4.7,6,3,6z"/></g>
<g transform="translate(324,276) scale(2.06)"><path d="M6,6H0V3c0-1.7,1.3-3,3-3h0c1.7,0,3,1.3,3,3V6z"/></g>
<g transform="translate(360,276) scale(2.06)"><path d="M6,6H0V3c0-1.7,1.3-3,3-3l3,0V6z"/></g>
<g transform="translate(372,276) scale(2.06)"><rect width="6" height="6"/></g>
<g transform="translate(384,276) scale(2.06)"><path d="M6,6H0V0l3,0c1.7,0,3,1.3,3,3V6z"/></g>
<g transform="translate(408,276) scale(2.06)"><path d="M6,6H3C1.3,6,0,4.7,0,3V0l6,0V6z"/></g>
<g transform="translate(420,276) scale(2.06)"><rect width="6" height="6"/></g>
<g transform="translate(432,276) scale(2.06)"><rect width="6" height="6"/></g>
<g transform="translate(444,276) scale(2.06)"><rect width="6" height="6"/></g>
<g transform="translate(456,276) scale(2.06)"><path d="M6,6H0V0l3,0c1.7,0,3,1.3,3,3V6z"/></g>
<g transform="translate(492,276) scale(2.06)"><path d="M6,6H3C1.3,6,0,4.7,0,3v0c0-1.7,1.3-3,3-3h3C6,0,6,6,6,6z"/></g>
<g transform="translate(504,276) scale(2.06)"><path d="M3,6H0V0l6,0v3C6,4.7,4.7,6,3,6z"/></g>
<g transform="translate(24,288) scale(2.06)"><path d="M6,6H0V3c0-1.7,1.3-3,3-3h0c1.7,0,3,1.3,3,3V6z"/></g>
<g transform="translate(72,288) scale(2.06)"><circle cx="3" cy="3" r="3"/></g>
<g transform="translate(96,288) scale(2.06)"><circle cx="3" cy="3" r="3"/></g>
<g transform="translate(120,288) scale(2.06)"><rect width="6" height="6"/></g>
<g transform="translate(156,288) scale(2.06)"><circle cx="3" cy="3" r="3"/></g>
<g transform="translate(180,288) scale(2.06)"><circle cx="3" cy="3" r="3"/></g>
<g transform="translate(216,288) scale(2.06)"><path d="M6,6H0V3c0-1.7,1.3-3,3-3l3,0V6z"/></g>
<g transform="translate(228,288) scale(2.06)"><path d="M3,6H0V0l6,0v3C6,4.7,4.7,6,3,6z"/></g>
<g transform="translate(252,288) scale(2.06)"><rect width="6" height="6"/></g>
<g transform="translate(264,288) scale(2.06)"><path d="M6,6H0V0l3,0c1.7,0,3,1.3,3,3V6z"/></g>
<g transform="translate(324,288) scale(2.06)"><path d="M6,6H3C1.3,6,0,4.7,0,3V0l6,0V6z"/></g>
<g transform="translate(336,288) scale(2.06)"><rect width="6" height="6"/></g>
<g transform="translate(348,288) scale(2.06)"><rect width="6" height="6"/></g>
<g transform="translate(360,288) scale(2.06)"><rect width="6" height="6"/></g>
<g transform="translate(384,288) scale(2.06)"><path d="M3,6L3,6C1.3,6,0,4.7,0,3V0h6v3C6,4.7,4.7,6,3,6z"/></g>
<g transform="translate(444,288) scale(2.06)"><rect width="6" height="6"/></g>
<g transform="translate(456,288) scale(2.06)"><rect width="6" height="6"/></g>
<g transform="translate(468,288) scale(2.06)"><rect width="6" height="6"/></g>
<g transform="translate(480,288) scale(2.06)"><path d="M3,6H0V0l3,0c1.7,0,3,1.3,3,3v0C6,4.7,4.7,6,3,6z"/></g>
<g transform="translate(24,300) scale(2.06)"><rect width="6" height="6"/></g>
<g transform="translate(120,300) scale(2.06)"><rect width="6" height="6"/></g>
<g transform="translate(204,300) scale(2.06)"><path d="M6,6H3C1.3,6,0,4.7,0,3v0c0-1.7,1.3-3,3-3h3C6,0,6,6,6,6z"/></g>
<g transform="translate(216,300) scale(2.06)"><rect width="6" height="6"/></g>
<g transform="translate(240,300) scale(2.06)"><path d="M6,6H3C1.3,6,0,4.7,0,3v0c0-1.7,1.3-3,3-3h3C6,0,6,6,6,6z"/></g>
<g transform="translate(252,300) scale(2.06)"><rect width="6" height="6"/></g>
<g transform="translate(264,300) scale(2.06)"><rect width="6" height="6"/></g>
<g transform="translate(288,300) scale(2.06)"><path d="M6,6H0V3c0-1.7,1.3-3,3-3h0c1.7,0,3,1.3,3,3V6z"/></g>
<g transform="translate(312,300) scale(2.06)"><path d="M6,6H0V3c0-1.7,1.3-3,3-3h0c1.7,0,3,1.3,3,3V6z"/></g>
<g transform="translate(360,300) scale(2.06)"><rect width="6" height="6"/></g>
<g transform="translate(396,300) scale(2.06)"><circle cx="3" cy="3" r="3"/></g>
<g transform="translate(444,300) scale(2.06)"><path d="M6,6H3C1.3,6,0,4.7,0,3V0l6,0V6z"/></g>
<g transform="translate(456,300) scale(2.06)"><rect width="6" height="6"/></g>
<g transform="translate(468,300) scale(2.06)"><rect width="6" height="6"/></g>
<g transform="translate(492,300) scale(2.06)"><circle cx="3" cy="3" r="3"/></g>
<g transform="translate(24,312) scale(2.06)"><path d="M6,6H3C1.3,6,0,4.7,0,3V0l6,0V6z"/></g>
<g transform="translate(36,312) scale(2.06)"><path d="M3,6H0V0l3,0c1.7,0,3,1.3,3,3v0C6,4.7,4.7,6,3,6z"/></g>
<g transform="translate(60,312) scale(2.06)"><circle cx="3" cy="3" r="3"/></g>
<g transform="translate(84,312) scale(2.06)"><path d="M6,6H0V3c0-1.7,1.3-3,3-3l3,0V6z"/></g>
<g transform="translate(96,312) scale(2.06)"><path d="M3,6H0V0l3,0c1.7,0,3,1.3,3,3v0C6,4.7,4.7,6,3,6z"/></g>
<g transform="translate(120,312) scale(2.06)"><rect width="6" height="6"/></g>
<g transform="translate(132,312) scale(2.06)"><rect width="6" height="6"/></g>
<g transform="translate(144,312) scale(2.06)"><rect width="6" height="6"/></g>
<g transform="translate(156,312) scale(2.06)"><path d="M3,6H0V0l3,0c1.7,0,3,1.3,3,3v0C6,4.7,4.7,6,3,6z"/></g>
<g transform="translate(180,312) scale(2.06)"><path d="M6,6H0V3c0-1.7,1.3-3,3-3l3,0V6z"/></g>
<g transform="translate(192,312) scale(2.06)"><path d="M6,6H0V0l3,0c1.7,0,3,1.3,3,3V6z"/></g>
<g transform="translate(216,312) scale(2.06)"><path d="M6,6H3C1.3,6,0,4.7,0,3V0l6,0V6z"/></g>
<g transform="translate(228,312) scale(2.06)"><path d="M6,6H0V0l3,0c1.7,0,3,1.3,3,3V6z"/></g>
<g transform="translate(252,312) scale(2.06)"><rect width="6" height="6"/></g>
<g transform="translate(264,312) scale(2.06)"><rect width="6" height="6"/></g>
<g transform="translate(288,312) scale(2.06)"><rect width="6" height="6"/></g>
<g transform="translate(300,312) scale(2.06)"><rect width="6" height="6"/></g>
<g transform="translate(312,312) scale(2.06)"><rect width="6" height="6"/></g>
<g transform="translate(324,312) scale(2.06)"><rect width="6" height="6"/></g>
<g transform="translate(336,312) scale(2.06)"><rect width="6" height="6"/></g>
<g transform="translate(348,312) scale(2.06)"><rect width="6" height="6"/></g>
<g transform="translate(360,312) scale(2.06)"><rect width="6" height="6"/></g>
<g transform="translate(372,312) scale(2.06)"><path d="M3,6H0V0l3,0c1.7,0,3,1.3,3,3v0C6,4.7,4.7,6,3,6z"/></g>
<g transform="translate(468,312) scale(2.06)"><rect width="6" height="6"/></g>
<g transform="translate(480,312) scale(2.06)"><path d="M3,6H0V0l3,0c1.7,0,3,1.3,3,3v0C6,4.7,4.7,6,3,6z"/></g>
<g transform="translate(72,324) scale(2.06)"><path d="M6,6H0V3c0-1.7,1.3-3,3-3l3,0V6z"/></g>
<g transform="translate(84,324) scale(2.06)"><path d="M3,6H0V0l6,0v3C6,4.7,4.7,6,3,6z"/></g>
<g transform="translate(108,324) scale(2.06)"><path d="M6,6H0V3c0-1.7,1.3-3,3-3l3,0V6z"/></g>
<g transform="translate(120,324) scale(2.06)"><rect width="6" height="6"/></g>
<g transform="translate(132,324) scale(2.06)"><rect width="6" height="6"/></g>
<g transform="translate(144,324) scale(2.06)"><rect width="6" height="6"/></g>
<g transform="translate(168,324) scale(2.06)"><path d="M6,6H0V3c0-1.7,1.3-3,3-3l3,0V6z"/></g>
<g transform="translate(180,324) scale(2.06)"><rect width="6" height="6"/></g>
<g transform="translate(192,324) scale(2.06)"><rect width="6" height="6"/></g>
<g transform="translate(204,324) scale(2.06)"><path d="M6,6H0V0l3,0c1.7,0,3,1.3,3,3V6z"/></g>
<g transform="translate(228,324) scale(2.06)"><path d="M3,6L3,6C1.3,6,0,4.7,0,3V0h6v3C6,4.7,4.7,6,3,6z"/></g>
<g transform="translate(252,324) scale(2.06)"><path d="M6,6H3C1.3,6,0,4.7,0,3V0l6,0V6z"/></g>
<g transform="translate(264,324) scale(2.06)"><path d="M3,6H0V0l6,0v3C6,4.7,4.7,6,3,6z"/></g>
<g transform="translate(288,324) scale(2.06)"><rect width="6" height="6"/></g>
<g transform="translate(300,324) scale(2.06)"><path d="M3,6H0V0l6,0v3C6,4.7,4.7,6,3,6z"/></g>
<g transform="translate(360,324) scale(2.06)"><path d="M3,6L3,6C1.3,6,0,4.7,0,3V0h6v3C6,4.7,4.7,6,3,6z"/></g>
<g transform="translate(396,324) scale(2.06)"><circle cx="3" cy="3" r="3"/></g>
<g transform="translate(420,324) scale(2.06)"><path d="M6,6H3C1.3,6,0,4.7,0,3v0c0-1.7,1.3-3,3-3h3C6,0,6,6,6,6z"/></g>
<g transform="translate(432,324) scale(2.06)"><rect width="6" height="6"/></g>
<g transform="translate(444,324) scale(2.06)"><rect width="6" height="6"/></g>
<g transform="translate(456,324) scale(2.06)"><rect width="6" height="6"/></g>
<g transform="translate(468,324) scale(2.06)"><path d="M3,6H0V0l6,0v3C6,4.7,4.7,6,3,6z"/></g>
<g transform="translate(492,324) scale(2.06)"><path d="M6,6H3C1.3,6,0,4.7,0,3v0c0-1.7,1.3-3,3-3h3C6,0,6,6,6,6z"/></g>
<g transform="translate(504,324) scale(2.06)"><path d="M3,6H0V0l3,0c1.7,0,3,1.3,3,3v0C6,4.7,4.7,6,3,6z"/></g>
<g transform="translate(36,336) scale(2.06)"><path d="M6,6H3C1.3,6,0,4.7,0,3v0c0-1.7,1.3-3,3-3h3C6,0,6,6,6,6z"/></g>
<g transform="translate(48,336) scale(2.06)"><path d="M3,6H0V0l3,0c1.7,0,3,1.3,3,3v0C6,4.7,4.7,6,3,6z"/></g>
<g transform="translate(72,336) scale(2.06)"><rect width="6" height="6"/></g>
<g transform="translate(96,336) scale(2.06)"><path d="M6,6H3C1.3,6,0,4.7,0,3v0c0-1.7,1.3-3,3-3h3C6,0,6,6,6,6z"/></g>
<g transform="translate(108,336) scale(2.06)"><rect width="6" height="6"/></g>
<g transform="translate(120,336) scale(2.06)"><path d="M3,6H0V0l6,0v3C6,4.7,4.7,6,3,6z"/></g>
<g transform="translate(144,336) scale(2.06)"><path d="M3,6L3,6C1.3,6,0,4.7,0,3V0h6v3C6,4.7,4.7,6,3,6z"/></g>
<g transform="translate(168,336) scale(2.06)"><path d="M3,6L3,6C1.3,6,0,4.7,0,3V0h6v3C6,4.7,4.7,6,3,6z"/></g>
<g transform="translate(204,336) scale(2.06)"><path d="M6,6H3C1.3,6,0,4.7,0,3V0l6,0V6z"/></g>
<g transform="translate(216,336) scale(2.06)"><path d="M6,6H0V0l3,0c1.7,0,3,1.3,3,3V6z"/></g>
<g transform="translate(240,336) scale(2.06)"><circle cx="3" cy="3" r="3"/></g>
<g transform="translate(276,336) scale(2.06)"><path d="M6,6H0V3c0-1.7,1.3-3,3-3l3,0V6z"/></g>
<g transform="translate(288,336) scale(2.06)"><path d="M3,6H0V0l6,0v3C6,4.7,4.7,6,3,6z"/></g>
<g transform="translate(348,336) scale(2.06)"><path d="M6,6H0V3c0-1.7,1.3-3,3-3h0c1.7,0,3,1.3,3,3V6z"/></g>
<g transform="translate(408,336) scale(2.06)"><path d="M6,6H0V3c0-1.7,1.3-3,3-3h0c1.7,0,3,1.3,3,3V6z"/></g>
<g transform="translate(432,336) scale(2.06)"><rect width="6" height="6"/></g>
<g transform="translate(444,336) scale(2.06)"><rect width="6" height="6"/></g>
<g transform="translate(456,336) scale(2.06)"><path d="M3,6H0V0l6,0v3C6,4.7,4.7,6,3,6z"/></g>
<g transform="translate(60,348) scale(2.06)"><path d="M6,6H0V3c0-1.7,1.3-3,3-3l3,0V6z"/></g>
<g transform="translate(72,348) scale(2.06)"><path d="M3,6H0V0l6,0v3C6,4.7,4.7,6,3,6z"/></g>
<g transform="translate(108,348) scale(2.06)"><path d="M3,6L3,6C1.3,6,0,4.7,0,3V0h6v3C6,4.7,4.7,6,3,6z"/></g>
<g transform="translate(156,348) scale(2.06)"><path d="M6,6H0V3c0-1.7,1.3-3,3-3h0c1.7,0,3,1.3,3,3V6z"/></g>
<g transform="translate(192,348) scale(2.06)"><circle cx="3" cy="3" r="3"/></g>
<g transform="translate(216,348) scale(2.06)"><path d="M6,6H3C1.3,6,0,4.7,0,3V0l6,0V6z"/></g>
<g transform="translate(228,348) scale(2.06)"><path d="M3,6H0V0l3,0c1.7,0,3,1.3,3,3v0C6,4.7,4.7,6,3,6z"/></g>
<g transform="translate(264,348) scale(2.06)"><path d="M6,6H0V3c0-1.7,1.3-3,3-3l3,0V6z"/></g>
<g transform="translate(276,348) scale(2.06)"><rect width="6" height="6"/></g>
<g transform="translate(300,348) scale(2.06)"><path d="M6,6H0V3c0-1.7,1.3-3,3-3h0c1.7,0,3,1.3,3,3V6z"/></g>
<g transform="translate(348,348) scale(2.06)"><path d="M3,6L3,6C1.3,6,0,4.7,0,3V0h6v3C6,4.7,4.7,6,3,6z"/></g>
<g transform="translate(396,348) scale(2.06)"><path d="M6,6H0V3c0-1.7,1.3-3,3-3l3,0V6z"/></g>
<g transform="translate(408,348) scale(2.06)"><path d="M3,6H0V0l6,0v3C6,4.7,4.7,6,3,6z"/></g>
<g transform="translate(432,348) scale(2.06)"><path d="M3,6L3,6C1.3,6,0,4.7,0,3V0h6v3C6,4.7,4.7,6,3,6z"/></g>
<g transform="translate(468,348) scale(2.06)"><path d="M6,6H0V3c0-1.7,1.3-3,3-3h0c1.7,0,3,1.3,3,3V6z"/></g>
<g transform="translate(48,360) scale(2.06)"><path d="M6,6H0V3c0-1.7,1.3-3,3-3l3,0V6z"/></g>
<g transform="translate(60,360) scale(2.06)"><rect width="6" height="6"/></g>
<g transform="translate(96,360) scale(2.06)"><circle cx="3" cy="3" r="3"/></g>
<g transform="translate(120,360) scale(2.06)"><path d="M6,6H0V3c0-1.7,1.3-3,3-3l3,0V6z"/></g>
<g transform="translate(132,360) scale(2.06)"><path d="M3,6H0V0l3,0c1.7,0,3,1.3,3,3v0C6,4.7,4.7,6,3,6z"/></g>
<g transform="translate(156,360) scale(2.06)"><rect width="6" height="6"/></g>
<g transform="translate(168,360) scale(2.06)"><path d="M3,6H0V0l3,0c1.7,0,3,1.3,3,3v0C6,4.7,4.7,6,3,6z"/></g>
<g transform="translate(264,360) scale(2.06)"><rect width="6" height="6"/></g>
<g transform="translate(276,360) scale(2.06)"><rect width="6" height="6"/></g>
<g transform="translate(300,360) scale(2.06)"><path d="M6,6H3C1.3,6,0,4.7,0,3V0l6,0V6z"/></g>
<g transform="translate(312,360) scale(2.06)"><rect width="6" height="6"/></g>
<g transform="translate(324,360) scale(2.06)"><rect width="6" height="6"/></g>
<g transform="translate(336,360) scale(2.06)"><path d="M6,6H0V0l3,0c1.7,0,3,1.3,3,3V6z"/></g>
<g transform="translate(372,360) scale(2.06)"><path d="M6,6H0V3c0-1.7,1.3-3,3-3h0c1.7,0,3,1.3,3,3V6z"/></g>
<g transform="translate(396,360) scale(2.06)"><rect width="6" height="6"/></g>
<g transform="translate(444,360) scale(2.06)"><path d="M6,6H0V3c0-1.7,1.3-3,3-3h0c1.7,0,3,1.3,3,3V6z"/></g>
<g transform="translate(468,360) scale(2.06)"><path d="M6,6H3C1.3,6,0,4.7,0,3V0l6,0V6z"/></g>
<g transform="translate(480,360) scale(2.06)"><path d="M3,6H0V0l3,0c1.7,0,3,1.3,3,3v0C6,4.7,4.7,6,3,6z"/></g>
<g transform="translate(504,360) scale(2.06)"><path d="M6,6H0V3c0-1.7,1.3-3,3-3h0c1.7,0,3,1.3,3,3V6z"/></g>
<g transform="translate(24,372) scale(2.06)"><path d="M6,6H0V3c0-1.7,1.3-3,3-3l3,0V6z"/></g>
<g transform="translate(36,372) scale(2.06)"><rect width="6" height="6"/></g>
<g transform="translate(48,372) scale(2.06)"><rect width="6" height="6"/></g>
<g transform="translate(60,372) scale(2.06)"><rect width="6" height="6"/></g>
<g transform="translate(120,372) scale(2.06)"><rect width="6" height="6"/></g>
<g transform="translate(144,372) scale(2.06)"><path d="M6,6H3C1.3,6,0,4.7,0,3v0c0-1.7,1.3-3,3-3h3C6,0,6,6,6,6z"/></g>
<g transform="translate(156,372) scale(2.06)"><rect width="6" height="6"/></g>
<g transform="translate(204,372) scale(2.06)"><path d="M6,6H3C1.3,6,0,4.7,0,3v0c0-1.7,1.3-3,3-3h3C6,0,6,6,6,6z"/></g>
<g transform="translate(216,372) scale(2.06)"><path d="M6,6H0V0l3,0c1.7,0,3,1.3,3,3V6z"/></g>
<g transform="translate(240,372) scale(2.06)"><path d="M6,6H0V3c0-1.7,1.3-3,3-3l3,0V6z"/></g>
<g transform="translate(252,372) scale(2.06)"><rect width="6" height="6"/></g>
<g transform="translate(264,372) scale(2.06)"><rect width="6" height="6"/></g>
<g transform="translate(276,372) scale(2.06)"><path d="M3,6H0V0l6,0v3C6,4.7,4.7,6,3,6z"/></g>
<g transform="translate(324,372) scale(2.06)"><rect width="6" height="6"/></g>
<g transform="translate(336,372) scale(2.06)"><rect width="6" height="6"/></g>
<g transform="translate(348,372) scale(2.06)"><path d="M6,6H0V0l3,0c1.7,0,3,1.3,3,3V6z"/></g>
<g transform="translate(372,372) scale(2.06)"><rect width="6" height="6"/></g>
<g transform="translate(384,372) scale(2.06)"><rect width="6" height="6"/></g>
<g transform="translate(396,372) scale(2.06)"><rect width="6" height="6"/></g>
<g transform="translate(408,372) scale(2.06)"><path d="M3,6H0V0l3,0c1.7,0,3,1.3,3,3v0C6,4.7,4.7,6,3,6z"/></g>
<g transform="translate(444,372) scale(2.06)"><path d="M6,6H3C1.3,6,0,4.7,0,3V0l6,0V6z"/></g>
<g transform="translate(456,372) scale(2.06)"><path d="M6,6H0V0l3,0c1.7,0,3,1.3,3,3V6z"/></g>
<g transform="translate(492,372) scale(2.06)"><path d="M6,6H3C1.3,6,0,4.7,0,3v0c0-1.7,1.3-3,3-3h3C6,0,6,6,6,6z"/></g>
<g transform="translate(504,372) scale(2.06)"><path d="M3,6H0V0l6,0v3C6,4.7,4.7,6,3,6z"/></g>
<g transform="translate(24,384) scale(2.06)"><rect width="6" height="6"/></g>
<g transform="translate(60,384) scale(2.06)"><path d="M6,6H3C1.3,6,0,4.7,0,3V0l6,0V6z"/></g>
<g transform="translate(72,384) scale(2.06)"><rect width="6" height="6"/></g>
<g transform="translate(84,384) scale(2.06)"><rect width="6" height="6"/></g>
<g transform="translate(96,384) scale(2.06)"><path d="M3,6H0V0l3,0c1.7,0,3,1.3,3,3v0C6,4.7,4.7,6,3,6z"/></g>
<g transform="translate(120,384) scale(2.06)"><rect width="6" height="6"/></g>
<g transform="translate(132,384) scale(2.06)"><path d="M3,6H0V0l3,0c1.7,0,3,1.3,3,3v0C6,4.7,4.7,6,3,6z"/></g>
<g transform="translate(156,384) scale(2.06)"><rect width="6" height="6"/></g>
<g transform="translate(180,384) scale(2.06)"><path d="M6,6H3C1.3,6,0,4.7,0,3v0c0-1.7,1.3-3,3-3h3C6,0,6,6,6,6z"/></g>
<g transform="translate(192,384) scale(2.06)"><path d="M3,6H0V0l3,0c1.7,0,3,1.3,3,3v0C6,4.7,4.7,6,3,6z"/></g>
<g transform="translate(216,384) scale(2.06)"><path d="M3,6L3,6C1.3,6,0,4.7,0,3V0h6v3C6,4.7,4.7,6,3,6z"/></g>
<g transform="translate(240,384) scale(2.06)"><path d="M3,6L3,6C1.3,6,0,4.7,0,3V0h6v3C6,4.7,4.7,6,3,6z"/></g>
<g transform="translate(300,384) scale(2.06)"><path d="M6,6H0V3c0-1.7,1.3-3,3-3l3,0V6z"/></g>
<g transform="translate(312,384) scale(2.06)"><rect width="6" height="6"/></g>
<g transform="translate(324,384) scale(2.06)"><rect width="6" height="6"/></g>
<g transform="translate(336,384) scale(2.06)"><rect width="6" height="6"/></g>
<g transform="translate(348,384) scale(2.06)"><rect width="6" height="6"/></g>
<g transform="translate(360,384) scale(2.06)"><rect width="6" height="6"/></g>
<g transform="translate(372,384) scale(2.06)"><path d="M3,6H0V0l6,0v3C6,4.7,4.7,6,3,6z"/></g>
<g transform="translate(420,384) scale(2.06)"><path d="M6,6H0V3c0-1.7,1.3-3,3-3l3,0V6z"/></g>
<g transform="translate(432,384) scale(2.06)"><path d="M6,6H0V0l3,0c1.7,0,3,1.3,3,3V6z"/></g>
<g transform="translate(456,384) scale(2.06)"><rect width="6" height="6"/></g>
<g transform="translate(468,384) scale(2.06)"><path d="M6,6H0V0l3,0c1.7,0,3,1.3,3,3V6z"/></g>
<g transform="translate(24,396) scale(2.06)"><rect width="6" height="6"/></g>
<g transform="translate(48,396) scale(2.06)"><circle cx="3" cy="3" r="3"/></g>
<g transform="translate(72,396) scale(2.06)"><rect width="6" height="6"/></g>
<g transform="translate(84,396) scale(2.06)"><path d="M3,6H0V0l6,0v3C6,4.7,4.7,6,3,6z"/></g>
<g transform="translate(120,396) scale(2.06)"><rect width="6" height="6"/></g>
<g transform="translate(156,396) scale(2.06)"><path d="M3,6L3,6C1.3,6,0,4.7,0,3V0h6v3C6,4.7,4.7,6,3,6z"/></g>
<g transform="translate(228,396) scale(2.06)"><path d="M6,6H0V3c0-1.7,1.3-3,3-3h0c1.7,0,3,1.3,3,3V6z"/></g>
<g transform="translate(300,396) scale(2.06)"><rect width="6" height="6"/></g>
<g transform="translate(336,396) scale(2.06)"><rect width="6" height="6"/></g>
<g transform="translate(396,396) scale(2.06)"><circle cx="3" cy="3" r="3"/></g>
<g transform="translate(420,396) scale(2.06)"><rect width="6" height="6"/></g>
<g transform="translate(432,396) scale(2.06)"><rect width="6" height="6"/></g>
<g transform="translate(444,396) scale(2.06)"><rect width="6" height="6"/></g>
<g transform="translate(456,396) scale(2.06)"><rect width="6" height="6"/></g>
<g transform="translate(468,396) scale(2.06)"><rect width="6" height="6"/></g>
<g transform="translate(504,396) scale(2.06)"><circle cx="3" cy="3" r="3"/></g>
<g transform="translate(24,408) scale(2.06)"><path d="M3,6L3,6C1.3,6,0,4.7,0,3V0h6v3C6,4.7,4.7,6,3,6z"/></g>
<g transform="translate(72,408) scale(2.06)"><path d="M3,6L3,6C1.3,6,0,4.7,0,3V0h6v3C6,4.7,4.7,6,3,6z"/></g>
<g transform="translate(96,408) scale(2.06)"><circle cx="3" cy="3" r="3"/></g>
<g transform="translate(120,408) scale(2.06)"><rect width="6" height="6"/></g>
<g transform="translate(228,408) scale(2.06)"><path d="M6,6H3C1.3,6,0,4.7,0,3V0l6,0V6z"/></g>
<g transform="translate(240,408) scale(2.06)"><rect width="6" height="6"/></g>
<g transform="translate(252,408) scale(2.06)"><path d="M6,6H0V0l3,0c1.7,0,3,1.3,3,3V6z"/></g>
<g transform="translate(276,408) scale(2.06)"><circle cx="3" cy="3" r="3"/></g>
<g transform="translate(300,408) scale(2.06)"><rect width="6" height="6"/></g>
<g transform="translate(312,408) scale(2.06)"><rect width="6" height="6"/></g>
<g transform="translate(324,408) scale(2.06)"><rect width="6" height="6"/></g>
<g transform="translate(336,408) scale(2.06)"><rect width="6" height="6"/></g>
<g transform="translate(348,408) scale(2.06)"><path d="M3,6H0V0l3,0c1.7,0,3,1.3,3,3v0C6,4.7,4.7,6,3,6z"/></g>
<g transform="translate(372,408) scale(2.06)"><path d="M6,6H0V3c0-1.7,1.3-3,3-3h0c1.7,0,3,1.3,3,3V6z"/></g>
<g transform="translate(408,408) scale(2.06)"><path d="M6,6H0V3c0-1.7,1.3-3,3-3l3,0V6z"/></g>
<g transform="translate(420,408) scale(2.06)"><rect width="6" height="6"/></g>
<g transform="translate(432,408) scale(2.06)"><rect width="6" height="6"/></g>
<g transform="translate(444,408) scale(2.06)"><rect width="6" height="6"/></g>
<g transform="translate(456,408) scale(2.06)"><rect width="6" height="6"/></g>
<g transform="translate(468,408) scale(2.06)"><rect width="6" height="6"/></g>
<g transform="translate(480,408) scale(2.06)"><rect width="6" height="6"/></g>
<g transform="translate(492,408) scale(2.06)"><path d="M6,6H0V0l3,0c1.7,0,3,1.3,3,3V6z"/></g>
<g transform="translate(120,420) scale(2.06)"><rect width="6" height="6"/></g>
<g transform="translate(132,420) scale(2.06)"><rect width="6" height="6"/></g>
<g transform="translate(144,420) scale(2.06)"><rect width="6" height="6"/></g>
<g transform="translate(156,420) scale(2.06)"><path d="M6,6H0V0l3,0c1.7,0,3,1.3,3,3V6z"/></g>
<g transform="translate(192,420) scale(2.06)"><circle cx="3" cy="3" r="3"/></g>
<g transform="translate(252,420) scale(2.06)"><path d="M6,6H3C1.3,6,0,4.7,0,3V0l6,0V6z"/></g>
<g transform="translate(264,420) scale(2.06)"><path d="M3,6H0V0l3,0c1.7,0,3,1.3,3,3v0C6,4.7,4.7,6,3,6z"/></g>
<g transform="translate(288,420) scale(2.06)"><path d="M6,6H3C1.3,6,0,4.7,0,3v0c0-1.7,1.3-3,3-3h3C6,0,6,6,6,6z"/></g>
<g transform="translate(300,420) scale(2.06)"><rect width="6" height="6"/></g>
<g transform="translate(312,420) scale(2.06)"><rect width="6" height="6"/></g>
<g transform="translate(372,420) scale(2.06)"><rect width="6" height="6"/></g>
<g transform="translate(384,420) scale(2.06)"><path d="M6,6H0V0l3,0c1.7,0,3,1.3,3,3V6z"/></g>
<g transform="translate(408,420) scale(2.06)"><rect width="6" height="6"/></g>
<g transform="translate(456,420) scale(2.06)"><rect width="6" height="6"/></g>
<g transform="translate(492,420) scale(2.06)"><rect width="6" height="6"/></g>
<g transform="translate(504,420) scale(2.06)"><path d="M3,6H0V0l3,0c1.7,0,3,1.3,3,3v0C6,4.7,4.7,6,3,6z"/></g>
<g transform="translate(120,432) scale(2.06)"><rect width="6" height="6"/></g>
<g transform="translate(132,432) scale(2.06)"><rect width="6" height="6"/></g>
<g transform="translate(144,432) scale(2.06)"><rect width="6" height="6"/></g>
<g transform="translate(156,432) scale(2.06)"><rect width="6" height="6"/></g>
<g transform="translate(168,432) scale(2.06)"><path d="M6,6H0V0l3,0c1.7,0,3,1.3,3,3V6z"/></g>
<g transform="translate(204,432) scale(2.06)"><path d="M6,6H0V3c0-1.7,1.3-3,3-3h0c1.7,0,3,1.3,3,3V6z"/></g>
<g transform="translate(228,432) scale(2.06)"><circle cx="3" cy="3" r="3"/></g>
<g transform="translate(312,432) scale(2.06)"><rect width="6" height="6"/></g>
<g transform="translate(348,432) scale(2.06)"><circle cx="3" cy="3" r="3"/></g>
<g transform="translate(372,432) scale(2.06)"><path d="M6,6H3C1.3,6,0,4.7,0,3V0l6,0V6z"/></g>
<g transform="translate(384,432) scale(2.06)"><rect width="6" height="6"/></g>
<g transform="translate(396,432) scale(2.06)"><rect width="6" height="6"/></g>
<g transform="translate(408,432) scale(2.06)"><rect width="6" height="6"/></g>
<g transform="translate(432,432) scale(2.06)"><circle cx="3" cy="3" r="3"/></g>
<g transform="translate(456,432) scale(2.06)"><rect width="6" height="6"/></g>
<g transform="translate(468,432) scale(2.06)"><rect width="6" height="6"/></g>
<g transform="translate(480,432) scale(2.06)"><rect width="6" height="6"/></g>
<g transform="translate(492,432) scale(2.06)"><path d="M3,6H0V0l6,0v3C6,4.7,4.7,6,3,6z"/></g>
<g transform="translate(120,444) scale(2.06)"><rect width="6" height="6"/></g>
<g transform="translate(132,444) scale(2.06)"><path d="M3,6H0V0l6,0v3C6,4.7,4.7,6,3,6z"/></g>
<g transform="translate(156,444) scale(2.06)"><path d="M6,6H3C1.3,6,0,4.7,0,3V0l6,0V6z"/></g>
<g transform="translate(168,444) scale(2.06)"><rect width="6" height="6"/></g>
<g transform="translate(204,444) scale(2.06)"><path d="M6,6H3C1.3,6,0,4.7,0,3V0l6,0V6z"/></g>
<g transform="translate(216,444) scale(2.06)"><path d="M3,6H0V0l3,0c1.7,0,3,1.3,3,3v0C6,4.7,4.7,6,3,6z"/></g>
<g transform="translate(240,444) scale(2.06)"><path d="M6,6H0V3c0-1.7,1.3-3,3-3h0c1.7,0,3,1.3,3,3V6z"/></g>
<g transform="translate(264,444) scale(2.06)"><path d="M6,6H3C1.3,6,0,4.7,0,3v0c0-1.7,1.3-3,3-3h3C6,0,6,6,6,6z"/></g>
<g transform="translate(276,444) scale(2.06)"><path d="M6,6H0V0l3,0c1.7,0,3,1.3,3,3V6z"/></g>
<g transform="translate(300,444) scale(2.06)"><path d="M6,6H3C1.3,6,0,4.7,0,3v0c0-1.7,1.3-3,3-3h3C6,0,6,6,6,6z"/></g>
<g transform="translate(312,444) scale(2.06)"><rect width="6" height="6"/></g>
<g transform="translate(336,444) scale(2.06)"><circle cx="3" cy="3" r="3"/></g>
<g transform="translate(360,444) scale(2.06)"><circle cx="3" cy="3" r="3"/></g>
<g transform="translate(384,444) scale(2.06)"><path d="M6,6H3C1.3,6,0,4.7,0,3V0l6,0V6z"/></g>
<g transform="translate(396,444) scale(2.06)"><rect width="6" height="6"/></g>
<g transform="translate(408,444) scale(2.06)"><rect width="6" height="6"/></g>
<g transform="translate(456,444) scale(2.06)"><rect width="6" height="6"/></g>
<g transform="translate(468,444) scale(2.06)"><path d="M3,6H0V0l6,0v3C6,4.7,4.7,6,3,6z"/></g>
<g transform="translate(120,456) scale(2.06)"><rect width="6" height="6"/></g>
<g transform="translate(144,456) scale(2.06)"><path d="M6,6H0V3c0-1.7,1.3-3,3-3h0c1.7,0,3,1.3,3,3V6z"/></g>
<g transform="translate(168,456) scale(2.06)"><path d="M3,6L3,6C1.3,6,0,4.7,0,3V0h6v3C6,4.7,4.7,6,3,6z"/></g>
<g transform="translate(192,456) scale(2.06)"><path d="M6,6H0V3c0-1.7,1.3-3,3-3h0c1.7,0,3,1.3,3,3V6z"/></g>
<g transform="translate(240,456) scale(2.06)"><rect width="6" height="6"/></g>
<g transform="translate(276,456) scale(2.06)"><rect width="6" height="6"/></g>
<g transform="translate(312,456) scale(2.06)"><path d="M3,6L3,6C1.3,6,0,4.7,0,3V0h6v3C6,4.7,4.7,6,3,6z"/></g>
<g transform="translate(372,456) scale(2.06)"><circle cx="3" cy="3" r="3"/></g>
<g transform="translate(408,456) scale(2.06)"><path d="M6,6H3C1.3,6,0,4.7,0,3V0l6,0V6z"/></g>
<g transform="translate(420,456) scale(2.06)"><rect width="6" height="6"/></g>
<g transform="translate(432,456) scale(2.06)"><rect width="6" height="6"/></g>
<g transform="translate(444,456) scale(2.06)"><rect width="6" height="6"/></g>
<g transform="translate(456,456) scale(2.06)"><path d="M3,6H0V0l6,0v3C6,4.7,4.7,6,3,6z"/></g>
<g transform="translate(480,456) scale(2.06)"><circle cx="3" cy="3" r="3"/></g>
<g transform="translate(504,456) scale(2.06)"><circle cx="3" cy="3" r="3"/></g>
<g transform="translate(120,468) scale(2.06)"><rect width="6" height="6"/></g>
<g transform="translate(144,468) scale(2.06)"><path d="M6,6H3C1.3,6,0,4.7,0,3V0l6,0V6z"/></g>
<g transform="translate(156,468) scale(2.06)"><path d="M3,6H0V0l3,0c1.7,0,3,1.3,3,3v0C6,4.7,4.7,6,3,6z"/></g>
<g transform="translate(192,468) scale(2.06)"><path d="M3,6L3,6C1.3,6,0,4.7,0,3V0h6v3C6,4.7,4.7,6,3,6z"/></g>
<g transform="translate(216,468) scale(2.06)"><circle cx="3" cy="3" r="3"/></g>
<g transform="translate(240,468) scale(2.06)"><path d="M6,6H3C1.3,6,0,4.7,0,3V0l6,0V6z"/></g>
<g transform="translate(252,468) scale(2.06)"><path d="M3,6H0V0l3,0c1.7,0,3,1.3,3,3v0C6,4.7,4.7,6,3,6z"/></g>
<g transform="translate(276,468) scale(2.06)"><rect width="6" height="6"/></g>
<g transform="translate(300,468) scale(2.06)"><circle cx="3" cy="3" r="3"/></g>
<g transform="translate(336,468) scale(2.06)"><circle cx="3" cy="3" r="3"/></g>
<g transform="translate(360,468) scale(2.06)"><path d="M6,6H0V3c0-1.7,1.3-3,3-3h0c1.7,0,3,1.3,3,3V6z"/></g>
<g transform="translate(420,468) scale(2.06)"><rect width="6" height="6"/></g>
<g transform="translate(444,468) scale(2.06)"><rect width="6" height="6"/></g>
<g transform="translate(468,468) scale(2.06)"><circle cx="3" cy="3" r="3"/></g>
<g transform="translate(492,468) scale(2.06)"><circle cx="3" cy="3" r="3"/></g>
<g transform="translate(120,480) scale(2.06)"><rect width="6" height="6"/></g>
<g transform="translate(132,480) scale(2.06)"><path d="M3,6H0V0l3,0c1.7,0,3,1.3,3,3v0C6,4.7,4.7,6,3,6z"/></g>
<g transform="translate(168,480) scale(2.06)"><path d="M6,6H0V3c0-1.7,1.3-3,3-3h0c1.7,0,3,1.3,3,3V6z"/></g>
<g transform="translate(276,480) scale(2.06)"><rect width="6" height="6"/></g>
<g transform="translate(288,480) scale(2.06)"><path d="M6,6H0V0l3,0c1.7,0,3,1.3,3,3V6z"/></g>
<g transform="translate(312,480) scale(2.06)"><path d="M6,6H0V3c0-1.7,1.3-3,3-3l3,0V6z"/></g>
<g transform="translate(324,480) scale(2.06)"><path d="M3,6H0V0l3,0c1.7,0,3,1.3,3,3v0C6,4.7,4.7,6,3,6z"/></g>
<g transform="translate(348,480) scale(2.06)"><path d="M6,6H0V3c0-1.7,1.3-3,3-3l3,0V6z"/></g>
<g transform="translate(360,480) scale(2.06)"><rect width="6" height="6"/></g>
<g transform="translate(396,480) scale(2.06)"><path d="M6,6H0V3c0-1.7,1.3-3,3-3l3,0V6z"/></g>
<g transform="translate(408,480) scale(2.06)"><rect width="6" height="6"/></g>
<g transform="translate(420,480) scale(2.06)"><rect width="6" height="6"/></g>
<g transform="translate(432,480) scale(2.06)"><rect width="6" height="6"/></g>
<g transform="translate(444,480) scale(2.06)"><rect width="6" height="6"/></g>
<g transform="translate(456,480) scale(2.06)"><path d="M6,6H0V0l3,0c1.7,0,3,1.3,3,3V6z"/></g>
<g transform="translate(120,492) scale(2.06)"><path d="M3,6L3,6C1.3,6,0,4.7,0,3V0h6v3C6,4.7,4.7,6,3,6z"/></g>
<g transform="translate(144,492) scale(2.06)"><path d="M6,6H0V3c0-1.7,1.3-3,3-3l3,0V6z"/></g>
<g transform="translate(156,492) scale(2.06)"><rect width="6" height="6"/></g>
<g transform="translate(168,492) scale(2.06)"><path d="M3,6H0V0l6,0v3C6,4.7,4.7,6,3,6z"/></g>
<g transform="translate(192,492) scale(2.06)"><circle cx="3" cy="3" r="3"/></g>
<g transform="translate(216,492) scale(2.06)"><path d="M6,6H0V3c0-1.7,1.3-3,3-3l3,0V6z"/></g>
<g transform="translate(228,492) scale(2.06)"><path d="M3,6H0V0l3,0c1.7,0,3,1.3,3,3v0C6,4.7,4.7,6,3,6z"/></g>
<g transform="translate(276,492) scale(2.06)"><rect width="6" height="6"/></g>
<g transform="translate(288,492) scale(2.06)"><rect width="6" height="6"/></g>
<g transform="translate(300,492) scale(2.06)"><rect width="6" height="6"/></g>
<g transform="translate(312,492) scale(2.06)"><rect width="6" height="6"/></g>
<g transform="translate(336,492) scale(2.06)"><path d="M6,6H0V3c0-1.7,1.3-3,3-3l3,0V6z"/></g>
<g transform="translate(348,492) scale(2.06)"><rect width="6" height="6"/></g>
<g transform="translate(360,492) scale(2.06)"><path d="M3,6H0V0l6,0v3C6,4.7,4.7,6,3,6z"/></g>
<g transform="translate(384,492) scale(2.06)"><path d="M6,6H3C1.3,6,0,4.7,0,3v0c0-1.7,1.3-3,3-3h3C6,0,6,6,6,6z"/></g>
<g transform="translate(396,492) scale(2.06)"><rect width="6" height="6"/></g>
<g transform="translate(408,492) scale(2.06)"><path d="M3,6H0V0l6,0v3C6,4.7,4.7,6,3,6z"/></g>
<g transform="translate(456,492) scale(2.06)"><rect width="6" height="6"/></g>
<g transform="translate(468,492) scale(2.06)"><path d="M3,6H0V0l3,0c1.7,0,3,1.3,3,3v0C6,4.7,4.7,6,3,6z"/></g>
<g transform="translate(492,492) scale(2.06)"><circle cx="3" cy="3" r="3"/></g>
<g transform="translate(132,504) scale(2.06)"><path d="M6,6H3C1.3,6,0,4.7,0,3v0c0-1.7,1.3-3,3-3h3C6,0,6,6,6,6z"/></g>
<g transform="translate(144,504) scale(2.06)"><rect width="6" height="6"/></g>
<g transform="translate(156,504) scale(2.06)"><path d="M3,6H0V0l6,0v3C6,4.7,4.7,6,3,6z"/></g>
<g transform="translate(180,504) scale(2.06)"><circle cx="3" cy="3" r="3"/></g>
<g transform="translate(204,504) scale(2.06)"><path d="M6,6H3C1.3,6,0,4.7,0,3v0c0-1.7,1.3-3,3-3h3C6,0,6,6,6,6z"/></g>
<g transform="translate(216,504) scale(2.06)"><path d="M3,6H0V0l6,0v3C6,4.7,4.7,6,3,6z"/></g>
<g transform="translate(240,504) scale(2.06)"><circle cx="3" cy="3" r="3"/></g>
<g transform="translate(264,504) scale(2.06)"><path d="M6,6H3C1.3,6,0,4.7,0,3v0c0-1.7,1.3-3,3-3h3C6,0,6,6,6,6z"/></g>
<g transform="translate(276,504) scale(2.06)"><rect width="6" height="6"/></g>
<g transform="translate(288,504) scale(2.06)"><path d="M3,6H0V0l6,0v3C6,4.7,4.7,6,3,6z"/></g>
<g transform="translate(312,504) scale(2.06)"><path d="M6,6H3C1.3,6,0,4.7,0,3V0l6,0V6z"/></g>
<g transform="translate(324,504) scale(2.06)"><rect width="6" height="6"/></g>
<g transform="translate(336,504) scale(2.06)"><rect width="6" height="6"/></g>
<g transform="translate(348,504) scale(2.06)"><path d="M3,6H0V0l6,0v3C6,4.7,4.7,6,3,6z"/></g>
<g transform="translate(372,504) scale(2.06)"><circle cx="3" cy="3" r="3"/></g>
<g transform="translate(396,504) scale(2.06)"><path d="M3,6L3,6C1.3,6,0,4.7,0,3V0h6v3C6,4.7,4.7,6,3,6z"/></g>
<g transform="translate(444,504) scale(2.06)"><path d="M6,6H3C1.3,6,0,4.7,0,3v0c0-1.7,1.3-3,3-3h3C6,0,6,6,6,6z"/></g>
<g transform="translate(456,504) scale(2.06)"><path d="M3,6H0V0l6,0v3C6,4.7,4.7,6,3,6z"/></g>
<g transform="translate(480,504) scale(2.06)"><circle cx="3" cy="3" r="3"/></g>
<g transform="translate(24,24)"><g transform="scale(6)"><path d="M0,0v14h14V0H0z M12,12H2V2h10V12z"/></g></g>
<g transform="translate(432,24)"><g transform="scale(6)"><path d="M0,0v14h14V0H0z M12,12H2V2h10V12z"/></g></g>
<g transform="translate(24,432)"><g transform="scale(6)"><path d="M0,0v14h14V0H0z M12,12H2V2h10V12z"/></g></g>
<g transform="translate(48,48)"><g transform="scale(6)"><rect width="6" height="6"/></g></g>
<g transform="translate(456,48)"><g transform="scale(6)"><rect width="6" height="6"/></g></g>
<g transform="translate(48,456)"><g transform="scale(6)"><rect width="6" height="6"/></g></g>
</g></svg>
